<svg width="22" height="22" viewBox="0 0 22 22" fill="none" xmlns="http://www.w3.org/2000/svg">
<path d="M16 17.4297H12L7.55 20.3897C7.39982 20.4898 7.22528 20.5473 7.045 20.556C6.86472 20.5646 6.68546 20.5242 6.52635 20.439C6.36724 20.3538 6.23424 20.227 6.14154 20.0722C6.04884 19.9173 5.99992 19.7402 6 19.5597V17.4297C3 17.4297 1 15.4297 1 12.4297V6.42969C1 3.42969 3 1.42969 6 1.42969H16C19 1.42969 21 3.42969 21 6.42969V12.4297C21 15.4297 19 17.4297 16 17.4297Z" stroke="white" strokeWidth="1.5" strokeMiterlimit="10" strokeLinecap="round" strokeLinejoin="round"/>
<path d="M10.9998 10.3594V10.1494C10.9998 9.46937 11.4198 9.10937 11.8398 8.81937C12.2498 8.53937 12.6598 8.17938 12.6598 7.51938C12.6598 6.59938 11.9198 5.85938 10.9998 5.85938C10.0798 5.85938 9.33984 6.59938 9.33984 7.51938" stroke="white" strokeWidth="1.5" strokeLinecap="round" strokeLinejoin="round"/>
<path d="M10.9951 12.75H11.0051" stroke="white" strokeWidth="1.5" strokeLinecap="round" strokeLinejoin="round"/>
</svg>
