<svg width="22" height="22" viewBox="0 0 22 22" fill="none" xmlns="http://www.w3.org/2000/svg">
<path d="M8.02 1.83821L2.63 6.03821C1.73 6.73821 1 8.22821 1 9.35821V16.7682C1 19.0882 2.89 20.9882 5.21 20.9882H16.79C19.11 20.9882 21 19.0882 21 16.7782V9.49821C21 8.28821 20.19 6.73821 19.2 6.04821L13.02 1.71821C11.62 0.738209 9.37 0.788209 8.02 1.83821Z" stroke="white" strokeWidth="1.5" strokeLinecap="round" strokeLinejoin="round"/>
<path d="M9.5 17H12.5C14.15 17 15.5 15.65 15.5 14V11C15.5 9.35 14.15 8 12.5 8H9.5C7.85 8 6.5 9.35 6.5 11V14C6.5 15.65 7.85 17 9.5 17Z" stroke="white" strokeWidth="1.5" strokeLinecap="round" strokeLinejoin="round"/>
<path d="M11 8V17" stroke="white" strokeWidth="1.5" strokeLinecap="round" strokeLinejoin="round"/>
<path d="M6.5 12.5H15.5" stroke="white" strokeWidth="1.5" strokeLinecap="round" strokeLinejoin="round"/>
</svg>
