<svg width="16" height="22" viewBox="0 0 16 22" fill="none" xmlns="http://www.w3.org/2000/svg">
<path d="M8.16008 9.87072C8.06008 9.86072 7.94008 9.86072 7.83008 9.87072C6.68228 9.83175 5.59472 9.34756 4.79771 8.52068C4.00069 7.6938 3.55682 6.58917 3.56008 5.44072C3.56008 2.99072 5.54008 1.00072 8.00008 1.00072C8.58249 0.990216 9.16127 1.09453 9.70337 1.3077C10.2455 1.52087 10.7403 1.83874 11.1595 2.24313C11.5788 2.64753 11.9143 3.13055 12.1469 3.66461C12.3795 4.19867 12.5046 4.77331 12.5151 5.35572C12.5256 5.93813 12.4213 6.51691 12.2081 7.05901C11.9949 7.60111 11.6771 8.09592 11.2727 8.51517C10.8683 8.93443 10.3852 9.26993 9.85119 9.50251C9.31713 9.7351 8.74249 9.86022 8.16008 9.87072V9.87072Z" stroke="white" strokeWidth="1.5" strokeLinecap="round" strokeLinejoin="round"/>
<path d="M3.16021 13.56C0.740215 15.18 0.740215 17.82 3.16021 19.43C5.91021 21.27 10.4202 21.27 13.1702 19.43C15.5902 17.81 15.5902 15.17 13.1702 13.56C10.4302 11.73 5.92021 11.73 3.16021 13.56V13.56Z" stroke="white" strokeWidth="1.5" strokeLinecap="round" strokeLinejoin="round"/>
</svg>
