<svg width="1380" height="1062" viewBox="0 0 1380 1062" fill="none" xmlns="http://www.w3.org/2000/svg">
<g opacity="0.6">
<path style="mix-blend-mode:color-dodge" d="M174.839 49.4297C175.739 49.4297 176.469 62.3097 176.469 78.1897C176.469 94.0697 175.739 106.96 174.839 106.96C173.939 106.96 173.209 94.0797 173.209 78.1897C173.209 62.2997 173.969 49.4297 174.839 49.4297Z" fill="url(#paint0_radial_8523_2313)"/>
<path style="mix-blend-mode:color-dodge" d="M146.109 78.1612C146.109 77.2612 158.989 76.5312 174.869 76.5312C190.749 76.5312 203.639 77.2612 203.639 78.1612C203.639 79.0612 190.759 79.7912 174.869 79.7912C158.979 79.7912 146.109 79.0612 146.109 78.1612Z" fill="url(#paint1_radial_8523_2313)"/>
<path style="mix-blend-mode:color-dodge" d="M72.8392 213.43C73.4692 213.43 73.9792 222.43 73.9792 233.53C73.9792 244.63 73.4692 253.63 72.8392 253.63C72.2092 253.63 71.6992 244.63 71.6992 233.53C71.6992 222.43 72.2392 213.43 72.8392 213.43Z" fill="url(#paint2_radial_8523_2313)"/>
<path style="mix-blend-mode:color-dodge" d="M72.8695 234.639C83.9705 234.639 92.9695 234.129 92.9695 233.499C92.9695 232.87 83.9705 232.359 72.8695 232.359C61.7686 232.359 52.7695 232.87 52.7695 233.499C52.7695 234.129 61.7686 234.639 72.8695 234.639Z" fill="url(#paint3_radial_8523_2313)"/>
<path style="mix-blend-mode:color-dodge" d="M458.2 280.34C458.581 280.34 458.89 274.891 458.89 268.17C458.89 261.449 458.581 256 458.2 256C457.819 256 457.51 261.449 457.51 268.17C457.51 274.891 457.819 280.34 458.2 280.34Z" fill="url(#paint4_radial_8523_2313)"/>
<path style="mix-blend-mode:color-dodge" d="M446.039 268.159C446.039 267.779 451.489 267.469 458.209 267.469C464.929 267.469 470.369 267.779 470.369 268.159C470.369 268.539 464.929 268.849 458.209 268.849C451.489 268.849 446.039 268.539 446.039 268.159Z" fill="url(#paint5_radial_8523_2313)"/>
<path style="mix-blend-mode:color-dodge" d="M552.7 163.34C553.081 163.34 553.39 157.891 553.39 151.17C553.39 144.449 553.081 139 552.7 139C552.319 139 552.01 144.449 552.01 151.17C552.01 157.891 552.319 163.34 552.7 163.34Z" fill="url(#paint6_radial_8523_2313)"/>
<path style="mix-blend-mode:color-dodge" d="M540.539 151.159C540.539 150.779 545.989 150.469 552.709 150.469C559.429 150.469 564.869 150.779 564.869 151.159C564.869 151.539 559.429 151.849 552.709 151.849C545.989 151.849 540.539 151.539 540.539 151.159Z" fill="url(#paint7_radial_8523_2313)"/>
<path style="mix-blend-mode:color-dodge" d="M364.7 24.34C365.081 24.34 365.39 18.8913 365.39 12.17C365.39 5.44869 365.081 0 364.7 0C364.319 0 364.01 5.44869 364.01 12.17C364.01 18.8913 364.319 24.34 364.7 24.34Z" fill="url(#paint8_radial_8523_2313)"/>
<path style="mix-blend-mode:color-dodge" d="M352.539 12.1588C352.539 11.7788 357.989 11.4688 364.709 11.4688C371.429 11.4688 376.869 11.7788 376.869 12.1588C376.869 12.5388 371.429 12.8487 364.709 12.8487C357.989 12.8487 352.539 12.5388 352.539 12.1588Z" fill="url(#paint9_radial_8523_2313)"/>
<path style="mix-blend-mode:color-dodge" d="M342.049 763.481C342.049 762.581 329.169 761.851 313.289 761.851C297.409 761.851 284.519 762.581 284.519 763.481C284.519 764.381 297.399 765.111 313.289 765.111C329.179 765.111 342.049 764.351 342.049 763.481Z" fill="url(#paint10_radial_8523_2313)"/>
<path style="mix-blend-mode:color-dodge" d="M313.319 792.211C314.219 792.211 314.949 779.331 314.949 763.451C314.949 747.571 314.219 734.681 313.319 734.681C312.419 734.681 311.689 747.561 311.689 763.451C311.689 779.341 312.419 792.211 313.319 792.211Z" fill="url(#paint11_radial_8523_2313)"/>
<path style="mix-blend-mode:color-dodge" d="M178.049 865.481C178.049 864.851 169.049 864.341 157.949 864.341C146.849 864.341 137.849 864.851 137.849 865.481C137.849 866.111 146.849 866.621 157.949 866.621C169.049 866.621 178.049 866.081 178.049 865.481Z" fill="url(#paint12_radial_8523_2313)"/>
<path style="mix-blend-mode:color-dodge" d="M156.839 865.451C156.839 854.35 157.35 845.351 157.979 845.351C158.609 845.351 159.119 854.35 159.119 865.451C159.119 876.552 158.609 885.551 157.979 885.551C157.35 885.551 156.839 876.552 156.839 865.451Z" fill="url(#paint13_radial_8523_2313)"/>
<path style="mix-blend-mode:color-dodge" d="M111.139 480.121C111.139 479.739 116.587 479.431 123.309 479.431C130.03 479.431 135.479 479.739 135.479 480.121C135.479 480.502 130.03 480.811 123.309 480.811C116.587 480.811 111.139 480.502 111.139 480.121Z" fill="url(#paint14_radial_8523_2313)"/>
<path style="mix-blend-mode:color-dodge" d="M123.32 492.281C123.7 492.281 124.01 486.831 124.01 480.111C124.01 473.391 123.7 467.951 123.32 467.951C122.94 467.951 122.63 473.391 122.63 480.111C122.63 486.831 122.94 492.281 123.32 492.281Z" fill="url(#paint15_radial_8523_2313)"/>
<path style="mix-blend-mode:color-dodge" d="M228.139 385.621C228.139 385.239 233.587 384.931 240.309 384.931C247.03 384.931 252.479 385.239 252.479 385.621C252.479 386.002 247.03 386.311 240.309 386.311C233.587 386.311 228.139 386.002 228.139 385.621Z" fill="url(#paint16_radial_8523_2313)"/>
<path style="mix-blend-mode:color-dodge" d="M240.318 397.781C240.698 397.781 241.008 392.331 241.008 385.611C241.008 378.891 240.698 373.451 240.318 373.451C239.938 373.451 239.628 378.891 239.628 385.611C239.628 392.331 239.938 397.781 240.318 397.781Z" fill="url(#paint17_radial_8523_2313)"/>
<path style="mix-blend-mode:color-dodge" d="M367.139 573.621C367.139 573.239 372.587 572.931 379.309 572.931C386.03 572.931 391.479 573.239 391.479 573.621C391.479 574.002 386.03 574.311 379.309 574.311C372.587 574.311 367.139 574.002 367.139 573.621Z" fill="url(#paint18_radial_8523_2313)"/>
<path style="mix-blend-mode:color-dodge" d="M379.32 585.781C379.7 585.781 380.01 580.331 380.01 573.611C380.01 566.891 379.7 561.451 379.32 561.451C378.94 561.451 378.63 566.891 378.63 573.611C378.63 580.331 378.94 585.781 379.32 585.781Z" fill="url(#paint19_radial_8523_2313)"/>
<path style="mix-blend-mode:color-dodge" d="M522.589 1061.18C523.219 1061.18 523.729 1052.18 523.729 1041.08C523.729 1029.98 523.219 1020.98 522.589 1020.98C521.959 1020.98 521.449 1029.98 521.449 1041.08C521.449 1052.18 521.989 1061.18 522.589 1061.18Z" fill="url(#paint20_radial_8523_2313)"/>
<path style="mix-blend-mode:color-dodge" d="M522.62 1039.97C533.72 1039.97 542.72 1040.48 542.72 1041.11C542.72 1041.74 533.72 1042.25 522.62 1042.25C511.519 1042.25 502.52 1041.74 502.52 1041.11C502.52 1040.48 511.519 1039.97 522.62 1039.97Z" fill="url(#paint21_radial_8523_2313)"/>
<path style="mix-blend-mode:color-dodge" d="M907.95 994.269C908.331 994.269 908.64 999.718 908.64 1006.44C908.64 1013.16 908.331 1018.61 907.95 1018.61C907.569 1018.61 907.26 1013.16 907.26 1006.44C907.26 999.718 907.569 994.269 907.95 994.269Z" fill="url(#paint22_radial_8523_2313)"/>
<path style="mix-blend-mode:color-dodge" d="M895.789 1006.45C895.789 1006.83 901.239 1007.14 907.959 1007.14C914.679 1007.14 920.119 1006.83 920.119 1006.45C920.119 1006.07 914.679 1005.76 907.959 1005.76C901.239 1005.76 895.789 1006.07 895.789 1006.45Z" fill="url(#paint23_radial_8523_2313)"/>
<path d="M122.077 124.976C122.015 125.103 121.994 125.247 122.017 125.387C122.04 125.527 122.107 125.656 122.207 125.756C122.307 125.857 122.436 125.923 122.576 125.946C122.716 125.97 122.86 125.949 122.987 125.886C123.118 125.83 123.222 125.727 123.277 125.596C123.343 125.469 123.367 125.324 123.345 125.183C123.322 125.042 123.256 124.911 123.154 124.811C123.052 124.71 122.921 124.645 122.779 124.624C122.638 124.604 122.494 124.629 122.367 124.696C122.242 124.754 122.139 124.853 122.077 124.976Z" fill="white" fill-opacity="0.5"/>
<path d="M136.427 117.797C136.364 117.924 136.343 118.068 136.367 118.208C136.39 118.348 136.456 118.477 136.557 118.577C136.657 118.678 136.786 118.744 136.926 118.767C137.066 118.791 137.21 118.769 137.337 118.707C137.466 118.649 137.569 118.546 137.627 118.417C137.689 118.29 137.711 118.146 137.687 118.006C137.664 117.866 137.598 117.737 137.497 117.637C137.397 117.536 137.268 117.47 137.128 117.447C136.988 117.423 136.844 117.445 136.717 117.507C136.591 117.569 136.489 117.671 136.427 117.797Z" fill="white" fill-opacity="0.5"/>
<path d="M132.915 111.055C133.161 110.809 133.145 110.394 132.88 110.129C132.614 109.863 132.199 109.848 131.953 110.094C131.707 110.34 131.723 110.754 131.989 111.02C132.254 111.285 132.669 111.301 132.915 111.055Z" fill="white" fill-opacity="0.5"/>
<path d="M201.347 125.895C201.284 126.022 201.263 126.166 201.287 126.306C201.31 126.446 201.376 126.575 201.477 126.675C201.577 126.775 201.706 126.842 201.846 126.865C201.986 126.888 202.129 126.867 202.257 126.805C202.386 126.747 202.489 126.643 202.547 126.515C202.609 126.387 202.63 126.244 202.607 126.104C202.584 125.964 202.518 125.835 202.417 125.734C202.317 125.634 202.188 125.568 202.048 125.544C201.908 125.521 201.764 125.542 201.637 125.605C201.511 125.666 201.408 125.768 201.347 125.895Z" fill="white" fill-opacity="0.5"/>
<path d="M473.07 439.436C473.007 439.563 472.986 439.707 473.009 439.847C473.032 439.987 473.099 440.116 473.199 440.216C473.299 440.316 473.429 440.383 473.569 440.406C473.708 440.429 473.852 440.408 473.98 440.346C474.108 440.288 474.211 440.184 474.27 440.056C474.332 439.928 474.353 439.785 474.33 439.645C474.307 439.505 474.24 439.376 474.14 439.275C474.04 439.175 473.91 439.109 473.77 439.085C473.631 439.062 473.487 439.083 473.36 439.146C473.233 439.207 473.131 439.309 473.07 439.436Z" fill="white" fill-opacity="0.5"/>
<path d="M207.007 159.866C206.945 159.993 206.923 160.137 206.947 160.277C206.97 160.417 207.036 160.546 207.137 160.646C207.237 160.747 207.366 160.813 207.506 160.836C207.646 160.859 207.79 160.838 207.917 160.776C208.047 160.72 208.151 160.616 208.207 160.486C208.266 160.33 208.265 160.158 208.205 160.002C208.146 159.847 208.031 159.719 207.883 159.642C207.735 159.566 207.564 159.546 207.402 159.588C207.241 159.629 207.1 159.728 207.007 159.866Z" fill="white" fill-opacity="0.5"/>
<path d="M208.148 182.306C208.085 182.433 208.064 182.577 208.087 182.717C208.111 182.857 208.177 182.986 208.277 183.086C208.378 183.186 208.507 183.253 208.647 183.276C208.787 183.299 208.93 183.278 209.058 183.216C209.188 183.16 209.292 183.056 209.348 182.926C209.401 182.846 209.438 182.756 209.454 182.662C209.47 182.567 209.467 182.47 209.443 182.377C209.419 182.284 209.376 182.197 209.316 182.122C209.257 182.047 209.182 181.985 209.096 181.941C209.011 181.897 208.917 181.872 208.821 181.866C208.726 181.861 208.63 181.876 208.54 181.911C208.45 181.945 208.369 181.998 208.302 182.066C208.234 182.134 208.181 182.216 208.148 182.306Z" fill="white" fill-opacity="0.5"/>
<path d="M230.866 170.957C230.804 171.085 230.783 171.228 230.806 171.368C230.829 171.508 230.896 171.637 230.996 171.738C231.096 171.838 231.225 171.904 231.365 171.928C231.505 171.951 231.649 171.93 231.776 171.867C231.903 171.806 232.005 171.703 232.066 171.577C232.129 171.45 232.15 171.306 232.127 171.166C232.103 171.026 232.037 170.897 231.937 170.797C231.836 170.697 231.707 170.63 231.567 170.607C231.427 170.584 231.284 170.605 231.156 170.667C231.03 170.729 230.928 170.831 230.866 170.957Z" fill="white" fill-opacity="0.5"/>
<path d="M492.937 604.891C492.874 605.018 492.853 605.162 492.876 605.302C492.9 605.442 492.966 605.571 493.066 605.671C493.167 605.771 493.296 605.838 493.436 605.861C493.576 605.884 493.719 605.863 493.847 605.801C493.973 605.739 494.075 605.637 494.137 605.511C494.199 605.383 494.22 605.24 494.197 605.1C494.174 604.96 494.107 604.831 494.007 604.73C493.907 604.63 493.778 604.564 493.638 604.54C493.498 604.517 493.354 604.538 493.227 604.601C493.1 604.662 492.998 604.764 492.937 604.891Z" fill="white" fill-opacity="0.5"/>
<path d="M263.318 82.547C263.255 82.6744 263.234 82.8181 263.257 82.958C263.28 83.0979 263.347 83.2271 263.447 83.3274C263.548 83.4277 263.677 83.4941 263.817 83.5173C263.957 83.5406 264.1 83.5195 264.228 83.457C264.353 83.3977 264.453 83.2946 264.508 83.167C264.57 83.0397 264.591 82.896 264.568 82.7561C264.545 82.6161 264.478 82.487 264.378 82.3867C264.278 82.2864 264.148 82.2199 264.009 82.1967C263.869 82.1735 263.725 82.1945 263.598 82.257C263.472 82.3163 263.372 82.4195 263.318 82.547Z" fill="white" fill-opacity="0.5"/>
<path d="M267.228 66.4259C267.165 66.5533 267.144 66.697 267.167 66.8369C267.191 66.9768 267.257 67.106 267.357 67.2063C267.458 67.3066 267.587 67.373 267.727 67.3962C267.867 67.4195 268.01 67.3984 268.138 67.3359C268.266 67.2778 268.37 67.1747 268.428 67.0459C268.49 66.9186 268.511 66.7749 268.488 66.635C268.465 66.495 268.398 66.3659 268.298 66.2656C268.198 66.1653 268.069 66.0989 267.929 66.0756C267.789 66.0524 267.645 66.0734 267.518 66.1359C267.389 66.194 267.286 66.2972 267.228 66.4259Z" fill="white" fill-opacity="0.5"/>
<path d="M554.155 822.56C554.093 822.687 554.072 822.831 554.095 822.971C554.118 823.111 554.185 823.24 554.285 823.34C554.385 823.441 554.515 823.507 554.654 823.53C554.794 823.554 554.938 823.533 555.065 823.47C555.196 823.414 555.3 823.311 555.355 823.18C555.421 823.053 555.445 822.908 555.423 822.767C555.401 822.626 555.334 822.495 555.232 822.395C555.13 822.294 554.999 822.229 554.858 822.208C554.716 822.188 554.572 822.213 554.445 822.28C554.32 822.338 554.218 822.437 554.155 822.56Z" fill="white" fill-opacity="0.5"/>
<path d="M825.614 928.517C825.552 928.644 825.531 928.788 825.554 928.928C825.577 929.068 825.644 929.197 825.744 929.297C825.844 929.397 825.974 929.464 826.113 929.487C826.253 929.51 826.397 929.489 826.524 929.427C826.655 929.371 826.759 929.267 826.814 929.137C826.868 929.057 826.904 928.967 826.921 928.873C826.937 928.778 826.933 928.681 826.91 928.588C826.886 928.495 826.843 928.408 826.783 928.333C826.723 928.258 826.648 928.196 826.563 928.152C826.478 928.108 826.384 928.082 826.288 928.077C826.192 928.072 826.096 928.087 826.007 928.121C825.917 928.156 825.836 928.209 825.768 928.277C825.701 928.345 825.648 928.427 825.614 928.517Z" fill="white" fill-opacity="0.5"/>
<path d="M699.306 764.01C699.243 764.137 699.222 764.281 699.246 764.421C699.269 764.561 699.335 764.69 699.435 764.79C699.536 764.891 699.665 764.957 699.805 764.98C699.945 765.003 700.088 764.982 700.216 764.92C700.345 764.862 700.448 764.759 700.506 764.63C700.568 764.503 700.589 764.359 700.566 764.219C700.543 764.079 700.477 763.95 700.376 763.85C700.276 763.749 700.147 763.683 700.007 763.66C699.867 763.636 699.723 763.657 699.596 763.72C699.467 763.778 699.364 763.881 699.306 764.01Z" fill="white" fill-opacity="0.5"/>
<path d="M0.80389 571.193C0.741411 571.32 0.720323 571.464 0.743572 571.604C0.76682 571.744 0.833244 571.873 0.933544 571.973C1.03384 572.074 1.163 572.14 1.30293 572.163C1.44286 572.186 1.58655 572.165 1.71389 572.103C1.84433 572.047 1.94824 571.943 2.0039 571.813C2.06985 571.686 2.09344 571.541 2.07124 571.4C2.04904 571.259 1.9822 571.128 1.8805 571.028C1.77881 570.927 1.64759 570.862 1.50605 570.841C1.36452 570.82 1.22009 570.846 1.0939 570.913C0.968294 570.971 0.866033 571.069 0.80389 571.193Z" fill="white" fill-opacity="0.3"/>
<path d="M32.966 551.906C32.9035 552.034 32.8824 552.177 32.9057 552.317C32.9289 552.457 32.9954 552.586 33.0957 552.687C33.196 552.787 33.3251 552.853 33.465 552.877C33.605 552.9 33.7487 552.879 33.876 552.816C34.0048 552.758 34.1079 552.655 34.166 552.526C34.2285 552.399 34.2496 552.255 34.2263 552.115C34.2031 551.976 34.1367 551.846 34.0364 551.746C33.9361 551.646 33.8069 551.579 33.667 551.556C33.527 551.533 33.3834 551.554 33.256 551.616C33.1297 551.678 33.0276 551.78 32.966 551.906Z" fill="white" fill-opacity="0.3"/>
<path d="M22.9227 529.368C23.1688 529.122 23.153 528.707 22.8874 528.441C22.6218 528.176 22.2071 528.16 21.9611 528.406C21.7151 528.652 21.7309 529.067 21.9965 529.332C22.262 529.598 22.6767 529.614 22.9227 529.368Z" fill="white" fill-opacity="0.3"/>
<path d="M95.5109 494.559C95.4485 494.686 95.4274 494.83 95.4506 494.97C95.4738 495.11 95.5403 495.239 95.6406 495.339C95.7409 495.439 95.87 495.506 96.01 495.529C96.1499 495.552 96.2936 495.531 96.4209 495.469C96.5497 495.411 96.6528 495.307 96.7109 495.179C96.7734 495.051 96.7945 494.908 96.7712 494.768C96.748 494.628 96.6816 494.499 96.5813 494.398C96.481 494.298 96.3518 494.232 96.2119 494.208C96.072 494.185 95.9283 494.206 95.8009 494.269C95.6746 494.33 95.5725 494.432 95.5109 494.559Z" fill="white" fill-opacity="0.3"/>
<path d="M120.765 572.471C120.702 572.599 120.681 572.742 120.705 572.882C120.728 573.022 120.794 573.151 120.894 573.252C120.995 573.352 121.124 573.418 121.264 573.442C121.404 573.465 121.547 573.444 121.675 573.381C121.805 573.326 121.909 573.222 121.965 573.091C122.024 572.935 122.023 572.763 121.963 572.608C121.903 572.452 121.789 572.324 121.641 572.248C121.493 572.171 121.322 572.152 121.16 572.193C120.999 572.234 120.858 572.333 120.765 572.471Z" fill="white" fill-opacity="0.3"/>
<path d="M54.8117 681.96C54.7492 682.087 54.7281 682.231 54.7514 682.371C54.7746 682.511 54.8411 682.64 54.9414 682.74C55.0417 682.841 55.1708 682.907 55.3107 682.93C55.4507 682.954 55.5944 682.933 55.7217 682.87C55.8522 682.814 55.9561 682.71 56.0117 682.58C56.0654 682.5 56.1017 682.41 56.1181 682.316C56.1345 682.221 56.1308 682.124 56.107 682.031C56.0833 681.938 56.0401 681.851 55.9803 681.776C55.9206 681.701 55.8456 681.639 55.7603 681.595C55.675 681.551 55.5813 681.526 55.4855 681.521C55.3896 681.515 55.2937 681.53 55.2041 681.565C55.1145 681.599 55.0333 681.652 54.9656 681.72C54.898 681.789 54.8455 681.87 54.8117 681.96Z" fill="white" fill-opacity="0.3"/>
<path d="M159.468 617.766C159.405 617.893 159.384 618.037 159.408 618.177C159.431 618.317 159.497 618.446 159.598 618.546C159.698 618.646 159.827 618.713 159.967 618.736C160.107 618.759 160.251 618.738 160.378 618.676C160.504 618.614 160.606 618.512 160.668 618.386C160.73 618.258 160.752 618.115 160.728 617.975C160.705 617.835 160.639 617.706 160.538 617.605C160.438 617.505 160.309 617.439 160.169 617.415C160.029 617.392 159.885 617.413 159.758 617.476C159.632 617.537 159.53 617.639 159.468 617.766Z" fill="white" fill-opacity="0.3"/>
<path d="M217.448 537.074C217.386 537.202 217.365 537.345 217.388 537.485C217.411 537.625 217.478 537.754 217.578 537.855C217.678 537.955 217.808 538.021 217.947 538.045C218.087 538.068 218.231 538.047 218.358 537.984C218.484 537.925 218.584 537.822 218.638 537.694C218.701 537.567 218.722 537.423 218.699 537.283C218.675 537.143 218.609 537.014 218.509 536.914C218.408 536.814 218.279 536.747 218.139 536.724C217.999 536.701 217.856 536.722 217.728 536.784C217.603 536.844 217.503 536.947 217.448 537.074Z" fill="white" fill-opacity="0.3"/>
<path d="M160.808 551.236C160.745 551.364 160.724 551.508 160.747 551.647C160.771 551.787 160.837 551.916 160.937 552.017C161.038 552.117 161.167 552.184 161.307 552.207C161.447 552.23 161.59 552.209 161.718 552.146C161.847 552.088 161.95 551.985 162.008 551.856C162.07 551.729 162.091 551.585 162.068 551.446C162.045 551.306 161.978 551.176 161.878 551.076C161.778 550.976 161.649 550.909 161.509 550.886C161.369 550.863 161.225 550.884 161.098 550.946C160.969 551.005 160.866 551.108 160.808 551.236Z" fill="white" fill-opacity="0.3"/>
<path d="M1073.37 598.632C1073.31 598.76 1073.29 598.903 1073.31 599.043C1073.34 599.183 1073.4 599.312 1073.5 599.413C1073.6 599.513 1073.73 599.579 1073.87 599.603C1074.01 599.626 1074.15 599.605 1074.28 599.542C1074.41 599.487 1074.52 599.383 1074.57 599.252C1074.64 599.125 1074.66 598.981 1074.64 598.839C1074.62 598.698 1074.55 598.568 1074.45 598.467C1074.35 598.366 1074.22 598.301 1074.07 598.28C1073.93 598.26 1073.79 598.285 1073.66 598.352C1073.54 598.41 1073.43 598.509 1073.37 598.632Z" fill="white" fill-opacity="0.3"/>
<path d="M1087.72 591.453C1087.66 591.581 1087.64 591.724 1087.66 591.864C1087.68 592.004 1087.75 592.133 1087.85 592.234C1087.95 592.334 1088.08 592.4 1088.22 592.424C1088.36 592.447 1088.5 592.426 1088.63 592.363C1088.76 592.305 1088.86 592.202 1088.92 592.073C1088.98 591.946 1089.01 591.802 1088.98 591.662C1088.96 591.522 1088.89 591.393 1088.79 591.293C1088.69 591.193 1088.56 591.126 1088.42 591.103C1088.28 591.08 1088.14 591.101 1088.01 591.163C1087.89 591.225 1087.78 591.327 1087.72 591.453Z" fill="white" fill-opacity="0.3"/>
<path d="M1084.21 584.711C1084.46 584.465 1084.44 584.051 1084.18 583.785C1083.91 583.52 1083.5 583.504 1083.25 583.75C1083 583.996 1083.02 584.411 1083.29 584.676C1083.55 584.942 1083.97 584.958 1084.21 584.711Z" fill="white" fill-opacity="0.3"/>
<path d="M1152.64 599.551C1152.58 599.678 1152.56 599.822 1152.58 599.962C1152.6 600.102 1152.67 600.231 1152.77 600.331C1152.87 600.432 1153 600.498 1153.14 600.521C1153.28 600.544 1153.42 600.523 1153.55 600.461C1153.68 600.403 1153.78 600.3 1153.84 600.171C1153.9 600.044 1153.93 599.9 1153.9 599.76C1153.88 599.62 1153.81 599.491 1153.71 599.391C1153.61 599.29 1153.48 599.224 1153.34 599.201C1153.2 599.177 1153.06 599.198 1152.93 599.261C1152.81 599.323 1152.7 599.425 1152.64 599.551Z" fill="white" fill-opacity="0.3"/>
<path d="M1158.3 633.522C1158.24 633.649 1158.22 633.793 1158.24 633.933C1158.26 634.073 1158.33 634.202 1158.43 634.302C1158.53 634.403 1158.66 634.469 1158.8 634.492C1158.94 634.516 1159.08 634.495 1159.21 634.432C1159.34 634.376 1159.45 634.273 1159.5 634.142C1159.56 633.986 1159.56 633.814 1159.5 633.659C1159.44 633.503 1159.33 633.375 1159.18 633.299C1159.03 633.222 1158.86 633.203 1158.7 633.244C1158.54 633.285 1158.4 633.384 1158.3 633.522Z" fill="white" fill-opacity="0.3"/>
<path d="M1159.44 655.962C1159.38 656.089 1159.36 656.233 1159.38 656.373C1159.41 656.513 1159.47 656.642 1159.57 656.742C1159.67 656.843 1159.8 656.909 1159.94 656.932C1160.08 656.956 1160.23 656.934 1160.35 656.872C1160.48 656.816 1160.59 656.712 1160.64 656.582C1160.7 656.502 1160.73 656.412 1160.75 656.318C1160.77 656.223 1160.76 656.126 1160.74 656.033C1160.71 655.94 1160.67 655.853 1160.61 655.778C1160.55 655.703 1160.48 655.641 1160.39 655.597C1160.31 655.553 1160.21 655.528 1160.12 655.523C1160.02 655.517 1159.92 655.532 1159.83 655.567C1159.75 655.601 1159.66 655.654 1159.6 655.722C1159.53 655.79 1159.48 655.872 1159.44 655.962Z" fill="white" fill-opacity="0.3"/>
<path d="M1182.16 644.613C1182.1 644.741 1182.08 644.884 1182.1 645.024C1182.13 645.164 1182.19 645.293 1182.29 645.394C1182.39 645.494 1182.52 645.561 1182.66 645.584C1182.8 645.607 1182.95 645.586 1183.07 645.523C1183.2 645.462 1183.3 645.36 1183.36 645.233C1183.43 645.106 1183.45 644.962 1183.42 644.822C1183.4 644.683 1183.33 644.553 1183.23 644.453C1183.13 644.353 1183 644.286 1182.86 644.263C1182.72 644.24 1182.58 644.261 1182.45 644.323C1182.33 644.385 1182.22 644.487 1182.16 644.613Z" fill="white" fill-opacity="0.3"/>
<path d="M1214.61 556.203C1214.55 556.331 1214.53 556.474 1214.55 556.614C1214.58 556.754 1214.64 556.883 1214.74 556.984C1214.84 557.084 1214.97 557.15 1215.11 557.174C1215.25 557.197 1215.4 557.176 1215.52 557.113C1215.65 557.054 1215.75 556.951 1215.8 556.823C1215.86 556.696 1215.89 556.552 1215.86 556.412C1215.84 556.272 1215.77 556.143 1215.67 556.043C1215.57 555.943 1215.44 555.876 1215.3 555.853C1215.16 555.83 1215.02 555.851 1214.89 555.913C1214.77 555.973 1214.67 556.076 1214.61 556.203Z" fill="white" fill-opacity="0.3"/>
<path d="M1218.52 540.082C1218.46 540.21 1218.44 540.353 1218.46 540.493C1218.49 540.633 1218.55 540.762 1218.65 540.863C1218.75 540.963 1218.88 541.029 1219.02 541.052C1219.16 541.076 1219.31 541.055 1219.43 540.992C1219.56 540.934 1219.66 540.831 1219.72 540.702C1219.79 540.575 1219.81 540.431 1219.78 540.291C1219.76 540.151 1219.69 540.022 1219.59 539.922C1219.49 539.822 1219.36 539.755 1219.22 539.732C1219.08 539.709 1218.94 539.73 1218.81 539.792C1218.68 539.85 1218.58 539.953 1218.52 540.082Z" fill="white" fill-opacity="0.3"/>
<path d="M704.768 125.235C704.831 125.107 704.852 124.964 704.829 124.824C704.805 124.684 704.739 124.555 704.639 124.454C704.538 124.354 704.409 124.288 704.269 124.265C704.129 124.241 703.986 124.262 703.858 124.325C703.728 124.38 703.624 124.484 703.568 124.615C703.502 124.742 703.479 124.886 703.501 125.028C703.523 125.169 703.59 125.3 703.692 125.4C703.793 125.501 703.925 125.566 704.066 125.587C704.208 125.607 704.352 125.582 704.478 125.515C704.604 125.457 704.706 125.358 704.768 125.235Z" fill="white" fill-opacity="0.3"/>
<path d="M690.419 132.416C690.481 132.289 690.502 132.145 690.479 132.005C690.456 131.865 690.389 131.736 690.289 131.636C690.189 131.535 690.06 131.469 689.92 131.446C689.78 131.422 689.636 131.443 689.509 131.506C689.38 131.564 689.277 131.667 689.219 131.796C689.156 131.923 689.135 132.067 689.158 132.207C689.182 132.347 689.248 132.476 689.348 132.576C689.449 132.677 689.578 132.743 689.718 132.766C689.858 132.789 690.001 132.768 690.129 132.706C690.255 132.644 690.357 132.542 690.419 132.416Z" fill="white" fill-opacity="0.3"/>
<path d="M693.929 139.156C693.683 139.402 693.699 139.816 693.964 140.082C694.23 140.348 694.644 140.363 694.89 140.117C695.136 139.871 695.121 139.457 694.855 139.191C694.59 138.925 694.175 138.91 693.929 139.156Z" fill="white" fill-opacity="0.3"/>
<path d="M625.499 124.316C625.561 124.189 625.582 124.045 625.559 123.905C625.536 123.765 625.469 123.636 625.369 123.536C625.269 123.436 625.14 123.369 625 123.346C624.86 123.323 624.716 123.344 624.589 123.406C624.46 123.464 624.357 123.568 624.299 123.696C624.236 123.824 624.215 123.967 624.239 124.107C624.262 124.247 624.328 124.376 624.428 124.477C624.529 124.577 624.658 124.643 624.798 124.667C624.938 124.69 625.082 124.669 625.209 124.606C625.335 124.545 625.437 124.443 625.499 124.316Z" fill="white" fill-opacity="0.3"/>
<path d="M619.839 90.345C619.901 90.2177 619.922 90.074 619.899 89.9341C619.876 89.7942 619.809 89.665 619.709 89.5647C619.609 89.4644 619.48 89.398 619.34 89.3747C619.2 89.3515 619.056 89.3726 618.929 89.435C618.798 89.4907 618.694 89.5946 618.639 89.725C618.58 89.881 618.581 90.053 618.64 90.2085C618.7 90.364 618.815 90.4922 618.963 90.5686C619.111 90.6451 619.282 90.6646 619.443 90.6234C619.605 90.5822 619.745 90.4831 619.839 90.345Z" fill="white" fill-opacity="0.3"/>
<path d="M618.698 67.9052C618.761 67.7778 618.782 67.6342 618.758 67.4942C618.735 67.3543 618.669 67.2252 618.568 67.1249C618.468 67.0246 618.339 66.9581 618.199 66.9349C618.059 66.9116 617.915 66.9327 617.788 66.9952C617.658 67.0509 617.554 67.1548 617.498 67.2852C617.444 67.3648 617.408 67.4548 617.392 67.5494C617.375 67.6439 617.379 67.741 617.403 67.834C617.427 67.927 617.47 68.0139 617.529 68.089C617.589 68.1642 617.664 68.2258 617.749 68.2698C617.835 68.3139 617.928 68.3394 618.024 68.3447C618.12 68.3499 618.216 68.3349 618.306 68.3004C618.395 68.266 618.477 68.213 618.544 68.1448C618.612 68.0767 618.664 67.995 618.698 67.9052Z" fill="white" fill-opacity="0.3"/>
<path d="M595.977 79.2557C596.04 79.1284 596.061 78.9847 596.038 78.8447C596.014 78.7048 595.948 78.5757 595.848 78.4754C595.747 78.3751 595.618 78.3086 595.478 78.2854C595.338 78.2621 595.195 78.2832 595.067 78.3457C594.941 78.4073 594.839 78.5094 594.777 78.6357C594.715 78.7631 594.694 78.9068 594.717 79.0467C594.74 79.1866 594.807 79.3158 594.907 79.4161C595.007 79.5164 595.136 79.5828 595.276 79.606C595.416 79.6293 595.56 79.6082 595.687 79.5457C595.814 79.4841 595.916 79.382 595.977 79.2557Z" fill="white" fill-opacity="0.3"/>
<path d="M563.528 167.666C563.591 167.539 563.612 167.395 563.588 167.255C563.565 167.115 563.499 166.986 563.398 166.886C563.298 166.785 563.169 166.719 563.029 166.696C562.889 166.672 562.746 166.693 562.618 166.756C562.493 166.815 562.393 166.918 562.338 167.046C562.276 167.173 562.255 167.317 562.278 167.457C562.301 167.597 562.367 167.726 562.468 167.826C562.568 167.927 562.697 167.993 562.837 168.016C562.977 168.039 563.121 168.018 563.248 167.956C563.374 167.897 563.473 167.793 563.528 167.666Z" fill="white" fill-opacity="0.3"/>
<path d="M559.618 183.785C559.68 183.658 559.702 183.514 559.678 183.374C559.655 183.234 559.589 183.105 559.488 183.005C559.388 182.904 559.259 182.838 559.119 182.815C558.979 182.791 558.835 182.813 558.708 182.875C558.579 182.933 558.476 183.036 558.418 183.165C558.356 183.292 558.334 183.436 558.358 183.576C558.381 183.716 558.447 183.845 558.548 183.945C558.648 184.046 558.777 184.112 558.917 184.135C559.057 184.159 559.201 184.138 559.328 184.075C559.457 184.017 559.56 183.914 559.618 183.785Z" fill="white" fill-opacity="0.3"/>
<path d="M807.956 461.481C808.018 461.354 808.039 461.21 808.016 461.07C807.993 460.93 807.927 460.801 807.826 460.701C807.726 460.6 807.597 460.534 807.457 460.511C807.317 460.487 807.173 460.508 807.046 460.571C806.915 460.627 806.812 460.73 806.756 460.861C806.69 460.988 806.666 461.133 806.689 461.274C806.711 461.415 806.778 461.546 806.879 461.646C806.981 461.747 807.112 461.812 807.254 461.833C807.395 461.853 807.54 461.828 807.666 461.761C807.791 461.703 807.894 461.604 807.956 461.481Z" fill="white" fill-opacity="0.3"/>
<path d="M793.606 468.662C793.669 468.535 793.69 468.391 793.667 468.251C793.643 468.111 793.577 467.982 793.477 467.882C793.376 467.781 793.247 467.715 793.107 467.692C792.967 467.668 792.824 467.689 792.696 467.752C792.567 467.81 792.464 467.913 792.406 468.042C792.344 468.169 792.323 468.313 792.346 468.453C792.369 468.593 792.436 468.722 792.536 468.822C792.636 468.923 792.765 468.989 792.905 469.012C793.045 469.036 793.189 469.014 793.316 468.952C793.443 468.89 793.545 468.788 793.606 468.662Z" fill="white" fill-opacity="0.3"/>
<path d="M797.116 475.402C796.87 475.648 796.886 476.063 797.152 476.328C797.417 476.594 797.832 476.609 798.078 476.363C798.324 476.117 798.308 475.703 798.043 475.437C797.777 475.172 797.362 475.156 797.116 475.402Z" fill="white" fill-opacity="0.3"/>
<path d="M666.716 503.912C666.778 503.785 666.799 503.641 666.776 503.501C666.753 503.361 666.686 503.232 666.586 503.132C666.486 503.031 666.357 502.965 666.217 502.942C666.077 502.918 665.933 502.939 665.806 503.002C665.68 503.061 665.581 503.164 665.526 503.292C665.463 503.419 665.442 503.563 665.465 503.703C665.489 503.843 665.555 503.972 665.655 504.072C665.756 504.173 665.885 504.239 666.025 504.262C666.165 504.286 666.308 504.264 666.436 504.202C666.561 504.143 666.661 504.04 666.716 503.912Z" fill="white" fill-opacity="0.3"/>
<path d="M662.805 520.031C662.868 519.904 662.889 519.76 662.866 519.62C662.843 519.48 662.776 519.351 662.676 519.251C662.576 519.15 662.446 519.084 662.306 519.061C662.167 519.038 662.023 519.059 661.895 519.121C661.767 519.179 661.664 519.282 661.605 519.411C661.543 519.538 661.522 519.682 661.545 519.822C661.568 519.962 661.635 520.091 661.735 520.191C661.835 520.292 661.965 520.358 662.105 520.381C662.244 520.405 662.388 520.384 662.515 520.321C662.644 520.263 662.747 520.16 662.805 520.031Z" fill="white" fill-opacity="0.3"/>
<path d="M1107.9 329.997C1107.96 329.869 1107.98 329.726 1107.96 329.586C1107.94 329.446 1107.87 329.316 1107.77 329.216C1107.67 329.116 1107.54 329.049 1107.4 329.026C1107.26 329.003 1107.12 329.024 1106.99 329.087C1106.86 329.142 1106.76 329.246 1106.7 329.377C1106.64 329.503 1106.61 329.648 1106.63 329.789C1106.66 329.931 1106.72 330.061 1106.82 330.162C1106.93 330.262 1107.06 330.328 1107.2 330.348C1107.34 330.369 1107.48 330.344 1107.61 330.277C1107.74 330.219 1107.84 330.12 1107.9 329.997Z" fill="white" fill-opacity="0.5"/>
<path d="M999.11 284.017C999.173 283.89 999.194 283.746 999.17 283.606C999.147 283.467 999.081 283.337 998.981 283.237C998.88 283.137 998.751 283.07 998.611 283.047C998.471 283.024 998.328 283.045 998.2 283.107C998.074 283.169 997.972 283.271 997.91 283.397C997.848 283.525 997.827 283.668 997.85 283.808C997.873 283.948 997.94 284.077 998.04 284.178C998.14 284.278 998.269 284.345 998.409 284.368C998.549 284.391 998.693 284.37 998.82 284.307C998.946 284.246 999.049 284.144 999.11 284.017Z" fill="white" fill-opacity="0.5"/>
<path d="M962.751 388.547C962.813 388.419 962.834 388.276 962.811 388.136C962.788 387.996 962.721 387.867 962.621 387.766C962.521 387.666 962.392 387.6 962.252 387.576C962.112 387.553 961.968 387.574 961.841 387.637C961.712 387.695 961.609 387.798 961.551 387.927C961.488 388.054 961.467 388.198 961.49 388.338C961.514 388.478 961.58 388.607 961.68 388.707C961.781 388.807 961.91 388.874 962.05 388.897C962.19 388.92 962.333 388.899 962.461 388.837C962.59 388.779 962.693 388.675 962.751 388.547Z" fill="white" fill-opacity="0.5"/>
<path style="mix-blend-mode:color-dodge" d="M1019.3 806.98C1019.3 805.577 1039.38 804.439 1064.14 804.439C1088.89 804.439 1108.99 805.577 1108.99 806.98C1108.99 808.382 1088.91 809.52 1064.14 809.52C1039.37 809.52 1019.3 808.335 1019.3 806.98Z" fill="url(#paint24_radial_8523_2313)"/>
<path style="mix-blend-mode:color-dodge" d="M1064.09 851.75C1062.69 851.75 1061.55 831.679 1061.55 806.934C1061.55 782.188 1062.69 762.102 1064.09 762.102C1065.49 762.102 1066.63 782.172 1066.63 806.934C1066.63 831.695 1065.49 851.75 1064.09 851.75Z" fill="url(#paint25_radial_8523_2313)"/>
<path style="mix-blend-mode:color-dodge" d="M1274.96 965.927C1274.96 964.945 1288.99 964.15 1306.29 964.15C1323.6 964.15 1337.63 964.945 1337.63 965.927C1337.63 966.908 1323.6 967.703 1306.29 967.703C1288.99 967.703 1274.96 966.862 1274.96 965.927Z" fill="url(#paint26_radial_8523_2313)"/>
<path style="mix-blend-mode:color-dodge" d="M1308.02 965.88C1308.02 948.581 1307.23 934.558 1306.25 934.558C1305.27 934.558 1304.47 948.581 1304.47 965.88C1304.47 983.178 1305.27 997.201 1306.25 997.201C1307.23 997.201 1308.02 983.178 1308.02 965.88Z" fill="url(#paint27_radial_8523_2313)"/>
<path style="mix-blend-mode:color-dodge" d="M1379.27 365.425C1379.27 364.831 1370.77 364.35 1360.29 364.35C1349.82 364.35 1341.32 364.831 1341.32 365.425C1341.32 366.019 1349.82 366.5 1360.29 366.5C1370.77 366.5 1379.27 366.019 1379.27 365.425Z" fill="url(#paint28_radial_8523_2313)"/>
<path style="mix-blend-mode:color-dodge" d="M1360.28 384.373C1359.69 384.373 1359.2 375.88 1359.2 365.409C1359.2 354.937 1359.69 346.46 1360.28 346.46C1360.87 346.46 1361.35 354.937 1361.35 365.409C1361.35 375.88 1360.87 384.373 1360.28 384.373Z" fill="url(#paint29_radial_8523_2313)"/>
<path style="mix-blend-mode:color-dodge" d="M1196.88 218.165C1196.88 217.571 1188.38 217.09 1177.91 217.09C1167.43 217.09 1158.93 217.571 1158.93 218.165C1158.93 218.759 1167.43 219.24 1177.91 219.24C1188.38 219.24 1196.88 218.759 1196.88 218.165Z" fill="url(#paint30_radial_8523_2313)"/>
<path style="mix-blend-mode:color-dodge" d="M613.695 589.8C613.695 589.206 605.201 588.725 594.723 588.725C584.246 588.725 575.752 589.206 575.752 589.8C575.752 590.394 584.246 590.875 594.723 590.875C605.201 590.875 613.695 590.394 613.695 589.8Z" fill="url(#paint31_radial_8523_2313)"/>
<path style="mix-blend-mode:color-dodge" d="M1177.89 237.113C1177.3 237.113 1176.81 228.621 1176.81 218.149C1176.81 207.677 1177.3 199.2 1177.89 199.2C1178.48 199.2 1178.97 207.677 1178.97 218.149C1178.97 228.621 1178.48 237.113 1177.89 237.113Z" fill="url(#paint32_radial_8523_2313)"/>
<path style="mix-blend-mode:color-dodge" d="M594.708 608.748C594.116 608.748 593.633 600.255 593.633 589.784C593.633 579.312 594.116 570.835 594.708 570.835C595.301 570.835 595.784 579.312 595.784 589.784C595.784 600.255 595.301 608.748 594.708 608.748Z" fill="url(#paint33_radial_8523_2313)"/>
<path style="mix-blend-mode:color-dodge" d="M980.193 511.124C980.193 510.53 971.699 510.049 961.222 510.049C950.744 510.049 942.25 510.53 942.25 511.124C942.25 511.718 950.744 512.199 961.222 512.199C971.699 512.199 980.193 511.718 980.193 511.124Z" fill="url(#paint34_radial_8523_2313)"/>
<path style="mix-blend-mode:color-dodge" d="M961.206 530.072C960.614 530.072 960.131 521.58 960.131 511.108C960.131 500.636 960.614 492.159 961.206 492.159C961.799 492.159 962.282 500.636 962.282 511.108C962.282 521.58 961.799 530.072 961.206 530.072Z" fill="url(#paint35_radial_8523_2313)"/>
</g>
<defs>
<radialGradient id="paint0_radial_8523_2313" cx="0" cy="0" r="1" gradientUnits="userSpaceOnUse" gradientTransform="translate(174.875 77.8607) rotate(-90) scale(26.8095 1.465)">
<stop stop-color="white"/>
<stop offset="1"/>
</radialGradient>
<radialGradient id="paint1_radial_8523_2313" cx="0" cy="0" r="1" gradientUnits="userSpaceOnUse" gradientTransform="translate(174.57 78.1652) rotate(180) scale(26.8095 1.465)">
<stop stop-color="white"/>
<stop offset="1"/>
</radialGradient>
<radialGradient id="paint2_radial_8523_2313" cx="0" cy="0" r="1" gradientUnits="userSpaceOnUse" gradientTransform="translate(72.7702 233.228) rotate(-90) scale(18.7392 1.024)">
<stop stop-color="white"/>
<stop offset="1"/>
</radialGradient>
<radialGradient id="paint3_radial_8523_2313" cx="0" cy="0" r="1" gradientUnits="userSpaceOnUse" gradientTransform="translate(72.7859 233.649) rotate(180) scale(18.7392 1.024)">
<stop stop-color="white"/>
<stop offset="1"/>
</radialGradient>
<radialGradient id="paint4_radial_8523_2313" cx="0" cy="0" r="1" gradientUnits="userSpaceOnUse" gradientTransform="translate(458.429 268.026) rotate(-90) scale(11.346 0.620002)">
<stop stop-color="white"/>
<stop offset="1"/>
</radialGradient>
<radialGradient id="paint5_radial_8523_2313" cx="0" cy="0" r="1" gradientUnits="userSpaceOnUse" gradientTransform="translate(458 268.345) rotate(180) scale(11.346 0.620002)">
<stop stop-color="white"/>
<stop offset="1"/>
</radialGradient>
<radialGradient id="paint6_radial_8523_2313" cx="0" cy="0" r="1" gradientUnits="userSpaceOnUse" gradientTransform="translate(553.02 151.108) rotate(-90) scale(11.346 0.620002)">
<stop stop-color="white"/>
<stop offset="1"/>
</radialGradient>
<radialGradient id="paint7_radial_8523_2313" cx="0" cy="0" r="1" gradientUnits="userSpaceOnUse" gradientTransform="translate(552.428 151.248) rotate(180) scale(11.346 0.620002)">
<stop stop-color="white"/>
<stop offset="1"/>
</radialGradient>
<radialGradient id="paint8_radial_8523_2313" cx="0" cy="0" r="1" gradientUnits="userSpaceOnUse" gradientTransform="translate(364.852 12.1923) rotate(-90) scale(11.346 0.620002)">
<stop stop-color="white"/>
<stop offset="1"/>
</radialGradient>
<radialGradient id="paint9_radial_8523_2313" cx="0" cy="0" r="1" gradientUnits="userSpaceOnUse" gradientTransform="translate(364.561 12.1267) rotate(180) scale(11.346 0.619999)">
<stop stop-color="white"/>
<stop offset="1"/>
</radialGradient>
<radialGradient id="paint10_radial_8523_2313" cx="0" cy="0" r="1" gradientUnits="userSpaceOnUse" gradientTransform="translate(313.618 763.445) scale(26.8095 1.465)">
<stop stop-color="white"/>
<stop offset="1"/>
</radialGradient>
<radialGradient id="paint11_radial_8523_2313" cx="0" cy="0" r="1" gradientUnits="userSpaceOnUse" gradientTransform="translate(313.315 763.75) rotate(90) scale(26.8095 1.465)">
<stop stop-color="white"/>
<stop offset="1"/>
</radialGradient>
<radialGradient id="paint12_radial_8523_2313" cx="0" cy="0" r="1" gradientUnits="userSpaceOnUse" gradientTransform="translate(158.251 865.55) scale(18.7392 1.024)">
<stop stop-color="white"/>
<stop offset="1"/>
</radialGradient>
<radialGradient id="paint13_radial_8523_2313" cx="0" cy="0" r="1" gradientUnits="userSpaceOnUse" gradientTransform="translate(157.829 865.534) rotate(90) scale(18.7392 1.024)">
<stop stop-color="white"/>
<stop offset="1"/>
</radialGradient>
<radialGradient id="paint14_radial_8523_2313" cx="0" cy="0" r="1" gradientUnits="userSpaceOnUse" gradientTransform="translate(123.452 479.892) scale(11.346 0.620002)">
<stop stop-color="white"/>
<stop offset="1"/>
</radialGradient>
<radialGradient id="paint15_radial_8523_2313" cx="0" cy="0" r="1" gradientUnits="userSpaceOnUse" gradientTransform="translate(123.134 480.32) rotate(90) scale(11.346 0.620002)">
<stop stop-color="white"/>
<stop offset="1"/>
</radialGradient>
<radialGradient id="paint16_radial_8523_2313" cx="0" cy="0" r="1" gradientUnits="userSpaceOnUse" gradientTransform="translate(240.371 385.301) scale(11.346 0.620002)">
<stop stop-color="white"/>
<stop offset="1"/>
</radialGradient>
<radialGradient id="paint17_radial_8523_2313" cx="0" cy="0" r="1" gradientUnits="userSpaceOnUse" gradientTransform="translate(240.229 385.892) rotate(90) scale(11.346 0.620002)">
<stop stop-color="white"/>
<stop offset="1"/>
</radialGradient>
<radialGradient id="paint18_radial_8523_2313" cx="0" cy="0" r="1" gradientUnits="userSpaceOnUse" gradientTransform="translate(379.286 573.469) scale(11.346 0.620002)">
<stop stop-color="white"/>
<stop offset="1"/>
</radialGradient>
<radialGradient id="paint19_radial_8523_2313" cx="0" cy="0" r="1" gradientUnits="userSpaceOnUse" gradientTransform="translate(379.352 573.76) rotate(90) scale(11.346 0.619999)">
<stop stop-color="white"/>
<stop offset="1"/>
</radialGradient>
<radialGradient id="paint20_radial_8523_2313" cx="0" cy="0" r="1" gradientUnits="userSpaceOnUse" gradientTransform="translate(522.52 1041.38) rotate(90) scale(18.7392 1.024)">
<stop stop-color="white"/>
<stop offset="1"/>
</radialGradient>
<radialGradient id="paint21_radial_8523_2313" cx="0" cy="0" r="1" gradientUnits="userSpaceOnUse" gradientTransform="translate(522.536 1040.96) rotate(180) scale(18.7392 1.024)">
<stop stop-color="white"/>
<stop offset="1"/>
</radialGradient>
<radialGradient id="paint22_radial_8523_2313" cx="0" cy="0" r="1" gradientUnits="userSpaceOnUse" gradientTransform="translate(908.179 1006.58) rotate(90) scale(11.346 0.620002)">
<stop stop-color="white"/>
<stop offset="1"/>
</radialGradient>
<radialGradient id="paint23_radial_8523_2313" cx="0" cy="0" r="1" gradientUnits="userSpaceOnUse" gradientTransform="translate(907.75 1006.26) rotate(180) scale(11.346 0.620002)">
<stop stop-color="white"/>
<stop offset="1"/>
</radialGradient>
<radialGradient id="paint24_radial_8523_2313" cx="0" cy="0" r="1" gradientUnits="userSpaceOnUse" gradientTransform="translate(1063.63 806.923) rotate(180) scale(41.7927 2.2829)">
<stop stop-color="white"/>
<stop offset="1"/>
</radialGradient>
<radialGradient id="paint25_radial_8523_2313" cx="0" cy="0" r="1" gradientUnits="userSpaceOnUse" gradientTransform="translate(1064.1 807.4) rotate(90) scale(41.777 2.28375)">
<stop stop-color="white"/>
<stop offset="1"/>
</radialGradient>
<radialGradient id="paint26_radial_8523_2313" cx="0" cy="0" r="1" gradientUnits="userSpaceOnUse" gradientTransform="translate(1305.82 966.034) rotate(180) scale(29.2121 1.59569)">
<stop stop-color="white"/>
<stop offset="1"/>
</radialGradient>
<radialGradient id="paint27_radial_8523_2313" cx="0" cy="0" r="1" gradientUnits="userSpaceOnUse" gradientTransform="translate(1306.48 966.01) rotate(90) scale(29.2011 1.59629)">
<stop stop-color="white"/>
<stop offset="1"/>
</radialGradient>
<radialGradient id="paint28_radial_8523_2313" cx="0" cy="0" r="1" gradientUnits="userSpaceOnUse" gradientTransform="translate(1360.07 365.068) rotate(180) scale(17.687 0.966145)">
<stop stop-color="white"/>
<stop offset="1"/>
</radialGradient>
<radialGradient id="paint29_radial_8523_2313" cx="0" cy="0" r="1" gradientUnits="userSpaceOnUse" gradientTransform="translate(1360.57 365.734) rotate(90) scale(17.6803 0.966515)">
<stop stop-color="white"/>
<stop offset="1"/>
</radialGradient>
<radialGradient id="paint30_radial_8523_2313" cx="0" cy="0" r="1" gradientUnits="userSpaceOnUse" gradientTransform="translate(1177.81 217.666) rotate(180) scale(17.687 0.966145)">
<stop stop-color="white"/>
<stop offset="1"/>
</radialGradient>
<radialGradient id="paint31_radial_8523_2313" cx="0" cy="0" r="1" gradientUnits="userSpaceOnUse" gradientTransform="translate(594.626 589.301) rotate(180) scale(17.687 0.966145)">
<stop stop-color="white"/>
<stop offset="1"/>
</radialGradient>
<radialGradient id="paint32_radial_8523_2313" cx="0" cy="0" r="1" gradientUnits="userSpaceOnUse" gradientTransform="translate(1178.03 218.586) rotate(90) scale(17.6804 0.966515)">
<stop stop-color="white"/>
<stop offset="1"/>
</radialGradient>
<radialGradient id="paint33_radial_8523_2313" cx="0" cy="0" r="1" gradientUnits="userSpaceOnUse" gradientTransform="translate(594.847 590.221) rotate(90) scale(17.6804 0.966515)">
<stop stop-color="white"/>
<stop offset="1"/>
</radialGradient>
<radialGradient id="paint34_radial_8523_2313" cx="0" cy="0" r="1" gradientUnits="userSpaceOnUse" gradientTransform="translate(961.256 510.887) rotate(180) scale(17.687 0.966131)">
<stop stop-color="white"/>
<stop offset="1"/>
</radialGradient>
<radialGradient id="paint35_radial_8523_2313" cx="0" cy="0" r="1" gradientUnits="userSpaceOnUse" gradientTransform="translate(961.157 511.339) rotate(90) scale(17.6804 0.966501)">
<stop stop-color="white"/>
<stop offset="1"/>
</radialGradient>
</defs>
</svg>
