<svg width="159" height="36" viewBox="0 0 159 36" fill="none" xmlns="http://www.w3.org/2000/svg"> <g clipPath="url(#clip0_208_14)"> <path d="M5.51888 15.5412C5.51877 17.7402 6.21654 19.8798 7.50732 21.6384C8.7981 23.3971 10.6121 24.6797 12.6768 25.2936V31.0788C9.11764 30.4182 5.89818 28.5008 3.57995 25.6609C1.26173 22.821 -0.00813293 19.2389 -0.00813293 15.5394C-0.00813293 11.8399 1.26173 8.25781 3.57995 5.41792C5.89818 2.57802 9.11764 0.660566 12.6768 0V5.7906C10.6123 6.40411 8.79829 7.68642 7.5075 9.44476C6.2167 11.2031 5.51886 13.3424 5.51888 15.5412Z" fill="#969BA6"></path> <path d="M19.8211 15.5413C19.8215 16.4339 19.563 17.3065 19.0784 18.0489C18.5937 18.7912 17.9047 19.3699 17.0985 19.7117C16.2923 20.0535 15.4051 20.1431 14.5491 19.9692C13.6931 19.7953 12.9067 19.3657 12.2894 18.7346C11.6722 18.1036 11.2518 17.2996 11.0814 16.4241C10.911 15.5487 10.9983 14.6413 11.3322 13.8166C11.6661 12.992 12.2316 12.2871 12.9573 11.7912C13.6829 11.2952 14.536 11.0305 15.4088 11.0305C16.5786 11.031 17.7003 11.5063 18.5276 12.3521C19.355 13.1979 19.8202 14.345 19.8211 15.5413" fill="#969BA6"></path> <path d="M30.8774 15.5412V31.0788H25.3633V15.5412C25.3631 13.3393 24.6632 11.1971 23.3689 9.43743C22.0747 7.67777 20.2563 6.39598 18.1878 5.7852V0C21.748 0.659956 24.9686 2.57734 27.2877 5.41763C29.6068 8.25792 30.8773 11.8408 30.8774 15.5412" fill="#969BA6"></path> <path d="M42.504 9.00008C41.0091 9.00008 39.8716 8.60948 39.0913 7.82828C38.3111 7.04708 37.9198 5.96048 37.9174 4.56848C37.9174 3.11408 38.2993 1.98908 39.0632 1.19348C39.827 0.397884 40.9693 8.42435e-05 42.4899 8.42435e-05C42.9584 -0.00437595 43.4263 0.0366074 43.8873 0.122484C44.2901 0.200869 44.6866 0.309769 45.0736 0.448284V2.35808C44.3046 2.03327 43.4803 1.86748 42.6483 1.87028C41.7648 1.87028 41.1194 2.08748 40.7123 2.52188C40.3051 2.95628 40.0998 3.63848 40.0963 4.56848C40.0963 5.45408 40.3128 6.10448 40.7457 6.51968C41.1787 6.93488 41.824 7.14308 42.6817 7.14428C43.095 7.14404 43.5074 7.10488 43.9137 7.02728C44.3183 6.95103 44.7137 6.83033 45.0929 6.66728V8.59328C44.7079 8.72344 44.3137 8.82333 43.9137 8.89208C43.4482 8.9682 42.9772 9.00433 42.5057 9.00008" fill="#969BA6"></path> <path d="M50.0315 9C48.6446 9 47.5886 8.64 46.8635 7.92C46.1384 7.2 45.7764 6.0738 45.7776 4.5414C45.7776 2.9226 46.1396 1.761 46.8635 1.0566C47.5874 0.3522 48.6434 0 50.0315 0C51.4184 0 52.4744 0.3522 53.1995 1.0566C53.9246 1.761 54.2871 2.9226 54.2871 4.5414C54.2871 6.0678 53.9246 7.1928 53.1995 7.9164C52.4744 8.64 51.4184 9 50.0315 8.9964V9ZM50.0315 7.1388C50.746 7.1388 51.2693 6.9288 51.6014 6.5088C51.9335 6.0888 52.0983 5.433 52.096 4.5414C52.096 3.564 51.9305 2.8764 51.5996 2.4732C51.2688 2.07 50.7443 1.8702 50.0297 1.8702C49.3152 1.8702 48.7766 2.0718 48.4457 2.4732C48.1149 2.8746 47.9477 3.564 47.9477 4.5414C47.9477 5.4366 48.1137 6.0966 48.4457 6.5214C48.7778 6.9462 49.3058 7.1562 50.0297 7.1514" fill="#969BA6"></path> <path d="M55.3713 8.86452V0.134521H59.6393C60.646 0.134521 61.3881 0.405721 61.8657 0.948121C62.3432 1.49052 62.582 2.21832 62.582 3.13152C62.5951 3.67368 62.4458 4.20697 62.1542 4.65994C61.8626 5.1129 61.4426 5.46391 60.9505 5.66592C61.0685 5.75751 61.1697 5.86962 61.2497 5.99712C61.3441 6.16014 61.4259 6.33046 61.4943 6.50652L62.5028 8.86452H60.2747L59.3207 6.64152C59.2602 6.47649 59.1545 6.33276 59.0163 6.22752C58.8565 6.13256 58.6727 6.08809 58.4883 6.09972H57.5079V8.86452H55.3713ZM57.5062 4.41852H59.0902C59.4422 4.44073 59.7895 4.32703 60.0635 4.09992C60.1872 3.97422 60.2828 3.82252 60.3436 3.65531C60.4044 3.4881 60.4289 3.30938 60.4155 3.13152C60.4155 2.25552 60.0048 1.81692 59.1835 1.81572H57.515L57.5062 4.41852Z" fill="#969BA6"></path> <path d="M63.6679 8.86452V0.134521H69.9634V1.81572H65.8028V3.64632H69.4724V5.35452H65.8028V7.18332H69.9634V8.86452H63.6679Z" fill="#969BA6"></path> <path d="M42.7873 31.0788C41.9575 31.0857 41.1348 30.9229 40.3673 30.6C39.6441 30.3024 39.0236 29.7919 38.5845 29.133C38.1398 28.4706 37.9174 27.6456 37.9174 26.658C37.9174 25.218 38.3956 24.0864 39.3518 23.2632C40.3081 22.44 41.7431 22.0296 43.6568 22.032H47.483V21.7062C47.483 20.9958 47.2483 20.487 46.779 20.1798C46.3161 19.8738 45.4449 19.7208 44.1707 19.7208C42.6059 19.7206 41.0507 19.9702 39.5613 20.4606V17.3809C40.3631 17.0705 41.1933 16.8425 42.0393 16.7005C43.0586 16.5181 44.0916 16.4283 45.1264 16.4323C47.2524 16.4323 48.9192 16.8775 50.1265 17.7679C51.3339 18.6582 51.9381 20.0712 51.9393 22.0068V30.78H47.8596L47.6291 29.5938C47.0703 30.1006 46.4093 30.4755 45.6931 30.6918C44.747 30.971 43.7647 31.1009 42.7803 31.077L42.7873 31.0788ZM44.2587 28.1412C44.9163 28.1575 45.5693 28.026 46.1718 27.756C46.671 27.5313 47.1161 27.1978 47.476 26.7786V24.7986H44.176C42.8032 24.7986 42.1168 25.362 42.1168 26.4888C42.107 26.7193 42.1495 26.949 42.2411 27.1598C42.3328 27.3706 42.4709 27.5568 42.6448 27.7038C42.9968 28.0008 43.5336 28.1484 44.2675 28.1484" fill="#969BA6"></path> <path d="M62.0065 31.0788C59.5507 31.0788 57.6329 30.4662 56.2531 29.241C54.8732 28.0158 54.1822 26.1888 54.1798 23.76C54.1798 21.2892 54.8996 19.4508 56.3393 18.2448C57.779 17.0388 59.6968 16.4388 62.0928 16.4448C62.9724 16.4343 63.8511 16.5091 64.7169 16.668C65.4634 16.8144 66.189 17.0563 66.8764 17.388V20.7666C65.7935 20.2338 64.5274 19.9668 63.0784 19.9656C61.7267 19.9656 60.6977 20.2428 59.9913 20.7972C59.285 21.3516 58.933 22.3398 58.9353 23.7618C58.9353 25.0818 59.2639 26.0454 59.9209 26.6526C60.578 27.2598 61.6217 27.5598 63.052 27.5526C64.3878 27.5697 65.7087 27.2651 66.9081 26.6634V30.1914C66.19 30.5146 65.4349 30.7438 64.6606 30.8736C63.7836 31.017 62.8965 31.0862 62.0083 31.0806" fill="#969BA6"></path> <path d="M73.568 31.0789C72.7394 31.0849 71.9179 30.9221 71.1515 30.6001C70.429 30.302 69.8092 29.7915 69.3704 29.1331C68.9257 28.4707 68.7033 27.6457 68.7033 26.6581C68.7033 25.2181 69.1815 24.0865 70.1377 23.2633C71.094 22.4401 72.5307 22.0309 74.4479 22.0357H78.2742V21.7099C78.2742 20.9995 78.0424 20.4907 77.579 20.1835C77.1155 19.8763 76.2455 19.7233 74.9689 19.7245C73.4047 19.7243 71.8501 19.9739 70.3613 20.4643V17.3809C71.1631 17.0702 71.9932 16.8423 72.8393 16.7005C73.8586 16.5181 74.8916 16.4283 75.9263 16.4323C78.0524 16.4323 79.7191 16.8775 80.9265 17.7679C82.1338 18.6583 82.7375 20.0713 82.7375 22.0069V30.7801H78.6455L78.4132 29.5939C77.8574 30.1001 77.1994 30.475 76.486 30.6919C75.5383 30.972 74.5542 31.1025 73.568 31.0789V31.0789ZM75.0463 28.1431C75.7039 28.1591 76.3569 28.0276 76.9595 27.7579C77.4583 27.5327 77.9033 27.1991 78.2636 26.7805V24.8005H74.9636C73.592 24.8005 72.9062 25.3639 72.9062 26.4907C72.8968 26.7211 72.9395 26.9506 73.0311 27.1614C73.1227 27.3721 73.2607 27.5584 73.4342 27.7057C73.7862 28.0027 74.323 28.1503 75.0587 28.1503" fill="#969BA6"></path> <path d="M91.3141 31.0789C89.98 31.0789 88.8395 30.8617 87.8926 30.4273C86.9428 29.993 86.1714 29.2327 85.712 28.2781C85.2086 27.2797 84.9569 25.9405 84.9569 24.2605C84.9569 22.5589 85.2473 21.1309 85.8281 19.9765C86.3555 18.8768 87.1864 17.9594 88.2182 17.3377C89.283 16.7231 90.4895 16.4123 91.7118 16.4377C92.3646 16.4287 93.0157 16.5086 93.6478 16.6753C94.2157 16.8347 94.7581 17.0772 95.2582 17.3953V10.8H99.924V30.7801H95.8936L95.6331 29.5939C95.0798 30.0841 94.44 30.4616 93.7482 30.7063C92.9626 30.9674 92.14 31.0927 91.3141 31.0771V31.0789ZM92.6464 27.6085C93.1292 27.6182 93.6089 27.5288 94.0573 27.3454C94.5056 27.1621 94.9134 26.8885 95.2565 26.5411V20.8513C94.5982 20.2381 93.7576 19.9315 92.7344 19.9315C91.7488 19.9315 90.9996 20.3119 90.4869 21.0727C89.9741 21.8335 89.7183 22.9057 89.7195 24.2893C89.7195 25.6333 89.9659 26.5225 90.4587 26.9569C90.9515 27.3913 91.6807 27.6091 92.6464 27.6103" fill="#969BA6"></path> <path d="M109.952 31.0787C107.555 31.0787 105.632 30.4709 104.183 29.2553C102.734 28.0397 102.009 26.2079 102.009 23.7599C102.009 21.5267 102.608 19.7477 103.806 18.4229C105.004 17.0981 106.802 16.4381 109.199 16.4429C111.384 16.4429 113.075 17.0165 114.271 18.1637C115.468 19.3109 116.067 20.8523 116.068 22.7879V25.3079H106.329C106.542 26.2367 107.04 26.8841 107.821 27.2501C108.602 27.6161 109.67 27.7961 111.024 27.7901C111.797 27.7881 112.569 27.7183 113.33 27.5813C113.999 27.4733 114.655 27.2923 115.287 27.0413V30.1535C114.54 30.4972 113.75 30.7317 112.939 30.8501C111.949 31.0055 110.949 31.0801 109.947 31.0733L109.952 31.0787ZM106.323 22.5341H112.005V21.9113C112.019 21.6091 111.973 21.307 111.869 21.0239C111.764 20.7409 111.604 20.4829 111.397 20.2661C110.99 19.8617 110.304 19.6595 109.338 19.6595C108.216 19.6595 107.434 19.8917 106.99 20.3561C106.547 20.8205 106.324 21.5465 106.323 22.5341" fill="#969BA6"></path> <path d="M118.448 30.7799V16.7291H122.767L122.911 17.9747C123.554 17.5084 124.256 17.1342 124.999 16.8623C125.799 16.5711 126.643 16.4255 127.492 16.4321C128.419 16.4321 129.144 16.5755 129.666 16.8623C130.175 17.1369 130.597 17.5531 130.884 18.0629C131.549 17.5744 132.275 17.1807 133.044 16.8929C133.952 16.5681 134.91 16.4121 135.872 16.4321C137.475 16.4321 138.653 16.8575 139.408 17.7083C140.162 18.5591 140.538 19.8563 140.536 21.5999V30.7799H135.926V22.1543C135.926 21.3839 135.767 20.8259 135.448 20.4803C135.129 20.1347 134.612 19.9601 133.897 19.9601C133.448 19.9615 133.004 20.0578 132.593 20.2427C132.182 20.4194 131.816 20.6875 131.519 21.0275C131.557 21.2333 131.581 21.4413 131.592 21.6503C131.602 21.8483 131.607 22.0883 131.607 22.3703V30.7799H127.258V22.0949C127.258 21.3833 127.138 20.8499 126.896 20.4947C126.654 20.1395 126.195 19.9595 125.52 19.9547C125.039 19.9539 124.568 20.0878 124.157 20.3417C123.739 20.5918 123.35 20.8901 122.997 21.2309V30.7709L118.448 30.7799Z" fill="#969BA6"></path> <path d="M146.71 36.0001C146.114 36.0065 145.518 35.9716 144.927 35.8957C144.425 35.8246 143.933 35.6904 143.463 35.4961V32.1751C143.759 32.2853 144.065 32.3649 144.376 32.4127C144.66 32.4525 144.946 32.4724 145.232 32.4721C146.024 32.4721 146.618 32.3287 147.015 32.0419C147.411 31.7551 147.812 31.2463 148.217 30.5155L142.043 16.7292H146.942L150.564 25.6537L154.13 16.7292H159L153.754 29.6263C153.287 30.8052 152.705 31.9324 152.015 32.9905C151.436 33.8902 150.672 34.6496 149.776 35.2153C148.929 35.7385 147.907 36.0001 146.71 36.0001Z" fill="#969BA6"></path> </g> <defs> <clipPath id="clip0_208_14"> <rect width="159" height="36" fill="white"></rect> </clipPath> </defs> </svg>