<svg width="64" height="56" viewBox="0 0 64 56" fill="none" xmlns="http://www.w3.org/2000/svg">
<path d="M58.375 0.632385H5.625C2.52338 0.632385 0 3.15576 0 6.25739V38.7574C0 41.859 2.52338 44.3824 5.625 44.3824H38.125V52.5515C38.125 53.6438 38.737 54.6156 39.7219 55.0878C40.1136 55.2754 40.5299 55.3676 40.9429 55.3676C41.5685 55.3676 42.1864 55.156 42.6992 54.7438L46 52.0914L49.3006 54.7438C50.1521 55.4281 51.293 55.5595 52.278 55.0878C53.263 54.6156 53.8749 53.6438 53.8749 52.5515V44.3824H58.3749C61.4765 44.3824 63.9999 41.859 63.9999 38.7574V6.25739C64 3.15576 61.4766 0.632385 58.375 0.632385ZM46 40.6324C41.5199 40.6324 37.875 36.9875 37.875 32.5074C37.875 28.0273 41.5199 24.3824 46 24.3824C50.4801 24.3824 54.125 28.0273 54.125 32.5074C54.125 36.9875 50.4801 40.6324 46 40.6324ZM52.125 22.3375C50.3355 21.2558 48.2393 20.6324 46 20.6324C39.4521 20.6324 34.125 25.9595 34.125 32.5074C34.125 32.5491 34.1261 32.5908 34.1266 32.6324H18.6758C17.9435 29.2406 15.2668 26.5639 11.875 25.8318V19.1831C15.2668 18.451 17.9434 15.7743 18.6758 12.3825H45.3244C46.0565 15.7743 48.7332 18.451 52.125 19.1831V22.3375ZM47.1745 48.2245C46.4885 47.6733 45.5116 47.6733 44.8256 48.2245L41.875 50.5954V43.643C43.1605 44.1208 44.5503 44.3824 46 44.3824C47.4497 44.3824 48.8395 44.1208 50.125 43.643V50.5954L47.1745 48.2245ZM60.25 38.7574C60.25 39.7913 59.4089 40.6324 58.375 40.6324H54.6516C56.6491 38.5066 57.875 35.6476 57.875 32.5074C57.875 30.072 57.1376 27.8058 55.875 25.9194V17.5074C55.875 16.4719 55.0355 15.6324 54 15.6324C51.1741 15.6324 48.875 13.3333 48.875 10.5074C48.875 9.47189 48.0355 8.63239 47 8.63239H17C15.9645 8.63239 15.125 9.47189 15.125 10.5074C15.125 13.3333 12.8259 15.6324 10 15.6324C8.9645 15.6324 8.125 16.4719 8.125 17.5074V27.5074C8.125 28.5429 8.9645 29.3824 10 29.3824C12.8259 29.3824 15.125 31.6815 15.125 34.5074C15.125 35.5429 15.9645 36.3824 17 36.3824H34.7749C35.3281 37.9805 36.2136 39.4248 37.3484 40.6324H5.625C4.59113 40.6324 3.75 39.7913 3.75 38.7574V6.25739C3.75 5.22351 4.59113 4.38239 5.625 4.38239H58.375C59.4089 4.38239 60.25 5.22351 60.25 6.25739V38.7574Z" fill="#7270FF"/>
</svg>
