<svg width="64" height="56" viewBox="0 0 64 56" fill="none" xmlns="http://www.w3.org/2000/svg">
<path d="M58.875 28.8516C61.7431 28.5976 64 26.1831 64 23.25V5.75C64 2.64838 61.4766 0.125 58.375 0.125H39.75C36.6484 0.125 34.125 2.64838 34.125 5.75V13.125H10.75C7.64838 13.125 5.125 15.6484 5.125 18.75V41.25C5.125 41.9072 5.23938 42.5381 5.4475 43.125H3.375C1.514 43.125 0 44.639 0 46.5C0 51.6694 4.20563 55.875 9.375 55.875H54.625C59.7944 55.875 64 51.6694 64 46.5C64 44.639 62.486 43.125 60.625 43.125H58.5525C58.7606 42.5381 58.875 41.9072 58.875 41.25V28.8516ZM37.875 5.75C37.875 4.71613 38.7161 3.875 39.75 3.875H58.375C59.4089 3.875 60.25 4.71613 60.25 5.75V23.25C60.25 24.2839 59.4089 25.125 58.375 25.125H41C40.6485 25.125 40.3042 25.2237 40.0062 25.41L36.2257 27.7729L37.796 22.5387C37.8484 22.364 37.875 22.1825 37.875 22V5.75ZM54.625 52.125H9.375C6.39937 52.125 3.95613 49.8024 3.76238 46.875H60.2376C60.0439 49.8024 57.6006 52.125 54.625 52.125ZM17.875 29C17.875 27.8283 18.8283 26.875 20 26.875C21.1717 26.875 22.125 27.8283 22.125 29C22.125 30.1717 21.1717 31.125 20 31.125C18.8283 31.125 17.875 30.1717 17.875 29ZM16.875 37C16.875 35.868 18.3353 34.875 20 34.875C20.8928 34.875 21.7529 35.1535 22.3599 35.6391C22.6457 35.8678 23.125 36.3485 23.125 37V43.125H16.875V37ZM26.875 43.125V37C26.875 35.3787 26.0832 33.8154 24.7025 32.7109C24.6715 32.686 24.6391 32.6628 24.6076 32.6385C25.4001 31.637 25.875 30.3733 25.875 29C25.875 25.7605 23.2395 23.125 20 23.125C16.7605 23.125 14.125 25.7605 14.125 29C14.125 30.3749 14.601 31.6398 15.395 32.6418C14.002 33.7176 13.125 35.2729 13.125 37V43.125H10.75C9.71613 43.125 8.875 42.2839 8.875 41.25V18.75C8.875 17.7161 9.71613 16.875 10.75 16.875H34.125V21.7249L32.6339 26.6952C32.181 28.2047 32.6979 29.798 33.9507 30.754C34.6256 31.269 35.4223 31.5293 36.2226 31.5293C36.9081 31.5293 37.5965 31.3382 38.213 30.9529L41.5378 28.875H55.125V41.25C55.125 42.2839 54.2839 43.125 53.25 43.125H26.875Z" fill="#7270FF"/>
<path d="M51 17.125H47C45.9645 17.125 45.125 17.9645 45.125 19C45.125 20.0355 45.9645 20.875 47 20.875H51C52.0355 20.875 52.875 20.0355 52.875 19C52.875 17.9645 52.0355 17.125 51 17.125Z" fill="#7270FF"/>
<path d="M44 11.875H54C55.0355 11.875 55.875 11.0355 55.875 10C55.875 8.9645 55.0355 8.125 54 8.125H44C42.9645 8.125 42.125 8.9645 42.125 10C42.125 11.0355 42.9645 11.875 44 11.875Z" fill="#7270FF"/>
</svg>
