<svg width="64" height="58" viewBox="0 0 64 58" fill="none" xmlns="http://www.w3.org/2000/svg">
<path d="M62.875 36.43V9.75C62.875 6.64838 60.3516 4.125 57.25 4.125H49.875V2C49.875 0.9645 49.0355 0.125 48 0.125C46.9645 0.125 46.125 0.9645 46.125 2V4.125H33.875V2C33.875 0.9645 33.0355 0.125 32 0.125C30.9645 0.125 30.125 0.9645 30.125 2V4.125H17.875V2C17.875 0.9645 17.0355 0.125 16 0.125C14.9645 0.125 14.125 0.9645 14.125 2V4.125H5.625C2.52338 4.125 0 6.64838 0 9.75V44.25C0 47.3516 2.52338 49.875 5.625 49.875H34.7412C37.4194 54.6446 42.5266 57.875 48.375 57.875C56.9906 57.875 64 50.8656 64 42.25C64 40.1939 63.6 38.2298 62.875 36.43ZM50.25 30.5235C55.2991 31.3279 59.2971 35.3257 60.1015 40.375H50.25V30.5235ZM5.625 46.125C4.59113 46.125 3.75 45.2839 3.75 44.25V9.75C3.75 8.71613 4.59113 7.875 5.625 7.875H14.125V10.125C14.125 11.1605 14.9645 12 16 12C17.0355 12 17.875 11.1605 17.875 10.125V7.875H30.125V10.125C30.125 11.1605 30.9645 12 32 12C33.0355 12 33.875 11.1605 33.875 10.125V7.875H46.125V10.125C46.125 11.1605 46.9645 12 48 12C49.0355 12 49.875 11.1605 49.875 10.125V7.875H57.25C58.2839 7.875 59.125 8.71613 59.125 9.75V30.9214C56.322 28.2603 52.536 26.625 48.375 26.625C39.7594 26.625 32.75 33.6344 32.75 42.25C32.75 43.5871 32.9191 44.8854 33.2366 46.125H5.625ZM48.375 54.125C41.8271 54.125 36.5 48.7979 36.5 42.25C36.5 36.3401 40.8399 31.4252 46.5 30.5235V42.25C46.5 43.2855 47.3395 44.125 48.375 44.125H60.1015C59.1998 49.785 54.2849 54.125 48.375 54.125Z" fill="#7270FF"/>
<path d="M13 20.125H10C8.9645 20.125 8.125 20.9645 8.125 22C8.125 23.0355 8.9645 23.875 10 23.875H13C14.0355 23.875 14.875 23.0355 14.875 22C14.875 20.9645 14.0355 20.125 13 20.125Z" fill="#7270FF"/>
<path d="M24 20.125H21C19.9645 20.125 19.125 20.9645 19.125 22C19.125 23.0355 19.9645 23.875 21 23.875H24C25.0355 23.875 25.875 23.0355 25.875 22C25.875 20.9645 25.0355 20.125 24 20.125Z" fill="#7270FF"/>
<path d="M24 28.125H21C19.9645 28.125 19.125 28.9645 19.125 30C19.125 31.0355 19.9645 31.875 21 31.875H24C25.0355 31.875 25.875 31.0355 25.875 30C25.875 28.9645 25.0355 28.125 24 28.125Z" fill="#7270FF"/>
<path d="M13 28.125H10C8.9645 28.125 8.125 28.9645 8.125 30C8.125 31.0355 8.9645 31.875 10 31.875H13C14.0355 31.875 14.875 31.0355 14.875 30C14.875 28.9645 14.0355 28.125 13 28.125Z" fill="#7270FF"/>
<path d="M13 36.125H10C8.9645 36.125 8.125 36.9645 8.125 38C8.125 39.0355 8.9645 39.875 10 39.875H13C14.0355 39.875 14.875 39.0355 14.875 38C14.875 36.9645 14.0355 36.125 13 36.125Z" fill="#7270FF"/>
<path d="M24 36.125H21C19.9645 36.125 19.125 36.9645 19.125 38C19.125 39.0355 19.9645 39.875 21 39.875H24C25.0355 39.875 25.875 39.0355 25.875 38C25.875 36.9645 25.0355 36.125 24 36.125Z" fill="#7270FF"/>
</svg>
