<svg width="203" height="56" viewBox="0 0 203 56" fill="none" xmlns="http://www.w3.org/2000/svg"> <g clipPath="url(#clip0_1430_21)"> <path fillRule="evenodd" clipRule="evenodd" d="M98.4517 15.7369C100.475 13.0987 103.126 10.991 106.17 9.59959C109.215 8.20815 112.56 7.57558 115.911 7.75758C119.263 7.93957 122.517 8.93056 125.388 10.6433C128.259 12.356 130.658 14.7379 132.375 17.5792L133.858 16.7676L136.329 15.3392C134.112 11.6643 130.963 8.62052 127.192 6.50653C123.42 4.39254 119.155 3.28101 114.816 3.28101C110.477 3.28101 106.212 4.39254 102.441 6.50653C98.669 8.62052 95.5201 11.6643 93.303 15.3392L92.0756 17.2383L94.0362 18.3827L101.623 22.8221C100.382 25.8969 100.296 29.3072 101.38 32.4392C102.463 35.5712 104.646 38.2193 107.535 39.9071C110.424 41.5949 113.83 42.2114 117.139 41.6459C120.448 41.0804 123.444 39.3698 125.587 36.8221L131.115 40.0684C129.091 42.709 126.439 44.8182 123.392 46.2099C120.345 47.6016 116.997 48.2331 113.644 48.0487C110.29 47.8642 107.035 46.8694 104.164 45.1521C101.293 43.4349 98.8959 41.0479 97.183 38.2018L93.2701 40.4824C95.4872 44.1572 98.6361 47.201 102.408 49.315C106.179 51.429 110.444 52.5405 114.783 52.5405C119.123 52.5405 123.387 51.429 127.159 49.315C130.93 47.201 134.079 44.1572 136.296 40.4824L137.466 38.5508L135.506 37.4064L129.278 33.7624L123.907 30.7108C123.253 32.7614 121.906 34.5298 120.091 35.7222C118.276 36.9146 116.101 37.4592 113.929 37.2654C111.756 37.0717 109.716 36.1512 108.147 34.6571C106.579 33.163 105.577 31.1851 105.307 29.0522C105.038 26.9192 105.517 24.7597 106.666 22.9323C107.815 21.105 109.563 19.7199 111.622 19.0073C113.68 18.2946 115.924 18.2973 117.98 19.0149C120.037 19.7325 121.782 21.1218 122.926 22.9519L126.872 20.7119C125.713 18.8178 124.112 17.2236 122.201 16.062C120.291 14.9004 118.126 14.205 115.888 14.0335C113.65 13.8621 111.402 14.2195 109.332 15.0762C107.262 15.9329 105.43 17.264 103.988 18.9589L98.4517 15.7369Z" fill="#969BA6"></path> </g> <path d="M151.402 34.3632C148.98 34.3632 147.134 33.7518 145.866 32.529C145.214 31.852 144.711 31.0501 144.388 30.1732C144.065 29.2963 143.929 28.3633 143.987 27.4322C143.929 26.4803 144.064 25.5266 144.384 24.6265C144.703 23.7264 145.202 22.8979 145.849 22.1893C147.085 20.9286 148.936 20.2956 151.402 20.2901C152.161 20.2825 152.92 20.3478 153.667 20.4849C154.321 20.6047 154.966 20.7729 155.595 20.9881V23.9829C154.347 23.4727 153.008 23.2133 151.657 23.22C151.091 23.1709 150.521 23.2355 149.982 23.4099C149.442 23.5843 148.945 23.8648 148.518 24.2345C147.773 25.1308 147.413 26.278 147.513 27.4322C147.465 27.985 147.534 28.5417 147.716 29.067C147.897 29.5923 148.187 30.0747 148.568 30.4838C149.449 31.1925 150.572 31.5411 151.706 31.4577C152.378 31.4594 153.048 31.3996 153.708 31.2791C154.366 31.1582 155.009 30.9705 155.628 30.7191V33.7301C155 33.9299 154.359 34.0845 153.708 34.1928C152.946 34.3139 152.174 34.3709 151.402 34.3632Z" fill="#969BA6"></path> <path d="M163.652 34.3633C161.395 34.3633 159.681 33.7979 158.511 32.6671C157.342 31.5363 156.751 29.7778 156.74 27.3917C156.74 24.8596 157.333 23.0497 158.511 21.9459C159.69 20.8422 161.395 20.3228 163.652 20.3228C165.909 20.3228 167.614 20.8746 168.792 21.9459C169.97 23.0172 170.555 24.8596 170.555 27.3917C170.555 29.7778 169.962 31.539 168.792 32.6671C167.623 33.7952 165.901 34.3633 163.652 34.3633ZM163.652 31.4578C164.13 31.5046 164.612 31.4401 165.06 31.2695C165.508 31.0989 165.909 30.8271 166.23 30.4758C166.849 29.568 167.139 28.4817 167.054 27.3917C167.16 26.249 166.87 25.1045 166.23 24.1454C165.905 23.81 165.508 23.5511 165.067 23.3882C164.626 23.2252 164.154 23.1622 163.685 23.2039C163.212 23.1608 162.736 23.223 162.291 23.386C161.846 23.549 161.444 23.8085 161.115 24.1454C160.471 25.1027 160.18 26.2486 160.291 27.3917C160.206 28.4817 160.496 29.568 161.115 30.4758C161.434 30.8193 161.828 31.0864 162.268 31.2566C162.708 31.4268 163.181 31.4956 163.652 31.4578Z" fill="#969BA6"></path> <path d="M172.318 34.1524V20.5014H179.246C179.905 20.4476 180.568 20.5336 181.19 20.7533C181.812 20.9731 182.38 21.3217 182.854 21.7756C183.668 22.7242 184.084 23.9437 184.015 25.1843C184.041 26.0486 183.794 26.8994 183.307 27.6191C182.831 28.3129 182.158 28.8523 181.371 29.1692C181.562 29.3135 181.727 29.4892 181.857 29.6887C182.014 29.9466 182.146 30.2183 182.253 30.5002L183.9 34.1849H180.275L178.727 30.7113C178.626 30.4538 178.455 30.229 178.232 30.062C177.982 29.9212 177.697 29.8511 177.409 29.8591H175.778V34.1849L172.318 34.1524ZM175.778 27.1971H178.34C178.911 27.2327 179.475 27.056 179.921 26.702C180.122 26.5049 180.277 26.267 180.375 26.0049C180.473 25.7428 180.512 25.4628 180.49 25.1843C180.49 23.8208 179.822 23.131 178.488 23.131H175.778V27.1971Z" fill="#969BA6"></path> <path d="M185.779 34.1527V20.5017H196.002V23.1313H189.247V25.9962H195.203V28.6826H189.247V31.5232H196.002V34.1527H185.779Z" fill="#969BA6"></path> <path d="M4.76373 23.4602H0V33.5999H1.62773V30.1205H4.71893C6.77973 30.1205 8.34773 28.7914 8.34773 26.7903C8.34773 24.7893 6.79467 23.4602 4.76373 23.4602ZM4.64427 28.6271H1.62773V24.9834H4.64427C5.74933 24.9834 6.6752 25.7151 6.6752 26.8202C6.6752 27.9103 5.74933 28.6271 4.64427 28.6271Z" fill="#5F6471"></path> <path d="M13.7607 33.8239C16.1053 33.8239 17.9869 32.0021 17.9869 29.7471C17.9869 27.4922 16.1053 25.6554 13.7607 25.6554C11.4162 25.6554 9.53458 27.4922 9.53458 29.7471C9.53458 32.0021 11.4162 33.8239 13.7607 33.8239ZM13.7607 32.3754C12.2375 32.3754 11.0877 31.1957 11.0877 29.7471C11.0877 28.2837 12.2375 27.1039 13.7607 27.1039C15.2839 27.1039 16.4338 28.2837 16.4338 29.7471C16.4338 31.1957 15.2839 32.3754 13.7607 32.3754Z" fill="#5F6471"></path> <path d="M21.7344 34.2122L23.84 29.0602L26.0203 34.2122L29.007 25.8794H27.3195L25.9008 30.3445L23.855 25.5658L21.9734 30.3295L20.4352 25.8794H18.7478L21.7344 34.2122Z" fill="#5F6471"></path> <path d="M34.0326 33.8239C36.2875 33.8239 37.1238 33.0325 37.1238 33.0325V31.5839C37.1089 31.5839 35.959 32.3903 34.0625 32.3903C32.3153 32.3903 31.479 31.3151 31.2998 30.1205H37.4673V29.3738C37.4673 27.5071 36.1681 25.6554 33.9281 25.6554C31.5387 25.6554 29.7617 27.4175 29.7617 29.7322C29.7617 31.9573 31.3147 33.8239 34.0326 33.8239ZM31.3745 28.8661C31.4641 28.2687 32.0315 26.9695 33.719 26.9695C35.4065 26.9695 35.7947 28.2687 35.8545 28.8661H31.3745Z" fill="#5F6471"></path> <path d="M39.2548 33.5999H40.8676V29.7322C40.8975 28.0895 42.0772 26.9695 44.0335 26.9695V25.6405C42.3908 25.6405 41.226 26.417 40.8676 27.3578V25.8645H39.2548V33.5999Z" fill="#5F6471"></path> <path d="M49.0534 33.8239C51.3084 33.8239 52.1446 33.0325 52.1446 33.0325V31.5839C52.1297 31.5839 50.9798 32.3903 49.0833 32.3903C47.3361 32.3903 46.4998 31.3151 46.3206 30.1205H52.4881V29.3738C52.4881 27.5071 51.1889 25.6554 48.9489 25.6554C46.5596 25.6554 44.7825 27.4175 44.7825 29.7322C44.7825 31.9573 46.3356 33.8239 49.0534 33.8239ZM46.3953 28.8661C46.4849 28.2687 47.0524 26.9695 48.7398 26.9695C50.4273 26.9695 50.8156 28.2687 50.8753 28.8661H46.3953Z" fill="#5F6471"></path> <path d="M57.7103 33.8239C58.9647 33.8239 59.7861 33.3311 60.2938 32.8085L60.2789 33.5999H61.9215V23.1914L60.3087 23.4602V26.6261C59.7711 26.0885 58.8303 25.6554 57.7103 25.6554C55.3509 25.6554 53.6783 27.4922 53.6783 29.7471C53.6783 32.0021 55.3509 33.8239 57.7103 33.8239ZM57.8298 32.3903C56.3813 32.3903 55.2463 31.1957 55.2463 29.7322C55.2463 28.2687 56.3813 27.089 57.8298 27.089C59.2634 27.089 60.3983 28.0597 60.3983 29.7322C60.3983 31.4197 59.2634 32.3903 57.8298 32.3903Z" fill="#5F6471"></path> <path d="M72.3994 33.8239C74.7588 33.8239 76.4314 32.0021 76.4314 29.7471C76.4314 27.4922 74.7588 25.6554 72.3994 25.6554C71.2794 25.6554 70.3386 26.0885 69.801 26.6261V23.1914L68.2031 23.4602V33.5999H69.8308L69.8159 32.8085C70.3236 33.3311 71.145 33.8239 72.3994 33.8239ZM72.2799 32.3903C70.8463 32.3903 69.7114 31.4197 69.7114 29.7322C69.7114 28.0597 70.8463 27.089 72.2799 27.089C73.7284 27.089 74.8634 28.2687 74.8634 29.7322C74.8634 31.1957 73.7284 32.3903 72.2799 32.3903Z" fill="#5F6471"></path> <path d="M78.2584 36.7061H79.9757L85.1874 25.8794H83.5L81.1106 31.0015L78.7213 25.8794H77.0338L80.2744 32.7039L78.2584 36.7061Z" fill="#5F6471"></path> <defs> <clipPath id="clip0_1430_21"> <rect width="51.8986" height="49.5072" fill="white" transform="translate(88.7804 3.24634)"></rect> </clipPath> </defs> </svg>
