<svg width="203" height="56" viewBox="0 0 203 56" fill="none" xmlns="http://www.w3.org/2000/svg">
<g clipPath="url(#clip0_3645_3254)">
<path fillRule="evenodd" clipRule="evenodd" d="M98.4542 15.7371C100.478 13.0989 103.128 10.9913 106.173 9.59984C109.218 8.2084 112.563 7.57582 115.914 7.75782C119.265 7.93982 122.52 8.9308 125.391 10.6435C128.262 12.3562 130.661 14.7381 132.378 17.5794L133.861 16.7678L136.332 15.3394C134.115 11.6646 130.966 8.62076 127.194 6.50677C123.423 4.39279 119.158 3.28125 114.819 3.28125C110.48 3.28125 106.215 4.39279 102.443 6.50677C98.6716 8.62076 95.5227 11.6646 93.3056 15.3394L92.0781 17.2386L94.0387 18.3829L101.626 22.8223C100.385 25.8972 100.298 29.3074 101.382 32.4394C102.466 35.5714 104.649 38.2196 107.538 39.9073C110.427 41.5951 113.832 42.2117 117.141 41.6461C120.451 41.0806 123.447 39.3701 125.59 36.8223L131.117 40.0687C129.094 42.7092 126.441 44.8184 123.394 46.2101C120.347 47.6019 117 48.2334 113.646 48.0489C110.293 47.8644 107.037 46.8697 104.167 45.1524C101.296 43.4351 98.8985 41.0481 97.1856 38.202L93.2726 40.4826C95.4898 44.1575 98.6386 47.2013 102.41 49.3153C106.182 51.4292 110.447 52.5408 114.786 52.5408C119.125 52.5408 123.39 51.4292 127.161 49.3153C130.933 47.2013 134.082 44.1575 136.299 40.4826L137.469 38.551L135.508 37.4067L129.28 33.7626L123.909 30.711C123.255 32.7616 121.909 34.53 120.094 35.7224C118.279 36.9149 116.104 37.4594 113.931 37.2657C111.758 37.0719 109.718 36.1515 108.15 34.6574C106.582 33.1632 105.579 31.1854 105.31 29.0524C105.04 26.9195 105.52 24.7599 106.668 22.9326C107.817 21.1052 109.566 19.7202 111.624 19.0075C113.683 18.2949 115.926 18.2976 117.983 19.0152C120.039 19.7328 121.785 21.1221 122.929 22.9522L126.875 20.7122C125.716 18.818 124.114 17.2238 122.204 16.0622C120.293 14.9007 118.129 14.2052 115.89 14.0338C113.652 13.8623 111.405 14.2198 109.335 15.0765C107.265 15.9331 105.433 17.2642 103.99 18.9591L98.4542 15.7371Z" fill="#00050F"/>

</g>
<path d="M151.4 34.3627C148.978 34.3627 147.133 33.7513 145.864 32.5285C145.213 31.8515 144.71 31.0496 144.387 30.1727C144.063 29.2958 143.927 28.3628 143.986 27.4317C143.928 26.4798 144.063 25.5261 144.382 24.626C144.702 23.7259 145.2 22.8974 145.848 22.1888C147.083 20.9281 148.934 20.2951 151.4 20.2897C152.16 20.2821 152.919 20.3473 153.666 20.4844C154.32 20.6042 154.964 20.7724 155.593 20.9876V23.9824C154.345 23.4722 153.007 23.2128 151.655 23.2195C151.09 23.1704 150.52 23.235 149.981 23.4094C149.441 23.5838 148.943 23.8643 148.517 24.234C147.772 25.1303 147.411 26.2775 147.512 27.4317C147.464 27.9845 147.533 28.5412 147.714 29.0665C147.896 29.5918 148.186 30.0742 148.566 30.4833C149.447 31.192 150.571 31.5406 151.705 31.4572C152.376 31.4589 153.047 31.3991 153.707 31.2786C154.364 31.1577 155.008 30.9701 155.626 30.7186V33.7297C154.999 33.9295 154.357 34.0841 153.707 34.1923C152.944 34.3134 152.173 34.3704 151.4 34.3627Z" fill="#00050F"/>
<path d="M163.65 34.3609C161.393 34.3609 159.679 33.7955 158.509 32.6647C157.34 31.5338 156.749 29.7754 156.738 27.3893C156.738 24.8571 157.331 23.0473 158.509 21.9435C159.687 20.8397 161.393 20.3203 163.65 20.3203C165.907 20.3203 167.612 20.8722 168.79 21.9435C169.968 23.0148 170.553 24.8571 170.553 27.3893C170.553 29.7754 169.96 31.5365 168.79 32.6647C167.621 33.7928 165.899 34.3609 163.65 34.3609ZM163.65 31.4554C164.128 31.5022 164.61 31.4377 165.058 31.2671C165.506 31.0965 165.907 30.8246 166.228 30.4734C166.846 29.5656 167.137 28.4793 167.052 27.3893C167.158 26.2465 166.868 25.1021 166.228 24.1429C165.903 23.8075 165.505 23.5487 165.065 23.3857C164.624 23.2227 164.152 23.1597 163.683 23.2015C163.21 23.1584 162.734 23.2206 162.289 23.3836C161.844 23.5465 161.442 23.8061 161.113 24.1429C160.469 25.1002 160.178 26.2462 160.289 27.3893C160.204 28.4793 160.494 29.5656 161.113 30.4734C161.431 30.8169 161.826 31.0839 162.266 31.2541C162.705 31.4244 163.179 31.4932 163.65 31.4554Z" fill="#00050F"/>
<path d="M172.316 34.151V20.4999H179.244C179.903 20.4462 180.566 20.5321 181.189 20.7519C181.811 20.9717 182.378 21.3202 182.853 21.7741C183.667 22.7228 184.083 23.9422 184.014 25.1828C184.04 26.0472 183.792 26.898 183.306 27.6176C182.83 28.3114 182.156 28.8509 181.37 29.1678C181.561 29.3121 181.725 29.4878 181.856 29.6872C182.013 29.9451 182.145 30.2168 182.251 30.4988L183.899 34.1834H180.274L178.725 30.7098C178.625 30.4524 178.454 30.2275 178.231 30.0605C177.981 29.9198 177.696 29.8496 177.407 29.8576H175.776V34.1834L172.316 34.151ZM175.776 27.1956H178.338C178.91 27.2312 179.474 27.0546 179.92 26.7005C180.121 26.5034 180.276 26.2655 180.374 26.0034C180.472 25.7413 180.511 25.4613 180.488 25.1828C180.488 23.8194 179.821 23.1295 178.487 23.1295H175.776V27.1956Z" fill="#00050F"/>
<path d="M185.777 34.151V20.5H196.001V23.1296H189.245V25.9945H195.201V28.6809H189.245V31.5215H196.001V34.151H185.777Z" fill="#00050F"/>
<path d="M4.76373 23.4602H0V33.5999H1.62773V30.1205H4.71893C6.77973 30.1205 8.34773 28.7914 8.34773 26.7903C8.34773 24.7893 6.79467 23.4602 4.76373 23.4602ZM4.64427 28.6271H1.62773V24.9834H4.64427C5.74933 24.9834 6.6752 25.7151 6.6752 26.8202C6.6752 27.9103 5.74933 28.6271 4.64427 28.6271Z" fill="#00050F"/>
<path d="M13.7607 33.8239C16.1053 33.8239 17.9869 32.0021 17.9869 29.7471C17.9869 27.4922 16.1053 25.6554 13.7607 25.6554C11.4162 25.6554 9.53458 27.4922 9.53458 29.7471C9.53458 32.0021 11.4162 33.8239 13.7607 33.8239ZM13.7607 32.3754C12.2375 32.3754 11.0877 31.1957 11.0877 29.7471C11.0877 28.2837 12.2375 27.1039 13.7607 27.1039C15.2839 27.1039 16.4338 28.2837 16.4338 29.7471C16.4338 31.1957 15.2839 32.3754 13.7607 32.3754Z" fill="#00050F"/>
<path d="M21.7344 34.2122L23.84 29.0602L26.0203 34.2122L29.007 25.8794H27.3195L25.9008 30.3445L23.855 25.5658L21.9734 30.3295L20.4352 25.8794H18.7478L21.7344 34.2122Z" fill="#00050F"/>
<path d="M34.0326 33.8239C36.2875 33.8239 37.1238 33.0325 37.1238 33.0325V31.5839C37.1089 31.5839 35.959 32.3903 34.0625 32.3903C32.3153 32.3903 31.479 31.3151 31.2998 30.1205H37.4673V29.3738C37.4673 27.5071 36.1681 25.6554 33.9281 25.6554C31.5387 25.6554 29.7617 27.4175 29.7617 29.7322C29.7617 31.9573 31.3147 33.8239 34.0326 33.8239ZM31.3745 28.8661C31.4641 28.2687 32.0315 26.9695 33.719 26.9695C35.4065 26.9695 35.7947 28.2687 35.8545 28.8661H31.3745Z" fill="#00050F"/>
<path d="M39.2548 33.5999H40.8676V29.7322C40.8975 28.0895 42.0772 26.9695 44.0335 26.9695V25.6405C42.3908 25.6405 41.226 26.417 40.8676 27.3578V25.8645H39.2548V33.5999Z" fill="#00050F"/>
<path d="M49.0534 33.8239C51.3084 33.8239 52.1446 33.0325 52.1446 33.0325V31.5839C52.1297 31.5839 50.9798 32.3903 49.0833 32.3903C47.3361 32.3903 46.4998 31.3151 46.3206 30.1205H52.4881V29.3738C52.4881 27.5071 51.1889 25.6554 48.9489 25.6554C46.5596 25.6554 44.7825 27.4175 44.7825 29.7322C44.7825 31.9573 46.3356 33.8239 49.0534 33.8239ZM46.3953 28.8661C46.4849 28.2687 47.0524 26.9695 48.7398 26.9695C50.4273 26.9695 50.8156 28.2687 50.8753 28.8661H46.3953Z" fill="#00050F"/>
<path d="M57.7103 33.8239C58.9647 33.8239 59.7861 33.3311 60.2938 32.8085L60.2789 33.5999H61.9215V23.1914L60.3087 23.4602V26.6261C59.7711 26.0885 58.8303 25.6554 57.7103 25.6554C55.3509 25.6554 53.6783 27.4922 53.6783 29.7471C53.6783 32.0021 55.3509 33.8239 57.7103 33.8239ZM57.8298 32.3903C56.3813 32.3903 55.2463 31.1957 55.2463 29.7322C55.2463 28.2687 56.3813 27.089 57.8298 27.089C59.2634 27.089 60.3983 28.0597 60.3983 29.7322C60.3983 31.4197 59.2634 32.3903 57.8298 32.3903Z" fill="#00050F"/>
<path d="M72.3994 33.8239C74.7588 33.8239 76.4314 32.0021 76.4314 29.7471C76.4314 27.4922 74.7588 25.6554 72.3994 25.6554C71.2794 25.6554 70.3386 26.0885 69.801 26.6261V23.1914L68.2031 23.4602V33.5999H69.8308L69.8159 32.8085C70.3236 33.3311 71.145 33.8239 72.3994 33.8239ZM72.2799 32.3903C70.8463 32.3903 69.7114 31.4197 69.7114 29.7322C69.7114 28.0597 70.8463 27.089 72.2799 27.089C73.7284 27.089 74.8634 28.2687 74.8634 29.7322C74.8634 31.1957 73.7284 32.3903 72.2799 32.3903Z" fill="#00050F"/>
<path d="M78.2584 36.7061H79.9757L85.1874 25.8794H83.5L81.1106 31.0015L78.7213 25.8794H77.0338L80.2744 32.7039L78.2584 36.7061Z" fill="#00050F"/>
<defs>
<clipPath id="clip0_3645_3254">
<rect width="51.8986" height="49.5072" fill="white" transform="translate(88.7812 3.24609)"/>
</clipPath>
</defs>
</svg>
