<svg width="159" height="36" viewBox="0 0 159 36" fill="none" xmlns="http://www.w3.org/2000/svg">
<g clipPath="url(#clip0_3645_3351)">
<path d="M5.51871 15.5412C5.5186 17.7402 6.21637 19.8798 7.50716 21.6384C8.79794 23.3971 10.612 24.6797 12.6766 25.2936V31.0788C9.11747 30.4182 5.89801 28.5008 3.57979 25.6609C1.26156 22.821 -0.00830078 19.2389 -0.00830078 15.5394C-0.00830078 11.8399 1.26156 8.25781 3.57979 5.41792C5.89801 2.57802 9.11747 0.660566 12.6766 0V5.7906C10.6121 6.40411 8.79813 7.68642 7.50733 9.44476C6.21654 11.2031 5.51869 13.3424 5.51871 15.5412Z" fill="#00050F"/>
<path d="M19.8207 15.542C19.8211 16.4346 19.5626 17.3073 19.078 18.0496C18.5934 18.7919 17.9044 19.3706 17.0982 19.7124C16.2919 20.0543 15.4047 20.1439 14.5487 19.97C13.6927 19.796 12.9063 19.3664 12.2891 18.7354C11.6718 18.1044 11.2514 17.3003 11.081 16.4249C10.9106 15.5495 10.9979 14.642 11.3318 13.8174C11.6657 12.9927 12.2312 12.2878 12.9569 11.7919C13.6825 11.296 14.5357 11.0313 15.4084 11.0312C16.5782 11.0317 17.6999 11.5071 18.5273 12.3529C19.3546 13.1986 19.8198 14.3457 19.8207 15.542Z" fill="#FF7152"/>
<path d="M30.8771 15.5412V31.0788H25.363V15.5412C25.3628 13.3393 24.6628 11.1971 23.3686 9.43743C22.0744 7.67777 20.256 6.39598 18.1875 5.7852V0C21.7476 0.659956 24.9682 2.57734 27.2874 5.41763C29.6065 8.25792 30.877 11.8408 30.8771 15.5412Z" fill="#00050F"/>
<path d="M42.504 9.00033C41.0092 9.00033 39.8717 8.60973 39.0914 7.82853C38.3111 7.04733 37.9198 5.96073 37.9175 4.56873C37.9175 3.11433 38.2994 1.98933 39.0632 1.19373C39.8271 0.398128 40.9693 0.000328384 42.49 0.000328384C42.9585 -0.00413181 43.4264 0.0368516 43.8874 0.122728C44.2901 0.201113 44.6867 0.310013 45.0736 0.448528V2.35833C44.3046 2.03351 43.4803 1.86772 42.6484 1.87053C41.7648 1.87053 41.1195 2.08773 40.7124 2.52213C40.3052 2.95653 40.0999 3.63873 40.0964 4.56873C40.0964 5.45433 40.3128 6.10473 40.7458 6.51993C41.1788 6.93513 41.8241 7.14333 42.6818 7.14453C43.0951 7.14429 43.5075 7.10512 43.9138 7.02753C44.3184 6.95127 44.7137 6.83057 45.093 6.66753V8.59353C44.7079 8.72368 44.3137 8.82357 43.9138 8.89233C43.4482 8.96845 42.9772 9.00457 42.5058 9.00033" fill="#00050F"/>
<path d="M50.0312 9C48.6444 9 47.5884 8.64 46.8633 7.92C46.1381 7.2 45.7762 6.0738 45.7773 4.5414C45.7773 2.9226 46.1393 1.761 46.8633 1.0566C47.5872 0.3522 48.6432 0 50.0312 0C51.4181 0 52.4741 0.3522 53.1992 1.0566C53.9243 1.761 54.2869 2.9226 54.2869 4.5414C54.2869 6.0678 53.9243 7.1928 53.1992 7.9164C52.4741 8.64 51.4181 9 50.0312 8.9964V9ZM50.0312 7.1388C50.7458 7.1388 51.2691 6.9288 51.6012 6.5088C51.9332 6.0888 52.0981 5.433 52.0957 4.5414C52.0957 3.564 51.9303 2.8764 51.5994 2.4732C51.2685 2.07 50.744 1.8702 50.0295 1.8702C49.3149 1.8702 48.7764 2.0718 48.4455 2.4732C48.1146 2.8746 47.9474 3.564 47.9474 4.5414C47.9474 5.4366 48.1134 6.0966 48.4455 6.5214C48.7775 6.9462 49.3055 7.1562 50.0295 7.1514" fill="#00050F"/>
<path d="M55.3711 8.86672V0.136719H59.6391C60.6458 0.136719 61.3879 0.407919 61.8655 0.950319C62.343 1.49272 62.5818 2.22052 62.5818 3.13372C62.5948 3.67588 62.4456 4.20917 62.154 4.66213C61.8624 5.1151 61.4424 5.4661 60.9503 5.66812C61.0682 5.75971 61.1695 5.87182 61.2495 5.99932C61.3439 6.16234 61.4257 6.33266 61.4941 6.50872L62.5026 8.86672H60.2744L59.3205 6.64372C59.26 6.47869 59.1543 6.33496 59.016 6.22972C58.8562 6.13476 58.6725 6.09029 58.488 6.10192H57.5077V8.86672H55.3711ZM57.506 4.42072H59.09C59.442 4.44292 59.7893 4.32923 60.0632 4.10212C60.187 3.97642 60.2826 3.82472 60.3434 3.65751C60.4041 3.4903 60.4287 3.31158 60.4152 3.13372C60.4152 2.25772 60.0046 1.81912 59.1832 1.81792H57.5148L57.506 4.42072Z" fill="#00050F"/>
<path d="M63.668 8.86672V0.136719H69.9635V1.81792H65.8028V3.64852H69.4724V5.35672H65.8028V7.18552H69.9635V8.86672H63.668Z" fill="#00050F"/>
<path d="M42.7874 31.0803C41.9576 31.0872 41.1348 30.9244 40.3674 30.6015C39.6441 30.3039 39.0236 29.7933 38.5845 29.1345C38.1398 28.4721 37.9175 27.6471 37.9175 26.6595C37.9175 25.2195 38.3956 24.0879 39.3519 23.2647C40.3081 22.4415 41.7431 22.0311 43.6568 22.0335H47.4831V21.7077C47.4831 20.9973 47.2484 20.4885 46.7791 20.1813C46.3162 19.8753 45.445 19.7223 44.1707 19.7223C42.606 19.722 41.0508 19.9717 39.5613 20.4621V17.3823C40.3632 17.0719 41.1933 16.844 42.0394 16.7019C43.0587 16.5196 44.0917 16.4298 45.1264 16.4337C47.2525 16.4337 48.9192 16.8789 50.1266 17.7693C51.3339 18.6597 51.9382 20.0727 51.9394 22.0083V30.7815H47.8597L47.6291 29.5953C47.0704 30.1021 46.4094 30.4769 45.6931 30.6933C44.747 30.9725 43.7648 31.1024 42.7804 31.0785L42.7874 31.0803ZM44.2587 28.1427C44.9163 28.159 45.5694 28.0275 46.1719 27.7575C46.671 27.5328 47.1161 27.1992 47.476 26.7801V24.8001H44.176C42.8032 24.8001 42.1168 25.3635 42.1168 26.4903C42.107 26.7208 42.1496 26.9505 42.2412 27.1613C42.3328 27.3721 42.471 27.5583 42.6448 27.7053C42.9968 28.0023 43.5336 28.1499 44.2675 28.1499" fill="#00050F"/>
<path d="M62.0064 31.0803C59.5506 31.0803 57.6328 30.4677 56.253 29.2425C54.8731 28.0173 54.182 26.1903 54.1797 23.7615C54.1797 21.2907 54.8995 19.4523 56.3392 18.2463C57.7789 17.0403 59.6967 16.4403 62.0926 16.4463C62.9723 16.4358 63.8509 16.5105 64.7168 16.6695C65.4633 16.8159 66.1889 17.0578 66.8763 17.3895V20.7681C65.7933 20.2353 64.5273 19.9683 63.0782 19.9671C61.7266 19.9671 60.6975 20.2443 59.9912 20.7987C59.2849 21.3531 58.9329 22.3413 58.9352 23.7633C58.9352 25.0833 59.2637 26.0469 59.9208 26.6541C60.5779 27.2613 61.6216 27.5613 63.0518 27.5541C64.3876 27.5711 65.7086 27.2665 66.908 26.6649V30.1929C66.1899 30.516 65.4347 30.7452 64.6605 30.8751C63.7834 31.0184 62.8963 31.0877 62.0082 31.0821" fill="#00050F"/>
<path d="M73.5677 31.0803C72.7392 31.0863 71.9177 30.9236 71.1513 30.6015C70.4288 30.3034 69.8089 29.7929 69.3702 29.1345C68.9255 28.4721 68.7031 27.6471 68.7031 26.6595C68.7031 25.2195 69.1813 24.0879 70.1375 23.2647C71.0938 22.4415 72.5305 22.0323 74.4477 22.0371H78.274V21.7113C78.274 21.0009 78.0422 20.4921 77.5788 20.1849C77.1153 19.8777 76.2453 19.7247 74.9687 19.7259C73.4045 19.7258 71.8499 19.9754 70.361 20.4657V17.3823C71.1628 17.0717 71.993 16.8438 72.8391 16.7019C73.8584 16.5196 74.8914 16.4298 75.9261 16.4337C78.0522 16.4337 79.7189 16.8789 80.9263 17.7693C82.1336 18.6597 82.7373 20.0727 82.7373 22.0083V30.7815H78.6453L78.413 29.5953C77.8572 30.1016 77.1992 30.4764 76.4858 30.6933C75.538 30.9735 74.554 31.104 73.5677 31.0803ZM75.0461 28.1445C75.7037 28.1605 76.3567 28.0291 76.9592 27.7593C77.4581 27.5341 77.9031 27.2006 78.2634 26.7819V24.8019H74.9634C73.5918 24.8019 72.906 25.3653 72.906 26.4921C72.8966 26.7226 72.9393 26.9521 73.0309 27.1628C73.1225 27.3736 73.2604 27.5599 73.434 27.7071C73.786 28.0041 74.3228 28.1517 75.0585 28.1517" fill="#00050F"/>
<path d="M91.3137 31.0796C89.9796 31.0796 88.8391 30.8624 87.8922 30.428C86.9424 29.9938 86.171 29.2335 85.7116 28.2788C85.2082 27.2804 84.9565 25.9412 84.9565 24.2612C84.9565 22.5596 85.2469 21.1316 85.8277 19.9772C86.3551 18.8775 87.186 17.9601 88.2178 17.3384C89.2826 16.7239 90.4891 16.413 91.7114 16.4384C92.3642 16.4294 93.0153 16.5093 93.6475 16.676C94.2153 16.8354 94.7577 17.0779 95.2578 17.396V10.8008H99.9236V30.7808H95.8932L95.6327 29.5946C95.0794 30.0848 94.4396 30.4624 93.7478 30.707C92.9622 30.9682 92.1396 31.0935 91.3137 31.0778V31.0796ZM92.646 27.6092C93.1288 27.6189 93.6085 27.5295 94.0569 27.3461C94.5052 27.1628 94.913 26.8893 95.2561 26.5418V20.852C94.5978 20.2388 93.7572 19.9322 92.734 19.9322C91.7484 19.9322 90.9992 20.3126 90.4865 21.0734C89.9737 21.8342 89.7179 22.9064 89.7191 24.29C89.7191 25.634 89.9655 26.5232 90.4583 26.9576C90.9511 27.392 91.6804 27.6098 92.646 27.611" fill="#00050F"/>
<path d="M109.952 31.0772C107.555 31.0772 105.632 30.4694 104.183 29.2538C102.734 28.0382 102.009 26.2064 102.009 23.7584C102.009 21.5252 102.608 19.7462 103.806 18.4214C105.004 17.0966 106.802 16.4366 109.199 16.4414C111.384 16.4414 113.074 17.015 114.271 18.1622C115.468 19.3094 116.067 20.8508 116.068 22.7864V25.3064H106.328C106.542 26.2352 107.039 26.8826 107.821 27.2486C108.602 27.6146 109.67 27.7946 111.024 27.7886C111.797 27.7867 112.568 27.7168 113.33 27.5798C113.999 27.4719 114.655 27.2908 115.287 27.0398V30.152C114.54 30.4957 113.75 30.7302 112.939 30.8486C111.949 31.004 110.948 31.0787 109.947 31.0718L109.952 31.0772ZM106.323 22.5326H112.004V21.9098C112.019 21.6076 111.973 21.3056 111.868 21.0225C111.764 20.7394 111.604 20.4814 111.397 20.2646C110.99 19.8602 110.304 19.658 109.338 19.658C108.216 19.658 107.434 19.8902 106.99 20.3546C106.547 20.819 106.324 21.545 106.323 22.5326Z" fill="#00050F"/>
<path d="M118.448 30.7792V16.7284H122.767L122.911 17.974C123.554 17.5077 124.256 17.1334 124.998 16.8616C125.799 16.5704 126.643 16.4248 127.492 16.4314C128.419 16.4314 129.144 16.5748 129.666 16.8616C130.175 17.1361 130.597 17.5524 130.884 18.0622C131.548 17.5736 132.275 17.18 133.043 16.8922C133.952 16.5674 134.91 16.4113 135.872 16.4314C137.475 16.4314 138.653 16.8568 139.408 17.7076C140.162 18.5584 140.538 19.8556 140.536 21.5992V30.7792H135.926V22.1536C135.926 21.3832 135.767 20.8252 135.448 20.4796C135.129 20.134 134.612 19.9594 133.897 19.9594C133.448 19.9608 133.004 20.057 132.593 20.242C132.182 20.4186 131.816 20.6867 131.519 21.0268C131.557 21.2325 131.581 21.4406 131.591 21.6496C131.602 21.8476 131.607 22.0876 131.607 22.3696V30.7792H127.258V22.0942C127.258 21.3826 127.137 20.8492 126.896 20.494C126.654 20.1388 126.195 19.9588 125.519 19.954C125.039 19.9532 124.568 20.0871 124.157 20.341C123.739 20.591 123.349 20.8894 122.997 21.2302V30.7702L118.448 30.7792Z" fill="#00050F"/>
<path d="M146.71 36.0013C146.114 36.0077 145.518 35.9728 144.927 35.8969C144.425 35.8258 143.933 35.6916 143.463 35.4973V32.1763C143.759 32.2865 144.065 32.3661 144.376 32.4139C144.66 32.4537 144.945 32.4736 145.232 32.4733C146.024 32.4733 146.618 32.3299 147.014 32.0431C147.411 31.7563 147.812 31.2475 148.217 30.5167L142.042 16.7305H146.942L150.564 25.6549L154.13 16.7305H159L153.754 29.6275C153.287 30.8064 152.705 31.9336 152.015 32.9917C151.436 33.8915 150.672 34.6508 149.776 35.2165C148.929 35.7397 147.907 36.0013 146.71 36.0013Z" fill="#00050F"/>
</g>
<defs>
<clipPath id="clip0_3645_3351">
<rect width="159" height="36" fill="white"/>
</clipPath>
</defs>
</svg>
