<svg width="159" height="36" viewBox="0 0 159 36" fill="none" xmlns="http://www.w3.org/2000/svg">
<path d="M5.51888 15.5412C5.51877 17.7402 6.21654 19.8798 7.50732 21.6384C8.7981 23.3971 10.6121 24.6797 12.6768 25.2936V31.0788C9.11764 30.4182 5.89818 28.5008 3.57995 25.6609C1.26173 22.821 -0.00813293 19.2389 -0.00813293 15.5394C-0.00813293 11.8399 1.26173 8.25781 3.57995 5.41792C5.89818 2.57802 9.11764 0.660566 12.6768 0V5.7906C10.6123 6.40411 8.7983 7.68642 7.5075 9.44476C6.2167 11.2031 5.51886 13.3424 5.51888 15.5412Z" fill="white"/>
<path d="M19.8211 15.5412C19.8215 16.4338 19.563 17.3064 19.0784 18.0488C18.5937 18.7911 17.9047 19.3698 17.0985 19.7116C16.2923 20.0534 15.4051 20.143 14.5491 19.9691C13.6931 19.7952 12.9067 19.3655 12.2894 18.7345C11.6722 18.1035 11.2518 17.2994 11.0814 16.424C10.911 15.5486 10.9983 14.6412 11.3322 13.8165C11.6661 12.9918 12.2316 12.287 12.9573 11.791C13.6829 11.2951 14.536 11.0304 15.4088 11.0304C16.5786 11.0309 17.7003 11.5062 18.5276 12.352C19.355 13.1978 19.8202 14.3448 19.8211 15.5412Z" fill="#FF7152"/>
<path d="M30.8774 15.5412V31.0788H25.3633V15.5412C25.3631 13.3393 24.6632 11.1971 23.3689 9.43743C22.0747 7.67777 20.2563 6.39598 18.1878 5.7852V0C21.748 0.659956 24.9686 2.57734 27.2877 5.41763C29.6068 8.25792 30.8773 11.8408 30.8774 15.5412Z" fill="white"/>
<path d="M42.504 9.00002C41.0091 9.00002 39.8716 8.60942 39.0913 7.82822C38.3111 7.04702 37.9198 5.96042 37.9174 4.56842C37.9174 3.11402 38.2993 1.98902 39.0632 1.19342C39.827 0.397823 40.9693 2.32083e-05 42.4899 2.32083e-05C42.9584 -0.00443698 43.4263 0.0365464 43.8873 0.122423C44.2901 0.200808 44.6866 0.309708 45.0736 0.448223V2.35802C44.3046 2.03321 43.4803 1.86742 42.6483 1.87022C41.7648 1.87022 41.1194 2.08742 40.7123 2.52182C40.3051 2.95622 40.0998 3.63842 40.0963 4.56842C40.0963 5.45402 40.3128 6.10442 40.7457 6.51962C41.1787 6.93482 41.824 7.14302 42.6817 7.14422C43.095 7.14398 43.5074 7.10482 43.9137 7.02722C44.3183 6.95097 44.7137 6.83027 45.0929 6.66722V8.59322C44.7079 8.72338 44.3137 8.82327 43.9137 8.89202C43.4482 8.96814 42.9772 9.00427 42.5057 9.00002" fill="white"/>
<path d="M50.0315 9C48.6446 9 47.5886 8.64 46.8635 7.92C46.1384 7.2 45.7764 6.0738 45.7776 4.5414C45.7776 2.9226 46.1396 1.761 46.8635 1.0566C47.5874 0.3522 48.6434 0 50.0315 0C51.4184 0 52.4744 0.3522 53.1995 1.0566C53.9246 1.761 54.2871 2.9226 54.2871 4.5414C54.2871 6.0678 53.9246 7.1928 53.1995 7.9164C52.4744 8.64 51.4184 9 50.0315 8.9964V9ZM50.0315 7.1388C50.746 7.1388 51.2693 6.9288 51.6014 6.5088C51.9335 6.0888 52.0983 5.433 52.096 4.5414C52.096 3.564 51.9305 2.8764 51.5996 2.4732C51.2688 2.07 50.7443 1.8702 50.0297 1.8702C49.3152 1.8702 48.7766 2.0718 48.4457 2.4732C48.1149 2.8746 47.9477 3.564 47.9477 4.5414C47.9477 5.4366 48.1137 6.0966 48.4457 6.5214C48.7778 6.9462 49.3058 7.1562 50.0297 7.1514" fill="white"/>
<path d="M55.3713 8.86452V0.134521H59.6393C60.646 0.134521 61.3881 0.405721 61.8657 0.948121C62.3432 1.49052 62.582 2.21832 62.582 3.13152C62.5951 3.67368 62.4458 4.20697 62.1542 4.65994C61.8626 5.1129 61.4426 5.46391 60.9505 5.66592C61.0685 5.75751 61.1697 5.86962 61.2497 5.99712C61.3441 6.16014 61.4259 6.33046 61.4943 6.50652L62.5028 8.86452H60.2747L59.3207 6.64152C59.2602 6.47649 59.1545 6.33276 59.0163 6.22752C58.8565 6.13256 58.6727 6.08809 58.4883 6.09972H57.5079V8.86452H55.3713ZM57.5062 4.41852H59.0902C59.4422 4.44073 59.7895 4.32703 60.0635 4.09992C60.1872 3.97422 60.2828 3.82252 60.3436 3.65531C60.4044 3.4881 60.4289 3.30938 60.4155 3.13152C60.4155 2.25552 60.0048 1.81692 59.1835 1.81572H57.515L57.5062 4.41852Z" fill="white"/>
<path d="M63.6679 8.86452V0.134521H69.9634V1.81572H65.8028V3.64632H69.4724V5.35452H65.8028V7.18332H69.9634V8.86452H63.6679Z" fill="white"/>
<path d="M42.7873 31.0787C41.9575 31.0856 41.1348 30.9228 40.3673 30.5999C39.6441 30.3024 39.0236 29.7918 38.5845 29.133C38.1398 28.4706 37.9174 27.6456 37.9174 26.658C37.9174 25.218 38.3956 24.0864 39.3518 23.2632C40.3081 22.44 41.7431 22.0296 43.6568 22.032H47.483V21.7062C47.483 20.9958 47.2483 20.487 46.779 20.1798C46.3161 19.8738 45.4449 19.7208 44.1707 19.7208C42.6059 19.7205 41.0507 19.9701 39.5613 20.4606V17.3808C40.3631 17.0704 41.1933 16.8424 42.0393 16.7004C43.0586 16.518 44.0916 16.4282 45.1264 16.4322C47.2524 16.4322 48.9192 16.8774 50.1265 17.7678C51.3339 18.6582 51.9381 20.0712 51.9393 22.0068V30.7799H47.8596L47.6291 29.5938C47.0703 30.1005 46.4093 30.4754 45.6931 30.6917C44.747 30.9709 43.7647 31.1008 42.7803 31.0769L42.7873 31.0787ZM44.2587 28.1411C44.9163 28.1574 45.5693 28.0259 46.1718 27.7559C46.671 27.5312 47.1161 27.1977 47.476 26.7786V24.7986H44.176C42.8032 24.7986 42.1168 25.362 42.1168 26.4888C42.107 26.7192 42.1495 26.9489 42.2411 27.1597C42.3328 27.3705 42.4709 27.5568 42.6448 27.7038C42.9968 28.0008 43.5336 28.1484 44.2675 28.1484" fill="white"/>
<path d="M62.0065 31.0787C59.5507 31.0787 57.6329 30.4661 56.2531 29.2409C54.8732 28.0157 54.1822 26.1887 54.1798 23.7599C54.1798 21.2891 54.8996 19.4507 56.3393 18.2447C57.779 17.0387 59.6968 16.4387 62.0928 16.4447C62.9724 16.4342 63.8511 16.509 64.7169 16.6679C65.4634 16.8143 66.189 17.0562 66.8764 17.3879V20.7665C65.7935 20.2337 64.5274 19.9667 63.0784 19.9655C61.7267 19.9655 60.6977 20.2427 59.9913 20.7971C59.285 21.3515 58.933 22.3397 58.9353 23.7617C58.9353 25.0817 59.2639 26.0453 59.9209 26.6525C60.578 27.2597 61.6217 27.5597 63.052 27.5525C64.3878 27.5696 65.7087 27.265 66.9081 26.6633V30.1913C66.19 30.5145 65.4349 30.7437 64.6606 30.8735C63.7836 31.0169 62.8965 31.0861 62.0083 31.0805" fill="white"/>
<path d="M73.568 31.0788C72.7394 31.0848 71.9179 30.922 71.1515 30.6C70.429 30.3019 69.8092 29.7914 69.3704 29.133C68.9257 28.4706 68.7033 27.6456 68.7033 26.658C68.7033 25.218 69.1815 24.0864 70.1377 23.2632C71.094 22.44 72.5307 22.0308 74.4479 22.0356H78.2742V21.7098C78.2742 20.9994 78.0424 20.4906 77.579 20.1834C77.1155 19.8762 76.2455 19.7232 74.9689 19.7244C73.4047 19.7242 71.8501 19.9738 70.3613 20.4642V17.3808C71.1631 17.0701 71.9932 16.8422 72.8393 16.7004C73.8586 16.518 74.8916 16.4282 75.9263 16.4322C78.0524 16.4322 79.7191 16.8774 80.9265 17.7678C82.1338 18.6582 82.7375 20.0712 82.7375 22.0068V30.78H78.6455L78.4132 29.5938C77.8574 30.1 77.1994 30.4749 76.486 30.6918C75.5383 30.9719 74.5542 31.1024 73.568 31.0788ZM75.0463 28.143C75.7039 28.159 76.3569 28.0275 76.9595 27.7578C77.4583 27.5326 77.9033 27.1991 78.2636 26.7804V24.8004H74.9636C73.592 24.8004 72.9062 25.3638 72.9062 26.4906C72.8968 26.721 72.9395 26.9505 73.0311 27.1613C73.1227 27.372 73.2607 27.5583 73.4342 27.7056C73.7862 28.0026 74.323 28.1502 75.0587 28.1502" fill="white"/>
<path d="M91.3141 31.0788C89.98 31.0788 88.8395 30.8616 87.8926 30.4272C86.9428 29.993 86.1714 29.2327 85.712 28.278C85.2086 27.2796 84.9569 25.9404 84.9569 24.2604C84.9569 22.5588 85.2473 21.1308 85.8281 19.9764C86.3555 18.8767 87.1864 17.9593 88.2182 17.3376C89.283 16.7231 90.4895 16.4123 91.7118 16.4376C92.3646 16.4286 93.0157 16.5085 93.6478 16.6752C94.2157 16.8346 94.7581 17.0771 95.2582 17.3952V10.8H99.924V30.78H95.8936L95.6331 29.5938C95.0798 30.084 94.44 30.4616 93.7482 30.7062C92.9626 30.9674 92.14 31.0927 91.3141 31.077V31.0788ZM92.6464 27.6084C93.1292 27.6182 93.6089 27.5287 94.0573 27.3454C94.5056 27.162 94.9134 26.8885 95.2565 26.541V20.8512C94.5982 20.238 93.7576 19.9314 92.7344 19.9314C91.7488 19.9314 90.9996 20.3118 90.4869 21.0726C89.9741 21.8334 89.7183 22.9056 89.7195 24.2892C89.7195 25.6332 89.9659 26.5224 90.4587 26.9568C90.9515 27.3912 91.6807 27.609 92.6464 27.6102" fill="white"/>
<path d="M109.952 31.0787C107.555 31.0787 105.632 30.4709 104.183 29.2553C102.734 28.0397 102.009 26.2079 102.009 23.7599C102.009 21.5267 102.608 19.7477 103.806 18.4229C105.004 17.0981 106.802 16.4381 109.199 16.4429C111.384 16.4429 113.075 17.0165 114.271 18.1637C115.468 19.3109 116.067 20.8523 116.068 22.7879V25.3079H106.329C106.542 26.2367 107.04 26.8841 107.821 27.2501C108.602 27.6161 109.67 27.7961 111.024 27.7901C111.797 27.7882 112.569 27.7183 113.33 27.5813C113.999 27.4734 114.655 27.2923 115.287 27.0413V30.1535C114.54 30.4972 113.75 30.7317 112.939 30.8501C111.949 31.0055 110.949 31.0802 109.947 31.0733L109.952 31.0787ZM106.323 22.5341H112.005V21.9113C112.019 21.6091 111.973 21.3071 111.869 21.024C111.764 20.7409 111.604 20.4829 111.397 20.2661C110.99 19.8617 110.304 19.6595 109.338 19.6595C108.216 19.6595 107.434 19.8917 106.99 20.3561C106.547 20.8205 106.324 21.5465 106.323 22.5341Z" fill="white"/>
<path d="M118.448 30.7799V16.7291H122.767L122.911 17.9747C123.554 17.5084 124.256 17.1342 124.999 16.8623C125.799 16.5711 126.643 16.4255 127.492 16.4321C128.419 16.4321 129.144 16.5755 129.666 16.8623C130.175 17.1369 130.597 17.5531 130.884 18.0629C131.549 17.5744 132.275 17.1807 133.044 16.8929C133.952 16.5681 134.91 16.4121 135.872 16.4321C137.475 16.4321 138.653 16.8575 139.408 17.7083C140.162 18.5591 140.538 19.8563 140.536 21.5999V30.7799H135.926V22.1543C135.926 21.3839 135.767 20.8259 135.448 20.4803C135.129 20.1347 134.612 19.9601 133.897 19.9601C133.448 19.9615 133.004 20.0578 132.593 20.2427C132.182 20.4194 131.816 20.6875 131.519 21.0275C131.557 21.2333 131.581 21.4413 131.592 21.6503C131.602 21.8483 131.607 22.0883 131.607 22.3703V30.7799H127.258V22.0949C127.258 21.3833 127.138 20.8499 126.896 20.4947C126.654 20.1395 126.195 19.9595 125.52 19.9547C125.039 19.9539 124.568 20.0878 124.157 20.3417C123.739 20.5918 123.35 20.8901 122.997 21.2309V30.7709L118.448 30.7799Z" fill="white"/>
<path d="M146.71 35.9999C146.114 36.0063 145.518 35.9715 144.927 35.8955C144.425 35.8245 143.933 35.6903 143.463 35.4959V32.1749C143.759 32.2852 144.065 32.3648 144.376 32.4125C144.66 32.4524 144.946 32.4722 145.232 32.4719C146.024 32.4719 146.618 32.3285 147.015 32.0417C147.411 31.7549 147.812 31.2461 148.217 30.5153L142.043 16.7291H146.942L150.564 25.6535L154.13 16.7291H159L153.754 29.6261C153.287 30.8051 152.705 31.9323 152.015 32.9903C151.436 33.8901 150.672 34.6495 149.776 35.2151C148.929 35.7383 147.907 35.9999 146.71 35.9999Z" fill="white"/>
</svg>
