<svg width="24" height="24" viewBox="0 0 24 24" fill="none" xmlns="http://www.w3.org/2000/svg">
<path fillRule="evenodd" clipRule="evenodd" d="M10.2352 1.63082C10.8577 2.21617 10.7142 3.10965 10.4178 3.79041L10.4173 3.79157C9.96799 4.81849 9.72097 5.94434 9.73013 7.13519L9.73015 7.13786C9.74844 11.5573 13.422 15.3276 17.9208 15.5116C18.585 15.5393 19.2205 15.4932 19.837 15.3829C20.2418 15.3091 20.6358 15.2967 20.9885 15.379C21.3479 15.4628 21.7051 15.6578 21.9264 16.0199C22.1467 16.3805 22.1582 16.7855 22.0737 17.1409C21.9905 17.4911 21.8069 17.8367 21.5646 18.165C19.4404 21.0712 15.9042 22.9114 11.9577 22.7403C6.35695 22.494 1.66975 18.0139 1.28204 12.4741C0.927802 7.56338 3.8423 3.28647 8.07872 1.4999C8.75853 1.21196 9.63602 1.06744 10.2352 1.63082ZM9.17031 2.74633C9.07022 2.74909 8.90207 2.78006 8.66292 2.88146L8.66158 2.88202C4.97825 4.43535 2.47284 8.13805 2.7782 12.3669L2.77833 12.3687C3.11104 17.1283 7.16385 21.0278 12.0226 21.2417M9.17031 2.74633C9.16436 2.83426 9.13423 2.98076 9.04281 3.19085C8.51239 4.40342 8.21952 5.73693 8.23016 7.1454C8.25259 12.3854 12.5787 16.7944 17.8595 17.0103C18.6347 17.0426 19.3793 16.9887 20.1024 16.8592L20.1048 16.8588C20.3442 16.8151 20.5064 16.8171 20.604 16.8316C20.574 16.9277 20.5034 17.077 20.3569 17.2753L20.3546 17.2785C18.5187 19.7913 15.4552 21.3903 12.0226 21.2417M20.6954 16.855C20.6954 16.855 20.6949 16.8547 20.6941 16.8543L20.6954 16.855Z" fill="#00050F"/>
</svg>
