<svg width="645" height="710" viewBox="0 0 645 710" fill="none" xmlns="http://www.w3.org/2000/svg">
   <path d="M572.046 450.054C572.056 475.902 564.599 501.172 550.618 522.669C536.637 544.166 516.761 560.923 493.502 570.822C470.243 580.721 444.647 583.316 419.952 578.28C395.256 573.243 372.57 560.801 354.763 542.528C336.956 524.254 324.828 500.97 319.912 475.619C314.996 450.269 317.514 423.991 327.147 400.11C336.78 376.228 353.095 355.816 374.029 341.455C394.963 327.093 419.576 319.428 444.754 319.428C478.501 319.442 510.863 333.207 534.73 357.699C558.598 382.192 572.019 415.409 572.046 450.054Z" fill="rgba(255, 113, 82, 1)"></path>
   <path d="M159.45 450.05C159.447 513.729 179.577 575.69 216.815 626.617C254.053 677.545 306.387 714.689 365.95 732.465V899.996C263.272 880.867 170.393 825.34 103.514 743.101C36.6345 660.862 0 557.13 0 449.998C0 342.866 36.6345 239.134 103.514 156.895C170.393 74.6556 263.272 19.129 365.95 0V167.687C306.391 185.454 254.059 222.587 216.82 273.506C179.582 324.425 159.45 386.377 159.45 450.05Z" fill="rgba(255, 255, 255, 0.2)"></path>
   <path d="M891.012 450.054V900H731.935V450.054C731.928 386.29 711.735 324.256 674.397 273.298C637.06 222.341 584.601 185.222 524.927 167.535V0.00439453C627.634 19.1157 720.546 74.6403 787.451 156.891C854.356 239.141 891.008 342.897 891.012 450.054Z" fill="rgba(255, 255, 255, 0.2)"></path>
</svg>