<svg width="1015" height="576" viewBox="0 0 1015 576" fill="none" xmlns="http://www.w3.org/2000/svg">
<g opacity="0.5">
<g filter="url(#filter0_d_2990_476)">
<path d="M20.4642 135.508C20.4642 136.16 19.4403 136.729 17.911 137.043C17.5341 137.12 17.1857 137.351 16.9159 137.703C16.6461 138.056 16.4687 138.51 16.4092 139.002C16.1695 141.002 15.7337 142.337 15.2336 142.337C14.7336 142.337 14.2986 141 14.0589 139.003C13.9995 138.511 13.8222 138.056 13.5524 137.704C13.2825 137.352 12.9341 137.12 12.5571 137.043C11.0254 136.729 10 136.161 10 135.508C10 134.855 11.0254 134.283 12.5548 133.972C12.9321 133.895 13.281 133.663 13.5513 133.311C13.8215 132.958 13.9992 132.503 14.0589 132.01C14.2986 130.011 14.7343 128.674 15.2336 128.674C15.733 128.674 16.1695 130.011 16.4092 132.01C16.4688 132.503 16.6464 132.958 16.9165 133.31C17.1866 133.663 17.5353 133.894 17.9125 133.972C19.4411 134.283 20.4642 134.852 20.4642 135.508Z" fill="white"/>
</g>
<g filter="url(#filter1_d_2990_476)">
<path d="M903.848 167.666C903.848 168.402 902.691 169.046 900.961 169.399C900.535 169.487 900.142 169.749 899.837 170.147C899.532 170.545 899.331 171.059 899.264 171.615C898.993 173.876 898.5 175.384 897.936 175.384C897.372 175.384 896.879 173.872 896.607 171.615C896.54 171.059 896.34 170.545 896.035 170.147C895.73 169.749 895.336 169.487 894.91 169.399C893.179 169.046 892.02 168.402 892.02 167.666C892.02 166.929 893.179 166.28 894.908 165.929C895.335 165.842 895.729 165.58 896.034 165.181C896.34 164.783 896.54 164.268 896.607 163.711C896.879 161.451 897.372 159.941 897.936 159.941C898.5 159.941 898.993 161.452 899.264 163.711C899.331 164.268 899.532 164.783 899.837 165.181C900.143 165.58 900.537 165.842 900.964 165.929C902.691 166.28 903.848 166.924 903.848 167.666Z" fill="white"/>
</g>
<g filter="url(#filter2_d_2990_476)">
<path d="M502.978 18.1278C502.978 18.9985 501.61 19.7583 499.566 20.1763C499.063 20.2802 498.598 20.5896 498.237 21.0601C497.877 21.5305 497.64 22.138 497.561 22.7952C497.24 25.4661 496.658 27.2489 495.991 27.2489C495.325 27.2489 494.743 25.462 494.421 22.7952C494.342 22.1379 494.105 21.5303 493.745 21.0598C493.384 20.5893 492.919 20.28 492.415 20.1763C490.37 19.7583 489 18.9985 489 18.1278C489 17.257 490.37 16.4905 492.413 16.0752C492.917 15.9722 493.383 15.6629 493.744 15.1921C494.105 14.7212 494.342 14.113 494.421 13.455C494.743 10.7841 495.325 9 495.991 9C496.658 9 497.24 10.7855 497.561 13.455C497.64 14.1131 497.877 14.7214 498.238 15.1922C498.599 15.6631 499.065 15.9722 499.57 16.0752C501.61 16.4905 502.978 17.2517 502.978 18.1278Z" fill="white"/>
</g>
<path d="M359.447 575.696C360.683 575.696 361.686 574.387 361.686 572.774C361.686 571.16 360.683 569.852 359.447 569.852C358.211 569.852 357.209 571.16 357.209 572.774C357.209 574.387 358.211 575.696 359.447 575.696Z" fill="white"/>
<path d="M983.729 484.511C984.365 484.511 984.88 483.838 984.88 483.008C984.88 482.178 984.365 481.506 983.729 481.506C983.093 481.506 982.578 482.178 982.578 483.008C982.578 483.838 983.093 484.511 983.729 484.511Z" fill="white"/>
<path d="M608.93 400.313C609.566 400.313 610.081 399.641 610.081 398.811C610.081 397.981 609.566 397.309 608.93 397.309C608.295 397.309 607.779 397.981 607.779 398.811C607.779 399.641 608.295 400.313 608.93 400.313Z" fill="white"/>
<path d="M182.397 359.063C183.033 359.063 183.548 358.391 183.548 357.561C183.548 356.731 183.033 356.059 182.397 356.059C181.761 356.059 181.246 356.731 181.246 357.561C181.246 358.391 181.761 359.063 182.397 359.063Z" fill="white"/>
<path opacity="0.6" d="M359.446 214.919C360.081 214.919 360.597 214.246 360.597 213.416C360.597 212.587 360.081 211.914 359.446 211.914C358.81 211.914 358.295 212.587 358.295 213.416C358.295 214.246 358.81 214.919 359.446 214.919Z" fill="white"/>
<path d="M1012.85 270.63C1013.49 270.63 1014 269.957 1014 269.127C1014 268.298 1013.49 267.625 1012.85 267.625C1012.21 267.625 1011.7 268.298 1011.7 269.127C1011.7 269.957 1012.21 270.63 1012.85 270.63Z" fill="white"/>
</g>
<defs>
<filter id="filter0_d_2990_476" x="0" y="119.674" width="30.4648" height="33.6631" filterUnits="userSpaceOnUse" color-interpolation-filters="sRGB">
<feFlood flood-opacity="0" result="BackgroundImageFix"/>
<feColorMatrix in="SourceAlpha" type="matrix" values="0 0 0 0 0 0 0 0 0 0 0 0 0 0 0 0 0 0 127 0" result="hardAlpha"/>
<feOffset dy="1"/>
<feGaussianBlur stdDeviation="5"/>
<feComposite in2="hardAlpha" operator="out"/>
<feColorMatrix type="matrix" values="0 0 0 0 1 0 0 0 0 1 0 0 0 0 1 0 0 0 0.4 0"/>
<feBlend mode="normal" in2="BackgroundImageFix" result="effect1_dropShadow_2990_476"/>
<feBlend mode="normal" in="SourceGraphic" in2="effect1_dropShadow_2990_476" result="shape"/>
</filter>
<filter id="filter1_d_2990_476" x="882.02" y="150.941" width="31.8281" height="35.4424" filterUnits="userSpaceOnUse" color-interpolation-filters="sRGB">
<feFlood flood-opacity="0" result="BackgroundImageFix"/>
<feColorMatrix in="SourceAlpha" type="matrix" values="0 0 0 0 0 0 0 0 0 0 0 0 0 0 0 0 0 0 127 0" result="hardAlpha"/>
<feOffset dy="1"/>
<feGaussianBlur stdDeviation="5"/>
<feComposite in2="hardAlpha" operator="out"/>
<feColorMatrix type="matrix" values="0 0 0 0 1 0 0 0 0 1 0 0 0 0 1 0 0 0 0.4 0"/>
<feBlend mode="normal" in2="BackgroundImageFix" result="effect1_dropShadow_2990_476"/>
<feBlend mode="normal" in="SourceGraphic" in2="effect1_dropShadow_2990_476" result="shape"/>
</filter>
<filter id="filter2_d_2990_476" x="479" y="0" width="33.9785" height="38.249" filterUnits="userSpaceOnUse" color-interpolation-filters="sRGB">
<feFlood flood-opacity="0" result="BackgroundImageFix"/>
<feColorMatrix in="SourceAlpha" type="matrix" values="0 0 0 0 0 0 0 0 0 0 0 0 0 0 0 0 0 0 127 0" result="hardAlpha"/>
<feOffset dy="1"/>
<feGaussianBlur stdDeviation="5"/>
<feComposite in2="hardAlpha" operator="out"/>
<feColorMatrix type="matrix" values="0 0 0 0 1 0 0 0 0 1 0 0 0 0 1 0 0 0 0.4 0"/>
<feBlend mode="normal" in2="BackgroundImageFix" result="effect1_dropShadow_2990_476"/>
<feBlend mode="normal" in="SourceGraphic" in2="effect1_dropShadow_2990_476" result="shape"/>
</filter>
</defs>
</svg>
