<svg width="683" height="401" viewBox="0 0 683 401" fill="none" xmlns="http://www.w3.org/2000/svg">
<path opacity="0.6" d="M14.1833 20.8535C13.4534 24.4892 12.8597 25.1249 9.49023 25.9214C12.8597 26.7103 13.4534 27.3535 14.1833 30.9992C14.9133 27.3535 15.507 26.7103 18.8764 25.9214C15.507 25.1249 14.903 24.4892 14.1833 20.8535Z" fill="white"/>
<path d="M20.4285 22.8794C22.076 14.6658 23.4099 13.2211 30.9995 11.4397C23.4099 9.65829 22.076 8.21357 20.4285 0C18.781 8.21357 17.4471 9.65829 9.85742 11.4397C17.4471 13.2211 18.781 14.6658 20.4285 22.8794Z" fill="white"/>
<path d="M2.71183 20.6664C3.13539 18.4679 3.47765 18.0814 5.42498 17.604C3.47765 17.128 3.13539 16.7401 2.71183 14.543C2.28958 16.7401 1.94733 17.128 0 17.604C1.94733 18.0814 2.28958 18.4679 2.71183 20.6664Z" fill="white"/>
<path d="M673.5 401C674.981 393.461 676.179 392.135 683 390.5C676.179 388.865 674.981 387.539 673.5 380C672.019 387.539 670.821 388.865 664 390.5C670.821 392.135 672.019 393.461 673.5 401Z" fill="white"/>
<path d="M95 373C96.7143 364.384 98.1024 362.869 106 361C98.1024 359.131 96.7143 357.616 95 349C93.2857 357.616 91.8976 359.131 84 361C91.8976 362.869 93.2857 364.384 95 373Z" fill="#0500FF"/>
<path d="M536 89C537.403 81.8201 538.538 80.5572 545 79C538.538 77.4428 537.403 76.1799 536 69C534.597 76.1799 533.462 77.4428 527 79C533.462 80.5572 534.597 81.8201 536 89Z" fill="#588FFA"/>
</svg>
