<svg width="1378" height="1061" viewBox="0 0 1378 1061" fill="none" xmlns="http://www.w3.org/2000/svg">
<g style="mix-blend-mode:color-dodge">
<path d="M121.343 157.91C121.28 158.037 121.259 158.181 121.283 158.321C121.306 158.461 121.372 158.59 121.473 158.69C121.573 158.79 121.702 158.857 121.842 158.88C121.982 158.903 122.126 158.882 122.253 158.82C122.383 158.764 122.487 158.66 122.543 158.53C122.609 158.403 122.633 158.258 122.61 158.117C122.588 157.975 122.521 157.845 122.42 157.744C122.318 157.644 122.187 157.578 122.045 157.558C121.904 157.537 121.759 157.562 121.633 157.63C121.507 157.687 121.405 157.786 121.343 157.91V157.91Z" fill="white" fill-opacity="0.5"/>
<path d="M135.693 150.731C135.63 150.858 135.609 151.002 135.632 151.142C135.655 151.282 135.722 151.411 135.822 151.511C135.923 151.611 136.052 151.678 136.192 151.701C136.332 151.724 136.475 151.703 136.603 151.641C136.731 151.582 136.834 151.479 136.893 151.351C136.955 151.223 136.976 151.08 136.953 150.94C136.93 150.8 136.863 150.671 136.763 150.57C136.663 150.47 136.533 150.404 136.394 150.38C136.254 150.357 136.11 150.378 135.983 150.441C135.856 150.502 135.754 150.604 135.693 150.731V150.731Z" fill="white" fill-opacity="0.5"/>
<path d="M132.181 143.989C132.427 143.743 132.411 143.328 132.145 143.063C131.88 142.797 131.465 142.781 131.219 143.027C130.973 143.273 130.989 143.688 131.254 143.953C131.52 144.219 131.935 144.235 132.181 143.989Z" fill="white" fill-opacity="0.5"/>
<path d="M200.612 158.828C200.55 158.956 200.529 159.099 200.552 159.239C200.575 159.379 200.642 159.508 200.742 159.609C200.842 159.709 200.972 159.775 201.112 159.799C201.251 159.822 201.395 159.801 201.522 159.738C201.651 159.68 201.754 159.577 201.812 159.448C201.875 159.321 201.896 159.177 201.873 159.037C201.85 158.897 201.783 158.768 201.683 158.668C201.583 158.568 201.453 158.501 201.313 158.478C201.174 158.455 201.03 158.476 200.902 158.538C200.776 158.6 200.674 158.702 200.612 158.828V158.828Z" fill="white" fill-opacity="0.5"/>
<path d="M472.335 472.369C472.273 472.497 472.252 472.64 472.275 472.78C472.298 472.92 472.364 473.049 472.465 473.15C472.565 473.25 472.694 473.316 472.834 473.34C472.974 473.363 473.118 473.342 473.245 473.279C473.374 473.221 473.477 473.118 473.535 472.989C473.598 472.862 473.619 472.718 473.595 472.578C473.572 472.438 473.506 472.309 473.405 472.209C473.305 472.109 473.176 472.042 473.036 472.019C472.896 471.996 472.752 472.017 472.625 472.079C472.499 472.141 472.397 472.243 472.335 472.369V472.369Z" fill="white" fill-opacity="0.5"/>
<path d="M206.273 192.799C206.21 192.927 206.189 193.071 206.212 193.21C206.236 193.35 206.302 193.48 206.402 193.58C206.503 193.68 206.632 193.747 206.772 193.77C206.912 193.793 207.055 193.772 207.183 193.709C207.313 193.654 207.417 193.55 207.473 193.419C207.531 193.264 207.531 193.092 207.471 192.936C207.411 192.78 207.296 192.652 207.148 192.576C207 192.499 206.829 192.48 206.668 192.521C206.507 192.562 206.366 192.661 206.273 192.799Z" fill="white" fill-opacity="0.5"/>
<path d="M207.413 215.239C207.351 215.367 207.33 215.51 207.353 215.65C207.376 215.79 207.443 215.919 207.543 216.02C207.643 216.12 207.772 216.186 207.912 216.21C208.052 216.233 208.196 216.212 208.323 216.149C208.454 216.094 208.558 215.99 208.613 215.859C208.667 215.78 208.703 215.69 208.72 215.595C208.736 215.501 208.732 215.404 208.709 215.311C208.685 215.218 208.642 215.131 208.582 215.056C208.522 214.98 208.447 214.919 208.362 214.875C208.277 214.831 208.183 214.805 208.087 214.8C207.991 214.795 207.895 214.81 207.806 214.844C207.716 214.879 207.635 214.932 207.567 215C207.5 215.068 207.447 215.149 207.413 215.239V215.239Z" fill="white" fill-opacity="0.5"/>
<path d="M230.132 203.891C230.07 204.018 230.048 204.162 230.072 204.302C230.095 204.442 230.161 204.571 230.262 204.671C230.362 204.771 230.491 204.838 230.631 204.861C230.771 204.884 230.915 204.863 231.042 204.801C231.168 204.739 231.27 204.637 231.332 204.511C231.395 204.383 231.416 204.24 231.392 204.1C231.369 203.96 231.303 203.831 231.202 203.73C231.102 203.63 230.973 203.564 230.833 203.54C230.693 203.517 230.549 203.538 230.422 203.601C230.296 203.662 230.194 203.764 230.132 203.891V203.891Z" fill="white" fill-opacity="0.5"/>
<path d="M492.202 637.824C492.14 637.952 492.119 638.095 492.142 638.235C492.165 638.375 492.232 638.504 492.332 638.605C492.432 638.705 492.561 638.771 492.701 638.795C492.841 638.818 492.985 638.797 493.112 638.734C493.239 638.673 493.341 638.571 493.402 638.444C493.465 638.317 493.486 638.173 493.463 638.033C493.439 637.893 493.373 637.764 493.273 637.664C493.172 637.564 493.043 637.497 492.903 637.474C492.763 637.451 492.62 637.472 492.492 637.534C492.366 637.596 492.264 637.698 492.202 637.824V637.824Z" fill="white" fill-opacity="0.5"/>
<path d="M262.583 115.481C262.521 115.608 262.5 115.752 262.523 115.892C262.546 116.032 262.613 116.161 262.713 116.261C262.813 116.361 262.942 116.428 263.082 116.451C263.222 116.474 263.366 116.453 263.493 116.391C263.619 116.331 263.718 116.228 263.773 116.101C263.836 115.973 263.857 115.83 263.834 115.69C263.81 115.55 263.744 115.421 263.644 115.32C263.543 115.22 263.414 115.154 263.274 115.13C263.134 115.107 262.991 115.128 262.863 115.191C262.738 115.25 262.638 115.353 262.583 115.481V115.481Z" fill="white" fill-opacity="0.5"/>
<path d="M266.493 99.3595C266.431 99.4869 266.41 99.6306 266.433 99.7705C266.456 99.9104 266.523 100.04 266.623 100.14C266.723 100.24 266.852 100.307 266.992 100.33C267.132 100.353 267.276 100.332 267.403 100.27C267.532 100.211 267.635 100.108 267.693 99.9795C267.756 99.8522 267.777 99.7085 267.754 99.5686C267.73 99.4286 267.664 99.2995 267.564 99.1992C267.463 99.0989 267.334 99.0324 267.194 99.0092C267.054 98.986 266.911 99.007 266.783 99.0695C266.655 99.1276 266.551 99.2308 266.493 99.3595V99.3595Z" fill="white" fill-opacity="0.5"/>
<path d="M553.421 855.494C553.359 855.621 553.338 855.765 553.361 855.905C553.384 856.045 553.45 856.174 553.551 856.274C553.651 856.374 553.78 856.441 553.92 856.464C554.06 856.487 554.204 856.466 554.331 856.404C554.462 856.348 554.565 856.244 554.621 856.114C554.687 855.987 554.711 855.842 554.688 855.701C554.666 855.559 554.599 855.429 554.498 855.328C554.396 855.228 554.265 855.162 554.123 855.142C553.982 855.121 553.837 855.146 553.711 855.214C553.585 855.271 553.483 855.37 553.421 855.494V855.494Z" fill="white" fill-opacity="0.5"/>
<path d="M824.88 961.45C824.818 961.578 824.796 961.721 824.82 961.861C824.843 962.001 824.909 962.13 825.01 962.231C825.11 962.331 825.239 962.397 825.379 962.421C825.519 962.444 825.663 962.423 825.79 962.36C825.921 962.305 826.024 962.201 826.08 962.07C826.134 961.991 826.17 961.901 826.186 961.806C826.203 961.712 826.199 961.615 826.175 961.522C826.152 961.428 826.108 961.342 826.049 961.266C825.989 961.191 825.914 961.13 825.829 961.086C825.743 961.042 825.65 961.016 825.554 961.011C825.458 961.006 825.362 961.021 825.272 961.055C825.183 961.089 825.102 961.143 825.034 961.211C824.966 961.279 824.914 961.36 824.88 961.45V961.45Z" fill="white" fill-opacity="0.5"/>
<path d="M698.571 796.943C698.509 797.071 698.488 797.215 698.511 797.354C698.534 797.494 698.601 797.624 698.701 797.724C698.801 797.824 698.931 797.891 699.071 797.914C699.21 797.937 699.354 797.916 699.481 797.853C699.61 797.795 699.713 797.692 699.771 797.563C699.834 797.436 699.855 797.292 699.832 797.153C699.809 797.013 699.742 796.883 699.642 796.783C699.542 796.683 699.412 796.616 699.272 796.593C699.133 796.57 698.989 796.591 698.861 796.653C698.733 796.712 698.63 796.815 698.571 796.943V796.943Z" fill="white" fill-opacity="0.5"/>
<path d="M0.0695146 604.126C0.00703641 604.254 -0.0140515 604.398 0.00919663 604.537C0.0324448 604.677 0.0988685 604.807 0.199169 604.907C0.299469 605.007 0.428626 605.074 0.568553 605.097C0.708481 605.12 0.852174 605.099 0.979518 605.036C1.10996 604.981 1.21386 604.877 1.26953 604.747C1.33548 604.62 1.35907 604.475 1.33686 604.334C1.31466 604.192 1.24783 604.062 1.14613 603.961C1.04443 603.861 0.913215 603.795 0.771678 603.775C0.630142 603.754 0.48571 603.779 0.359523 603.846C0.233919 603.904 0.131658 604.003 0.0695146 604.126V604.126Z" fill="white" fill-opacity="0.3"/>
<path d="M32.2316 584.84C32.1692 584.967 32.1481 585.111 32.1713 585.251C32.1946 585.391 32.261 585.52 32.3613 585.62C32.4616 585.721 32.5907 585.787 32.7307 585.81C32.8706 585.834 33.0143 585.812 33.1416 585.75C33.2704 585.692 33.3735 585.589 33.4316 585.46C33.4941 585.333 33.5152 585.189 33.492 585.049C33.4687 584.909 33.4023 584.78 33.302 584.68C33.2017 584.579 33.0725 584.513 32.9326 584.49C32.7927 584.466 32.649 584.487 32.5216 584.55C32.3953 584.612 32.2933 584.714 32.2316 584.84V584.84Z" fill="white" fill-opacity="0.3"/>
<path d="M22.1884 562.301C22.4344 562.055 22.4186 561.641 22.153 561.375C21.8875 561.109 21.4728 561.094 21.2267 561.34C20.9807 561.586 20.9965 562 21.2621 562.266C21.5276 562.532 21.9423 562.547 22.1884 562.301Z" fill="white" fill-opacity="0.3"/>
<path d="M94.7766 527.492C94.7141 527.62 94.693 527.763 94.7162 527.903C94.7395 528.043 94.8059 528.172 94.9062 528.273C95.0065 528.373 95.1357 528.439 95.2756 528.463C95.4155 528.486 95.5592 528.465 95.6865 528.402C95.8153 528.344 95.9184 528.241 95.9765 528.112C96.039 527.985 96.0601 527.841 96.0369 527.701C96.0136 527.561 95.9472 527.432 95.8469 527.332C95.7466 527.232 95.6174 527.165 95.4775 527.142C95.3376 527.119 95.1939 527.14 95.0665 527.202C94.9402 527.264 94.8382 527.366 94.7766 527.492V527.492Z" fill="white" fill-opacity="0.3"/>
<path d="M120.03 605.405C119.968 605.532 119.947 605.676 119.97 605.816C119.993 605.956 120.06 606.085 120.16 606.185C120.26 606.286 120.39 606.352 120.529 606.375C120.669 606.399 120.813 606.377 120.94 606.315C121.071 606.259 121.175 606.155 121.23 606.025C121.289 605.869 121.289 605.697 121.229 605.541C121.169 605.386 121.054 605.258 120.906 605.181C120.758 605.105 120.587 605.085 120.426 605.127C120.264 605.168 120.124 605.267 120.03 605.405Z" fill="white" fill-opacity="0.3"/>
<path d="M54.0773 714.894C54.0149 715.021 53.9938 715.165 54.017 715.305C54.0403 715.445 54.1067 715.574 54.207 715.674C54.3073 715.774 54.4364 715.841 54.5764 715.864C54.7163 715.887 54.86 715.866 54.9873 715.804C55.1178 715.748 55.2217 715.644 55.2774 715.514C55.3311 715.434 55.3673 715.344 55.3837 715.249C55.4002 715.155 55.3964 715.058 55.3726 714.965C55.3489 714.872 55.3057 714.785 55.2459 714.71C55.1862 714.635 55.1112 714.573 55.0259 714.529C54.9406 714.485 54.847 714.459 54.7511 714.454C54.6553 714.449 54.5594 714.464 54.4698 714.498C54.3802 714.533 54.2989 714.586 54.2312 714.654C54.1636 714.722 54.1111 714.804 54.0773 714.894V714.894Z" fill="white" fill-opacity="0.3"/>
<path d="M158.734 650.699C158.671 650.827 158.65 650.97 158.673 651.11C158.697 651.25 158.763 651.379 158.863 651.48C158.964 651.58 159.093 651.646 159.233 651.67C159.373 651.693 159.516 651.672 159.644 651.609C159.77 651.548 159.872 651.446 159.934 651.319C159.996 651.192 160.017 651.048 159.994 650.908C159.971 650.768 159.904 650.639 159.804 650.539C159.704 650.439 159.574 650.372 159.435 650.349C159.295 650.326 159.151 650.347 159.024 650.409C158.897 650.471 158.795 650.573 158.734 650.699V650.699Z" fill="white" fill-opacity="0.3"/>
<path d="M216.714 570.008C216.652 570.135 216.63 570.279 216.654 570.419C216.677 570.559 216.743 570.688 216.844 570.788C216.944 570.889 217.073 570.955 217.213 570.978C217.353 571.002 217.497 570.98 217.624 570.918C217.75 570.859 217.849 570.755 217.904 570.628C217.967 570.501 217.988 570.357 217.964 570.217C217.941 570.077 217.875 569.948 217.774 569.848C217.674 569.747 217.545 569.681 217.405 569.658C217.265 569.634 217.121 569.655 216.994 569.718C216.869 569.777 216.769 569.88 216.714 570.008V570.008Z" fill="white" fill-opacity="0.3"/>
<path d="M160.073 584.17C160.011 584.297 159.99 584.441 160.013 584.581C160.036 584.721 160.103 584.85 160.203 584.95C160.303 585.051 160.433 585.117 160.572 585.14C160.712 585.164 160.856 585.143 160.983 585.08C161.112 585.022 161.215 584.919 161.273 584.79C161.336 584.663 161.357 584.519 161.334 584.379C161.311 584.239 161.244 584.11 161.144 584.01C161.043 583.909 160.914 583.843 160.774 583.82C160.634 583.796 160.491 583.818 160.363 583.88C160.235 583.938 160.132 584.041 160.073 584.17V584.17Z" fill="white" fill-opacity="0.3"/>
<path d="M1072.64 631.566C1072.58 631.693 1072.55 631.837 1072.58 631.977C1072.6 632.117 1072.67 632.246 1072.77 632.346C1072.87 632.447 1073 632.513 1073.14 632.536C1073.28 632.56 1073.42 632.538 1073.55 632.476C1073.68 632.42 1073.78 632.316 1073.84 632.186C1073.9 632.059 1073.93 631.914 1073.91 631.773C1073.88 631.632 1073.82 631.501 1073.71 631.401C1073.61 631.3 1073.48 631.235 1073.34 631.214C1073.2 631.193 1073.05 631.219 1072.93 631.286C1072.8 631.344 1072.7 631.442 1072.64 631.566V631.566Z" fill="white" fill-opacity="0.3"/>
<path d="M1086.99 624.387C1086.93 624.514 1086.9 624.658 1086.93 624.798C1086.95 624.938 1087.02 625.067 1087.12 625.167C1087.22 625.268 1087.35 625.334 1087.49 625.357C1087.63 625.38 1087.77 625.359 1087.9 625.297C1088.03 625.239 1088.13 625.136 1088.19 625.007C1088.25 624.88 1088.27 624.736 1088.25 624.596C1088.22 624.456 1088.16 624.327 1088.06 624.227C1087.96 624.126 1087.83 624.06 1087.69 624.037C1087.55 624.013 1087.4 624.034 1087.28 624.097C1087.15 624.158 1087.05 624.261 1086.99 624.387V624.387Z" fill="white" fill-opacity="0.3"/>
<path d="M1083.48 617.645C1083.72 617.399 1083.71 616.984 1083.44 616.719C1083.18 616.453 1082.76 616.437 1082.52 616.683C1082.27 616.929 1082.29 617.344 1082.55 617.61C1082.82 617.875 1083.23 617.891 1083.48 617.645Z" fill="white" fill-opacity="0.3"/>
<path d="M1151.91 632.485C1151.84 632.612 1151.82 632.756 1151.85 632.895C1151.87 633.035 1151.94 633.165 1152.04 633.265C1152.14 633.365 1152.27 633.432 1152.41 633.455C1152.55 633.478 1152.69 633.457 1152.82 633.395C1152.95 633.336 1153.05 633.233 1153.11 633.105C1153.17 632.977 1153.19 632.833 1153.17 632.694C1153.14 632.554 1153.08 632.424 1152.98 632.324C1152.88 632.224 1152.75 632.157 1152.61 632.134C1152.47 632.111 1152.32 632.132 1152.2 632.195C1152.07 632.256 1151.97 632.358 1151.91 632.485V632.485Z" fill="white" fill-opacity="0.3"/>
<path d="M1157.57 666.456C1157.51 666.583 1157.48 666.727 1157.51 666.867C1157.53 667.007 1157.6 667.136 1157.7 667.236C1157.8 667.336 1157.93 667.403 1158.07 667.426C1158.21 667.449 1158.35 667.428 1158.48 667.366C1158.61 667.31 1158.71 667.206 1158.77 667.076C1158.83 666.92 1158.83 666.748 1158.77 666.592C1158.71 666.437 1158.59 666.309 1158.44 666.232C1158.3 666.156 1158.12 666.136 1157.96 666.177C1157.8 666.219 1157.66 666.318 1157.57 666.456Z" fill="white" fill-opacity="0.3"/>
<path d="M1158.71 688.896C1158.65 689.023 1158.62 689.167 1158.65 689.307C1158.67 689.446 1158.74 689.576 1158.84 689.676C1158.94 689.776 1159.07 689.843 1159.21 689.866C1159.35 689.889 1159.49 689.868 1159.62 689.806C1159.75 689.75 1159.85 689.646 1159.91 689.516C1159.96 689.436 1160 689.346 1160.01 689.251C1160.03 689.157 1160.03 689.06 1160 688.967C1159.98 688.874 1159.94 688.787 1159.88 688.712C1159.82 688.637 1159.74 688.575 1159.66 688.531C1159.57 688.487 1159.48 688.461 1159.38 688.456C1159.29 688.451 1159.19 688.466 1159.1 688.5C1159.01 688.535 1158.93 688.588 1158.86 688.656C1158.79 688.724 1158.74 688.806 1158.71 688.896V688.896Z" fill="white" fill-opacity="0.3"/>
<path d="M1181.43 677.547C1181.37 677.674 1181.35 677.818 1181.37 677.958C1181.39 678.098 1181.46 678.227 1181.56 678.327C1181.66 678.428 1181.79 678.494 1181.93 678.517C1182.07 678.541 1182.21 678.519 1182.34 678.457C1182.47 678.395 1182.57 678.293 1182.63 678.167C1182.69 678.04 1182.71 677.896 1182.69 677.756C1182.67 677.616 1182.6 677.487 1182.5 677.387C1182.4 677.286 1182.27 677.22 1182.13 677.197C1181.99 677.173 1181.85 677.195 1181.72 677.257C1181.59 677.319 1181.49 677.421 1181.43 677.547V677.547Z" fill="white" fill-opacity="0.3"/>
<path d="M1213.88 589.137C1213.82 589.264 1213.79 589.408 1213.82 589.548C1213.84 589.688 1213.91 589.817 1214.01 589.917C1214.11 590.018 1214.24 590.084 1214.38 590.107C1214.52 590.13 1214.66 590.109 1214.79 590.047C1214.91 589.988 1215.01 589.884 1215.07 589.757C1215.13 589.63 1215.15 589.486 1215.13 589.346C1215.11 589.206 1215.04 589.077 1214.94 588.977C1214.84 588.876 1214.71 588.81 1214.57 588.787C1214.43 588.763 1214.29 588.784 1214.16 588.847C1214.03 588.906 1213.93 589.009 1213.88 589.137V589.137Z" fill="white" fill-opacity="0.3"/>
<path d="M1217.79 573.016C1217.73 573.143 1217.7 573.287 1217.73 573.427C1217.75 573.567 1217.82 573.696 1217.92 573.796C1218.02 573.896 1218.15 573.963 1218.29 573.986C1218.43 574.009 1218.57 573.988 1218.7 573.926C1218.83 573.868 1218.93 573.765 1218.99 573.636C1219.05 573.508 1219.07 573.365 1219.05 573.225C1219.03 573.085 1218.96 572.956 1218.86 572.855C1218.76 572.755 1218.63 572.689 1218.49 572.665C1218.35 572.642 1218.21 572.663 1218.08 572.726C1217.95 572.784 1217.85 572.887 1217.79 573.016V573.016Z" fill="white" fill-opacity="0.3"/>
<path d="M704.034 158.168C704.096 158.041 704.118 157.897 704.094 157.757C704.071 157.618 704.005 157.488 703.904 157.388C703.804 157.288 703.675 157.221 703.535 157.198C703.395 157.175 703.251 157.196 703.124 157.258C702.994 157.314 702.89 157.418 702.834 157.548C702.768 157.675 702.744 157.82 702.767 157.961C702.789 158.103 702.856 158.233 702.957 158.334C703.059 158.434 703.19 158.5 703.332 158.52C703.473 158.541 703.618 158.516 703.744 158.448C703.87 158.391 703.972 158.292 704.034 158.168V158.168Z" fill="white" fill-opacity="0.3"/>
<path d="M689.684 165.349C689.747 165.222 689.768 165.078 689.745 164.938C689.721 164.799 689.655 164.669 689.555 164.569C689.454 164.469 689.325 164.402 689.185 164.379C689.045 164.356 688.902 164.377 688.774 164.439C688.646 164.498 688.542 164.601 688.484 164.729C688.422 164.857 688.401 165.001 688.424 165.14C688.447 165.28 688.514 165.41 688.614 165.51C688.714 165.61 688.843 165.677 688.983 165.7C689.123 165.723 689.267 165.702 689.394 165.639C689.521 165.578 689.623 165.476 689.684 165.349V165.349Z" fill="white" fill-opacity="0.3"/>
<path d="M693.194 172.089C692.948 172.335 692.964 172.75 693.23 173.016C693.495 173.281 693.91 173.297 694.156 173.051C694.402 172.805 694.386 172.39 694.121 172.125C693.855 171.859 693.44 171.843 693.194 172.089Z" fill="white" fill-opacity="0.3"/>
<path d="M624.764 157.25C624.827 157.123 624.848 156.979 624.825 156.839C624.802 156.699 624.735 156.57 624.635 156.47C624.535 156.369 624.405 156.303 624.265 156.28C624.126 156.256 623.982 156.277 623.854 156.34C623.726 156.398 623.623 156.501 623.564 156.63C623.502 156.757 623.481 156.901 623.504 157.041C623.527 157.181 623.594 157.31 623.694 157.41C623.794 157.511 623.924 157.577 624.063 157.6C624.203 157.623 624.347 157.602 624.474 157.54C624.601 157.478 624.703 157.376 624.764 157.25V157.25Z" fill="white" fill-opacity="0.3"/>
<path d="M619.104 123.279C619.167 123.151 619.188 123.008 619.165 122.868C619.141 122.728 619.075 122.599 618.975 122.498C618.874 122.398 618.745 122.332 618.605 122.308C618.465 122.285 618.322 122.306 618.194 122.369C618.064 122.424 617.96 122.528 617.904 122.659C617.846 122.815 617.846 122.987 617.906 123.142C617.966 123.298 618.081 123.426 618.229 123.502C618.377 123.579 618.548 123.598 618.709 123.557C618.87 123.516 619.011 123.417 619.104 123.279Z" fill="white" fill-opacity="0.3"/>
<path d="M617.964 100.839C618.026 100.711 618.047 100.568 618.024 100.428C618.001 100.288 617.934 100.159 617.834 100.058C617.734 99.9582 617.605 99.8917 617.465 99.8685C617.325 99.8452 617.181 99.8663 617.054 99.9288C616.923 99.9844 616.819 100.088 616.764 100.219C616.71 100.298 616.674 100.388 616.657 100.483C616.641 100.578 616.645 100.675 616.668 100.768C616.692 100.861 616.735 100.947 616.795 101.023C616.855 101.098 616.93 101.159 617.015 101.203C617.1 101.248 617.194 101.273 617.29 101.278C617.386 101.284 617.482 101.268 617.571 101.234C617.661 101.2 617.742 101.147 617.81 101.078C617.877 101.01 617.93 100.929 617.964 100.839V100.839Z" fill="white" fill-opacity="0.3"/>
<path d="M595.243 112.189C595.305 112.062 595.327 111.918 595.303 111.778C595.28 111.638 595.214 111.509 595.113 111.409C595.013 111.309 594.884 111.242 594.744 111.219C594.604 111.196 594.46 111.217 594.333 111.279C594.207 111.341 594.105 111.443 594.043 111.569C593.98 111.697 593.959 111.84 593.983 111.98C594.006 112.12 594.072 112.249 594.173 112.35C594.273 112.45 594.402 112.516 594.542 112.54C594.682 112.563 594.826 112.542 594.953 112.479C595.079 112.418 595.181 112.316 595.243 112.189V112.189Z" fill="white" fill-opacity="0.3"/>
<path d="M562.794 200.599C562.856 200.472 562.877 200.328 562.854 200.188C562.831 200.049 562.764 199.919 562.664 199.819C562.564 199.719 562.435 199.652 562.295 199.629C562.155 199.606 562.011 199.627 561.884 199.689C561.758 199.749 561.659 199.852 561.604 199.979C561.541 200.107 561.52 200.251 561.543 200.39C561.567 200.53 561.633 200.66 561.733 200.76C561.834 200.86 561.963 200.927 562.103 200.95C562.243 200.973 562.386 200.952 562.514 200.889C562.639 200.83 562.739 200.727 562.794 200.599V200.599Z" fill="white" fill-opacity="0.3"/>
<path d="M558.884 216.719C558.946 216.591 558.967 216.448 558.944 216.308C558.921 216.168 558.854 216.039 558.754 215.938C558.654 215.838 558.524 215.772 558.385 215.748C558.245 215.725 558.101 215.746 557.974 215.809C557.845 215.867 557.742 215.97 557.684 216.099C557.621 216.226 557.6 216.37 557.623 216.51C557.647 216.649 557.713 216.779 557.813 216.879C557.914 216.979 558.043 217.046 558.183 217.069C558.323 217.092 558.466 217.071 558.594 217.009C558.722 216.95 558.825 216.847 558.884 216.719V216.719Z" fill="white" fill-opacity="0.3"/>
<path d="M807.222 494.415C807.284 494.287 807.305 494.143 807.282 494.004C807.259 493.864 807.192 493.734 807.092 493.634C806.992 493.534 806.862 493.467 806.722 493.444C806.583 493.421 806.439 493.442 806.311 493.505C806.181 493.56 806.077 493.664 806.021 493.794C805.956 493.921 805.932 494.066 805.954 494.207C805.976 494.349 806.043 494.479 806.145 494.58C806.247 494.68 806.378 494.746 806.519 494.766C806.661 494.787 806.805 494.762 806.931 494.695C807.057 494.637 807.159 494.538 807.222 494.415V494.415Z" fill="white" fill-opacity="0.3"/>
<path d="M792.872 501.596C792.934 501.468 792.955 501.325 792.932 501.185C792.909 501.045 792.843 500.916 792.742 500.815C792.642 500.715 792.513 500.648 792.373 500.625C792.233 500.602 792.089 500.623 791.962 500.686C791.833 500.744 791.73 500.847 791.672 500.976C791.609 501.103 791.588 501.247 791.612 501.387C791.635 501.526 791.701 501.656 791.802 501.756C791.902 501.856 792.031 501.923 792.171 501.946C792.311 501.969 792.455 501.948 792.582 501.886C792.708 501.824 792.81 501.722 792.872 501.596V501.596Z" fill="white" fill-opacity="0.3"/>
<path d="M796.382 508.335C796.136 508.581 796.152 508.996 796.417 509.262C796.683 509.527 797.098 509.543 797.344 509.297C797.59 509.051 797.574 508.636 797.308 508.371C797.043 508.105 796.628 508.089 796.382 508.335Z" fill="white" fill-opacity="0.3"/>
<path d="M665.981 536.846C666.044 536.718 666.065 536.575 666.042 536.435C666.018 536.295 665.952 536.166 665.852 536.065C665.751 535.965 665.622 535.898 665.482 535.875C665.342 535.852 665.199 535.873 665.071 535.936C664.946 535.995 664.846 536.098 664.791 536.226C664.729 536.353 664.708 536.497 664.731 536.637C664.754 536.776 664.821 536.906 664.921 537.006C665.021 537.106 665.15 537.173 665.29 537.196C665.43 537.219 665.574 537.198 665.701 537.136C665.827 537.076 665.926 536.973 665.981 536.846V536.846Z" fill="white" fill-opacity="0.3"/>
<path d="M662.071 552.965C662.134 552.837 662.155 552.694 662.131 552.554C662.108 552.414 662.042 552.285 661.941 552.184C661.841 552.084 661.712 552.018 661.572 551.994C661.432 551.971 661.288 551.992 661.161 552.055C661.032 552.113 660.929 552.216 660.871 552.345C660.809 552.472 660.788 552.616 660.811 552.756C660.834 552.896 660.9 553.025 661.001 553.125C661.101 553.225 661.23 553.292 661.37 553.315C661.51 553.338 661.654 553.317 661.781 553.255C661.91 553.197 662.013 553.093 662.071 552.965V552.965Z" fill="white" fill-opacity="0.3"/>
<path d="M1107.17 362.93C1107.23 362.803 1107.25 362.659 1107.23 362.519C1107.2 362.379 1107.14 362.25 1107.04 362.15C1106.94 362.049 1106.81 361.983 1106.67 361.96C1106.53 361.937 1106.38 361.958 1106.26 362.02C1106.13 362.076 1106.02 362.18 1105.97 362.31C1105.9 362.437 1105.88 362.582 1105.9 362.723C1105.92 362.864 1105.99 362.995 1106.09 363.095C1106.19 363.196 1106.32 363.261 1106.46 363.282C1106.61 363.303 1106.75 363.277 1106.88 363.21C1107 363.152 1107.1 363.054 1107.17 362.93V362.93Z" fill="white" fill-opacity="0.5"/>
<path d="M998.376 316.951C998.438 316.824 998.459 316.68 998.436 316.54C998.413 316.4 998.346 316.271 998.246 316.171C998.146 316.07 998.017 316.004 997.877 315.981C997.737 315.957 997.593 315.979 997.466 316.041C997.339 316.103 997.237 316.205 997.176 316.331C997.113 316.458 997.092 316.602 997.115 316.742C997.139 316.882 997.205 317.011 997.305 317.111C997.406 317.212 997.535 317.278 997.675 317.301C997.815 317.325 997.958 317.304 998.086 317.241C998.212 317.179 998.314 317.077 998.376 316.951V316.951Z" fill="white" fill-opacity="0.5"/>
<path d="M962.016 421.48C962.079 421.353 962.1 421.209 962.077 421.069C962.053 420.929 961.987 420.8 961.887 420.7C961.786 420.6 961.657 420.533 961.517 420.51C961.377 420.487 961.234 420.508 961.106 420.57C960.978 420.628 960.875 420.732 960.816 420.86C960.754 420.988 960.733 421.131 960.756 421.271C960.779 421.411 960.846 421.54 960.946 421.641C961.046 421.741 961.176 421.807 961.315 421.831C961.455 421.854 961.599 421.833 961.726 421.77C961.855 421.712 961.958 421.609 962.016 421.48V421.48Z" fill="white" fill-opacity="0.5"/>
<path style="mix-blend-mode:color-dodge" d="M521.644 1061C522.274 1061 522.784 1052 522.784 1040.9C522.784 1029.81 522.274 1020.81 521.644 1020.81C521.014 1020.81 520.504 1029.81 520.504 1040.9C520.504 1052 521.044 1061 521.644 1061Z" fill="url(#paint0_radial_9217_2365)"/>
<path style="mix-blend-mode:color-dodge" d="M521.675 1039.79C532.771 1039.79 541.767 1040.3 541.767 1040.93C541.767 1041.56 532.771 1042.07 521.675 1042.07C510.578 1042.07 501.582 1041.56 501.582 1040.93C501.582 1040.3 510.578 1039.79 521.675 1039.79Z" fill="url(#paint1_radial_9217_2365)"/>
<path style="mix-blend-mode:color-dodge" d="M906.86 994.102C907.241 994.102 907.55 999.549 907.55 1006.27C907.55 1012.99 907.241 1018.44 906.86 1018.44C906.479 1018.44 906.17 1012.99 906.17 1006.27C906.17 999.549 906.479 994.102 906.86 994.102Z" fill="url(#paint2_radial_9217_2365)"/>
<path style="mix-blend-mode:color-dodge" d="M894.705 1006.28C894.705 1006.66 900.153 1006.97 906.871 1006.97C913.588 1006.97 919.026 1006.66 919.026 1006.28C919.026 1005.9 913.588 1005.59 906.871 1005.59C900.153 1005.59 894.705 1005.9 894.705 1006.28Z" fill="url(#paint3_radial_9217_2365)"/>
<path style="mix-blend-mode:color-dodge" d="M174.024 49.4219C174.924 49.4219 175.653 62.2997 175.653 78.177C175.653 94.0543 174.924 106.942 174.024 106.942C173.124 106.942 172.395 94.0643 172.395 78.177C172.395 62.2897 173.154 49.4219 174.024 49.4219Z" fill="url(#paint4_radial_9217_2365)"/>
<path style="mix-blend-mode:color-dodge" d="M145.305 78.1476C145.305 77.2476 158.18 76.5176 174.054 76.5176C189.928 76.5176 202.813 77.2476 202.813 78.1476C202.813 79.0476 189.938 79.7776 174.054 79.7776C158.17 79.7776 145.305 79.0476 145.305 78.1476Z" fill="url(#paint5_radial_9217_2365)"/>
<path style="mix-blend-mode:color-dodge" d="M72.0619 213.395C72.6919 213.395 73.2019 222.393 73.2019 233.491C73.2019 244.589 72.6919 253.588 72.0619 253.588C71.4319 253.588 70.9219 244.589 70.9219 233.491C70.9219 222.393 71.4619 213.395 72.0619 213.395Z" fill="url(#paint6_radial_9217_2365)"/>
<path style="mix-blend-mode:color-dodge" d="M72.0925 234.6C83.1893 234.6 92.185 234.09 92.185 233.46C92.185 232.831 83.1893 232.32 72.0925 232.32C60.9957 232.32 52 232.831 52 233.46C52 234.09 60.9957 234.6 72.0925 234.6Z" fill="url(#paint7_radial_9217_2365)"/>
<path style="mix-blend-mode:color-dodge" d="M457.28 280.293C457.661 280.293 457.97 274.845 457.97 268.125C457.97 261.405 457.661 255.957 457.28 255.957C456.899 255.957 456.59 261.405 456.59 268.125C456.59 274.845 456.899 280.293 457.28 280.293Z" fill="url(#paint8_radial_9217_2365)"/>
<path style="mix-blend-mode:color-dodge" d="M445.123 268.114C445.123 267.734 450.571 267.424 457.288 267.424C464.006 267.424 469.444 267.734 469.444 268.114C469.444 268.494 464.006 268.804 457.288 268.804C450.571 268.804 445.123 268.494 445.123 268.114Z" fill="url(#paint9_radial_9217_2365)"/>
<path style="mix-blend-mode:color-dodge" d="M551.743 163.312C552.124 163.312 552.433 157.865 552.433 151.144C552.433 144.424 552.124 138.977 551.743 138.977C551.362 138.977 551.053 144.424 551.053 151.144C551.053 157.865 551.362 163.312 551.743 163.312Z" fill="url(#paint10_radial_9217_2365)"/>
<path style="mix-blend-mode:color-dodge" d="M539.588 151.133C539.588 150.753 545.036 150.443 551.753 150.443C558.471 150.443 563.909 150.753 563.909 151.133C563.909 151.513 558.471 151.823 551.753 151.823C545.036 151.823 539.588 151.513 539.588 151.133Z" fill="url(#paint11_radial_9217_2365)"/>
<path style="mix-blend-mode:color-dodge" d="M363.813 24.3359C364.194 24.3359 364.503 18.8881 364.503 12.1679C364.503 5.44777 364.194 0 363.813 0C363.432 0 363.123 5.44777 363.123 12.1679C363.123 18.8881 363.432 24.3359 363.813 24.3359Z" fill="url(#paint12_radial_9217_2365)"/>
<path style="mix-blend-mode:color-dodge" d="M351.658 12.1568C351.658 11.7768 357.106 11.4668 363.824 11.4668C370.541 11.4668 375.979 11.7768 375.979 12.1568C375.979 12.5368 370.541 12.8468 363.824 12.8468C357.106 12.8468 351.658 12.5368 351.658 12.1568Z" fill="url(#paint13_radial_9217_2365)"/>
<path style="mix-blend-mode:color-dodge" d="M341.17 763.35C341.17 762.45 328.295 761.72 312.421 761.72C296.547 761.72 283.661 762.45 283.661 763.35C283.661 764.25 296.537 764.98 312.421 764.98C328.305 764.98 341.17 764.22 341.17 763.35Z" fill="url(#paint14_radial_9217_2365)"/>
<path style="mix-blend-mode:color-dodge" d="M312.453 792.076C313.352 792.076 314.082 779.198 314.082 763.321C314.082 747.444 313.352 734.556 312.453 734.556C311.553 734.556 310.823 747.434 310.823 763.321C310.823 779.208 311.553 792.076 312.453 792.076Z" fill="url(#paint15_radial_9217_2365)"/>
<path style="mix-blend-mode:color-dodge" d="M177.232 865.335C177.232 864.705 168.236 864.195 157.14 864.195C146.044 864.195 137.047 864.705 137.047 865.335C137.047 865.965 146.044 866.475 157.14 866.475C168.236 866.475 177.232 865.935 177.232 865.335Z" fill="url(#paint16_radial_9217_2365)"/>
<path style="mix-blend-mode:color-dodge" d="M156.029 865.304C156.029 854.205 156.539 845.207 157.169 845.207C157.798 845.207 158.309 854.205 158.309 865.304C158.309 876.403 157.798 885.4 157.169 885.4C156.539 885.4 156.029 876.403 156.029 865.304Z" fill="url(#paint17_radial_9217_2365)"/>
<path style="mix-blend-mode:color-dodge" d="M110.347 480.039C110.347 479.657 115.793 479.349 122.512 479.349C129.231 479.349 134.678 479.657 134.678 480.039C134.678 480.42 129.231 480.729 122.512 480.729C115.793 480.729 110.347 480.42 110.347 480.039Z" fill="url(#paint18_radial_9217_2365)"/>
<path style="mix-blend-mode:color-dodge" d="M122.523 492.197C122.903 492.197 123.213 486.748 123.213 480.029C123.213 473.31 122.903 467.871 122.523 467.871C122.143 467.871 121.833 473.31 121.833 480.029C121.833 486.748 122.143 492.197 122.523 492.197Z" fill="url(#paint19_radial_9217_2365)"/>
<path style="mix-blend-mode:color-dodge" d="M227.304 385.554C227.304 385.173 232.751 384.864 239.469 384.864C246.188 384.864 251.635 385.173 251.635 385.554C251.635 385.935 246.188 386.244 239.469 386.244C232.751 386.244 227.304 385.935 227.304 385.554Z" fill="url(#paint20_radial_9217_2365)"/>
<path style="mix-blend-mode:color-dodge" d="M239.478 397.713C239.858 397.713 240.168 392.264 240.168 385.545C240.168 378.826 239.858 373.387 239.478 373.387C239.098 373.387 238.788 378.826 238.788 385.545C238.788 392.264 239.098 397.713 239.478 397.713Z" fill="url(#paint21_radial_9217_2365)"/>
<path style="mix-blend-mode:color-dodge" d="M366.251 573.523C366.251 573.142 371.698 572.833 378.417 572.833C385.135 572.833 390.582 573.142 390.582 573.523C390.582 573.904 385.135 574.213 378.417 574.213C371.698 574.213 366.251 573.904 366.251 573.523Z" fill="url(#paint22_radial_9217_2365)"/>
<path style="mix-blend-mode:color-dodge" d="M378.427 585.682C378.807 585.682 379.117 580.233 379.117 573.514C379.117 566.795 378.807 561.356 378.427 561.356C378.047 561.356 377.737 566.795 377.737 573.514C377.737 580.233 378.047 585.682 378.427 585.682Z" fill="url(#paint23_radial_9217_2365)"/>
<path style="mix-blend-mode:color-dodge" d="M1018.17 806.841C1018.17 805.438 1038.24 804.301 1062.99 804.301C1087.74 804.301 1107.82 805.438 1107.82 806.841C1107.82 808.243 1087.75 809.381 1062.99 809.381C1038.23 809.381 1018.17 808.197 1018.17 806.841Z" fill="url(#paint24_radial_9217_2365)"/>
<path style="mix-blend-mode:color-dodge" d="M1062.94 851.605C1061.54 851.605 1060.4 831.538 1060.4 806.797C1060.4 782.055 1061.54 761.972 1062.94 761.972C1064.35 761.972 1065.48 782.04 1065.48 806.797C1065.48 831.554 1064.35 851.605 1062.94 851.605Z" fill="url(#paint25_radial_9217_2365)"/>
<path style="mix-blend-mode:color-dodge" d="M1273.73 965.763C1273.73 964.781 1287.76 963.986 1305.06 963.986C1322.35 963.986 1336.38 964.781 1336.38 965.763C1336.38 966.744 1322.35 967.539 1305.06 967.539C1287.76 967.539 1273.73 966.698 1273.73 965.763Z" fill="url(#paint26_radial_9217_2365)"/>
<path style="mix-blend-mode:color-dodge" d="M1306.79 965.715C1306.79 948.419 1305.99 934.399 1305.01 934.399C1304.03 934.399 1303.23 948.419 1303.23 965.715C1303.23 983.01 1304.03 997.031 1305.01 997.031C1305.99 997.031 1306.79 983.01 1306.79 965.715Z" fill="url(#paint27_radial_9217_2365)"/>
<path style="mix-blend-mode:color-dodge" d="M1378 365.362C1378 364.768 1369.51 364.287 1359.03 364.287C1348.56 364.287 1340.07 364.768 1340.07 365.362C1340.07 365.956 1348.56 366.437 1359.03 366.437C1369.51 366.437 1378 365.956 1378 365.362Z" fill="url(#paint28_radial_9217_2365)"/>
<path style="mix-blend-mode:color-dodge" d="M1359.02 384.307C1358.43 384.307 1357.95 375.815 1357.95 365.346C1357.95 354.876 1358.43 346.4 1359.02 346.4C1359.61 346.4 1360.1 354.876 1360.1 365.346C1360.1 375.815 1359.61 384.307 1359.02 384.307Z" fill="url(#paint29_radial_9217_2365)"/>
<path style="mix-blend-mode:color-dodge" d="M1195.68 218.126C1195.68 217.532 1187.19 217.051 1176.71 217.051C1166.24 217.051 1157.75 217.532 1157.75 218.126C1157.75 218.72 1166.24 219.201 1176.71 219.201C1187.19 219.201 1195.68 218.72 1195.68 218.126Z" fill="url(#paint30_radial_9217_2365)"/>
<path style="mix-blend-mode:color-dodge" d="M612.716 589.698C612.716 589.104 604.225 588.623 593.752 588.623C583.278 588.623 574.787 589.104 574.787 589.698C574.787 590.292 583.278 590.773 593.752 590.773C604.225 590.773 612.716 590.292 612.716 589.698Z" fill="url(#paint31_radial_9217_2365)"/>
<path style="mix-blend-mode:color-dodge" d="M1176.7 237.072C1176.11 237.072 1175.62 228.581 1175.62 218.111C1175.62 207.641 1176.11 199.165 1176.7 199.165C1177.29 199.165 1177.78 207.641 1177.78 218.111C1177.78 228.581 1177.29 237.072 1176.7 237.072Z" fill="url(#paint32_radial_9217_2365)"/>
<path style="mix-blend-mode:color-dodge" d="M593.736 608.645C593.143 608.645 592.66 600.153 592.66 589.683C592.66 579.213 593.143 570.738 593.736 570.738C594.328 570.738 594.811 579.213 594.811 589.683C594.811 600.153 594.328 608.645 593.736 608.645Z" fill="url(#paint33_radial_9217_2365)"/>
<path style="mix-blend-mode:color-dodge" d="M979.077 511.036C979.077 510.442 970.587 509.961 960.113 509.961C949.639 509.961 941.148 510.442 941.148 511.036C941.148 511.63 949.639 512.111 960.113 512.111C970.587 512.111 979.077 511.63 979.077 511.036Z" fill="url(#paint34_radial_9217_2365)"/>
<path style="mix-blend-mode:color-dodge" d="M960.097 529.98C959.505 529.98 959.021 521.489 959.021 511.019C959.021 500.549 959.505 492.074 960.097 492.074C960.689 492.074 961.173 500.549 961.173 511.019C961.173 521.489 960.689 529.98 960.097 529.98Z" fill="url(#paint35_radial_9217_2365)"/>
<path opacity="0.6" d="M295.183 300.854C294.453 304.489 293.86 305.125 290.49 305.921C293.86 306.71 294.453 307.354 295.183 310.999C295.913 307.354 296.507 306.71 299.876 305.921C296.507 305.125 295.903 304.489 295.183 300.854Z" fill="white"/>
<path d="M301.428 302.879C303.076 294.666 304.41 293.221 312 291.44C304.41 289.658 303.076 288.214 301.428 280C299.781 288.214 298.447 289.658 290.857 291.44C298.447 293.221 299.781 294.666 301.428 302.879Z" fill="white"/>
<path d="M283.712 300.666C284.135 298.468 284.478 298.081 286.425 297.604C284.478 297.128 284.135 296.74 283.712 294.543C283.29 296.74 282.947 297.128 281 297.604C282.947 298.081 283.29 298.468 283.712 300.666Z" fill="white"/>
<path d="M1192.5 709C1193.98 701.461 1195.18 700.135 1202 698.5C1195.18 696.865 1193.98 695.539 1192.5 688C1191.02 695.539 1189.82 696.865 1183 698.5C1189.82 700.135 1191.02 701.461 1192.5 709Z" fill="white"/>
<path d="M445 730C446.714 721.384 448.102 719.869 456 718C448.102 716.131 446.714 714.616 445 706C443.286 714.616 441.898 716.131 434 718C441.898 719.869 443.286 721.384 445 730Z" fill="#0500FF"/>
<path d="M1051 362C1052.4 354.82 1053.54 353.557 1060 352C1053.54 350.443 1052.4 349.18 1051 342C1049.6 349.18 1048.46 350.443 1042 352C1048.46 353.557 1049.6 354.82 1051 362Z" fill="#588FFA"/>
</g>
<defs>
<radialGradient id="paint0_radial_9217_2365" cx="0" cy="0" r="1" gradientUnits="userSpaceOnUse" gradientTransform="translate(521.575 1041.21) rotate(90) scale(18.736 1.024)">
<stop stop-color="white"/>
<stop offset="1"/>
</radialGradient>
<radialGradient id="paint1_radial_9217_2365" cx="0" cy="0" r="1" gradientUnits="userSpaceOnUse" gradientTransform="translate(521.591 1040.78) rotate(180) scale(18.7322 1.024)">
<stop stop-color="white"/>
<stop offset="1"/>
</radialGradient>
<radialGradient id="paint2_radial_9217_2365" cx="0" cy="0" r="1" gradientUnits="userSpaceOnUse" gradientTransform="translate(907.089 1006.41) rotate(90) scale(11.3441 0.620002)">
<stop stop-color="white"/>
<stop offset="1"/>
</radialGradient>
<radialGradient id="paint3_radial_9217_2365" cx="0" cy="0" r="1" gradientUnits="userSpaceOnUse" gradientTransform="translate(906.662 1006.09) rotate(180) scale(11.3418 0.620002)">
<stop stop-color="white"/>
<stop offset="1"/>
</radialGradient>
<radialGradient id="paint4_radial_9217_2365" cx="0" cy="0" r="1" gradientUnits="userSpaceOnUse" gradientTransform="translate(174.06 77.8481) rotate(-90) scale(26.805 1.46446)">
<stop stop-color="white"/>
<stop offset="1"/>
</radialGradient>
<radialGradient id="paint5_radial_9217_2365" cx="0" cy="0" r="1" gradientUnits="userSpaceOnUse" gradientTransform="translate(173.755 78.1516) rotate(180) scale(26.7995 1.465)">
<stop stop-color="white"/>
<stop offset="1"/>
</radialGradient>
<radialGradient id="paint6_radial_9217_2365" cx="0" cy="0" r="1" gradientUnits="userSpaceOnUse" gradientTransform="translate(71.9929 233.189) rotate(-90) scale(18.736 1.024)">
<stop stop-color="white"/>
<stop offset="1"/>
</radialGradient>
<radialGradient id="paint7_radial_9217_2365" cx="0" cy="0" r="1" gradientUnits="userSpaceOnUse" gradientTransform="translate(72.0089 233.61) rotate(180) scale(18.7322 1.024)">
<stop stop-color="white"/>
<stop offset="1"/>
</radialGradient>
<radialGradient id="paint8_radial_9217_2365" cx="0" cy="0" r="1" gradientUnits="userSpaceOnUse" gradientTransform="translate(457.509 267.981) rotate(-90) scale(11.3441 0.620002)">
<stop stop-color="white"/>
<stop offset="1"/>
</radialGradient>
<radialGradient id="paint9_radial_9217_2365" cx="0" cy="0" r="1" gradientUnits="userSpaceOnUse" gradientTransform="translate(457.08 268.3) rotate(180) scale(11.3418 0.620002)">
<stop stop-color="white"/>
<stop offset="1"/>
</radialGradient>
<radialGradient id="paint10_radial_9217_2365" cx="0" cy="0" r="1" gradientUnits="userSpaceOnUse" gradientTransform="translate(552.063 151.082) rotate(-90) scale(11.3441 0.620002)">
<stop stop-color="white"/>
<stop offset="1"/>
</radialGradient>
<radialGradient id="paint11_radial_9217_2365" cx="0" cy="0" r="1" gradientUnits="userSpaceOnUse" gradientTransform="translate(551.473 151.222) rotate(180) scale(11.3418 0.620002)">
<stop stop-color="white"/>
<stop offset="1"/>
</radialGradient>
<radialGradient id="paint12_radial_9217_2365" cx="0" cy="0" r="1" gradientUnits="userSpaceOnUse" gradientTransform="translate(363.965 12.1902) rotate(-90) scale(11.3441 0.620002)">
<stop stop-color="white"/>
<stop offset="1"/>
</radialGradient>
<radialGradient id="paint13_radial_9217_2365" cx="0" cy="0" r="1" gradientUnits="userSpaceOnUse" gradientTransform="translate(363.675 12.1248) rotate(180) scale(11.3418 0.619999)">
<stop stop-color="white"/>
<stop offset="1"/>
</radialGradient>
<radialGradient id="paint14_radial_9217_2365" cx="0" cy="0" r="1" gradientUnits="userSpaceOnUse" gradientTransform="translate(312.75 763.314) scale(26.7995 1.465)">
<stop stop-color="white"/>
<stop offset="1"/>
</radialGradient>
<radialGradient id="paint15_radial_9217_2365" cx="0" cy="0" r="1" gradientUnits="userSpaceOnUse" gradientTransform="translate(312.449 763.62) rotate(90) scale(26.805 1.46445)">
<stop stop-color="white"/>
<stop offset="1"/>
</radialGradient>
<radialGradient id="paint16_radial_9217_2365" cx="0" cy="0" r="1" gradientUnits="userSpaceOnUse" gradientTransform="translate(157.442 865.404) scale(18.7322 1.024)">
<stop stop-color="white"/>
<stop offset="1"/>
</radialGradient>
<radialGradient id="paint17_radial_9217_2365" cx="0" cy="0" r="1" gradientUnits="userSpaceOnUse" gradientTransform="translate(157.019 865.387) rotate(90) scale(18.736 1.024)">
<stop stop-color="white"/>
<stop offset="1"/>
</radialGradient>
<radialGradient id="paint18_radial_9217_2365" cx="0" cy="0" r="1" gradientUnits="userSpaceOnUse" gradientTransform="translate(122.656 479.81) scale(11.3418 0.620002)">
<stop stop-color="white"/>
<stop offset="1"/>
</radialGradient>
<radialGradient id="paint19_radial_9217_2365" cx="0" cy="0" r="1" gradientUnits="userSpaceOnUse" gradientTransform="translate(122.337 480.238) rotate(90) scale(11.3441 0.620002)">
<stop stop-color="white"/>
<stop offset="1"/>
</radialGradient>
<radialGradient id="paint20_radial_9217_2365" cx="0" cy="0" r="1" gradientUnits="userSpaceOnUse" gradientTransform="translate(239.532 385.234) scale(11.3418 0.620002)">
<stop stop-color="white"/>
<stop offset="1"/>
</radialGradient>
<radialGradient id="paint21_radial_9217_2365" cx="0" cy="0" r="1" gradientUnits="userSpaceOnUse" gradientTransform="translate(239.389 385.825) rotate(90) scale(11.3441 0.620002)">
<stop stop-color="white"/>
<stop offset="1"/>
</radialGradient>
<radialGradient id="paint22_radial_9217_2365" cx="0" cy="0" r="1" gradientUnits="userSpaceOnUse" gradientTransform="translate(378.394 573.371) scale(11.3418 0.620002)">
<stop stop-color="white"/>
<stop offset="1"/>
</radialGradient>
<radialGradient id="paint23_radial_9217_2365" cx="0" cy="0" r="1" gradientUnits="userSpaceOnUse" gradientTransform="translate(378.459 573.662) rotate(90) scale(11.3441 0.619999)">
<stop stop-color="white"/>
<stop offset="1"/>
</radialGradient>
<radialGradient id="paint24_radial_9217_2365" cx="0" cy="0" r="1" gradientUnits="userSpaceOnUse" gradientTransform="translate(1062.48 806.785) rotate(180) scale(41.7771 2.2829)">
<stop stop-color="white"/>
<stop offset="1"/>
</radialGradient>
<radialGradient id="paint25_radial_9217_2365" cx="0" cy="0" r="1" gradientUnits="userSpaceOnUse" gradientTransform="translate(1062.95 807.262) rotate(90) scale(41.7699 2.2829)">
<stop stop-color="white"/>
<stop offset="1"/>
</radialGradient>
<radialGradient id="paint26_radial_9217_2365" cx="0" cy="0" r="1" gradientUnits="userSpaceOnUse" gradientTransform="translate(1304.59 965.87) rotate(180) scale(29.2012 1.59569)">
<stop stop-color="white"/>
<stop offset="1"/>
</radialGradient>
<radialGradient id="paint27_radial_9217_2365" cx="0" cy="0" r="1" gradientUnits="userSpaceOnUse" gradientTransform="translate(1305.24 965.845) rotate(90) scale(29.1962 1.59569)">
<stop stop-color="white"/>
<stop offset="1"/>
</radialGradient>
<radialGradient id="paint28_radial_9217_2365" cx="0" cy="0" r="1" gradientUnits="userSpaceOnUse" gradientTransform="translate(1358.81 365.005) rotate(180) scale(17.6804 0.966145)">
<stop stop-color="white"/>
<stop offset="1"/>
</radialGradient>
<radialGradient id="paint29_radial_9217_2365" cx="0" cy="0" r="1" gradientUnits="userSpaceOnUse" gradientTransform="translate(1359.31 365.67) rotate(90) scale(17.6773 0.966515)">
<stop stop-color="white"/>
<stop offset="1"/>
</radialGradient>
<radialGradient id="paint30_radial_9217_2365" cx="0" cy="0" r="1" gradientUnits="userSpaceOnUse" gradientTransform="translate(1176.62 217.627) rotate(180) scale(17.6804 0.966145)">
<stop stop-color="white"/>
<stop offset="1"/>
</radialGradient>
<radialGradient id="paint31_radial_9217_2365" cx="0" cy="0" r="1" gradientUnits="userSpaceOnUse" gradientTransform="translate(593.654 589.2) rotate(180) scale(17.6804 0.966145)">
<stop stop-color="white"/>
<stop offset="1"/>
</radialGradient>
<radialGradient id="paint32_radial_9217_2365" cx="0" cy="0" r="1" gradientUnits="userSpaceOnUse" gradientTransform="translate(1176.84 218.548) rotate(90) scale(17.6774 0.966515)">
<stop stop-color="white"/>
<stop offset="1"/>
</radialGradient>
<radialGradient id="paint33_radial_9217_2365" cx="0" cy="0" r="1" gradientUnits="userSpaceOnUse" gradientTransform="translate(593.875 590.121) rotate(90) scale(17.6774 0.966515)">
<stop stop-color="white"/>
<stop offset="1"/>
</radialGradient>
<radialGradient id="paint34_radial_9217_2365" cx="0" cy="0" r="1" gradientUnits="userSpaceOnUse" gradientTransform="translate(960.148 510.799) rotate(180) scale(17.6804 0.966131)">
<stop stop-color="white"/>
<stop offset="1"/>
</radialGradient>
<radialGradient id="paint35_radial_9217_2365" cx="0" cy="0" r="1" gradientUnits="userSpaceOnUse" gradientTransform="translate(960.047 511.25) rotate(90) scale(17.6774 0.966501)">
<stop stop-color="white"/>
<stop offset="1"/>
</radialGradient>
</defs>
</svg>
