<svg width="1379" height="1062" viewBox="0 0 1379 1062" fill="none" xmlns="http://www.w3.org/2000/svg">
<g opacity="0.6">
<path style="mix-blend-mode:color-dodge" d="M174.105 49.4297C175.005 49.4297 175.735 62.3097 175.735 78.1897C175.735 94.0697 175.005 106.96 174.105 106.96C173.205 106.96 172.475 94.0797 172.475 78.1897C172.475 62.2997 173.235 49.4297 174.105 49.4297Z" fill="url(#paint0_radial_8523_3218)"/>
<path style="mix-blend-mode:color-dodge" d="M145.375 78.1612C145.375 77.2612 158.255 76.5312 174.135 76.5312C190.015 76.5312 202.905 77.2612 202.905 78.1612C202.905 79.0612 190.025 79.7912 174.135 79.7912C158.245 79.7912 145.375 79.0612 145.375 78.1612Z" fill="url(#paint1_radial_8523_3218)"/>
<path style="mix-blend-mode:color-dodge" d="M72.1048 213.43C72.7348 213.43 73.2448 222.43 73.2448 233.53C73.2448 244.63 72.7348 253.63 72.1048 253.63C71.4748 253.63 70.9648 244.63 70.9648 233.53C70.9648 222.43 71.5048 213.43 72.1048 213.43Z" fill="url(#paint2_radial_8523_3218)"/>
<path style="mix-blend-mode:color-dodge" d="M72.1352 234.639C83.2361 234.639 92.2352 234.129 92.2352 233.499C92.2352 232.87 83.2361 232.359 72.1352 232.359C61.0342 232.359 52.0352 232.87 52.0352 233.499C52.0352 234.129 61.0342 234.639 72.1352 234.639Z" fill="url(#paint3_radial_8523_3218)"/>
<path style="mix-blend-mode:color-dodge" d="M457.465 280.34C457.846 280.34 458.155 274.891 458.155 268.17C458.155 261.449 457.846 256 457.465 256C457.084 256 456.775 261.449 456.775 268.17C456.775 274.891 457.084 280.34 457.465 280.34Z" fill="url(#paint4_radial_8523_3218)"/>
<path style="mix-blend-mode:color-dodge" d="M445.305 268.159C445.305 267.779 450.755 267.469 457.475 267.469C464.195 267.469 469.635 267.779 469.635 268.159C469.635 268.539 464.195 268.849 457.475 268.849C450.755 268.849 445.305 268.539 445.305 268.159Z" fill="url(#paint5_radial_8523_3218)"/>
<path style="mix-blend-mode:color-dodge" d="M551.965 163.34C552.346 163.34 552.655 157.891 552.655 151.17C552.655 144.449 552.346 139 551.965 139C551.584 139 551.275 144.449 551.275 151.17C551.275 157.891 551.584 163.34 551.965 163.34Z" fill="url(#paint6_radial_8523_3218)"/>
<path style="mix-blend-mode:color-dodge" d="M539.805 151.159C539.805 150.779 545.255 150.469 551.975 150.469C558.695 150.469 564.135 150.779 564.135 151.159C564.135 151.539 558.695 151.849 551.975 151.849C545.255 151.849 539.805 151.539 539.805 151.159Z" fill="url(#paint7_radial_8523_3218)"/>
<path style="mix-blend-mode:color-dodge" d="M363.965 24.34C364.346 24.34 364.655 18.8913 364.655 12.17C364.655 5.44869 364.346 0 363.965 0C363.584 0 363.275 5.44869 363.275 12.17C363.275 18.8913 363.584 24.34 363.965 24.34Z" fill="url(#paint8_radial_8523_3218)"/>
<path style="mix-blend-mode:color-dodge" d="M351.805 12.1588C351.805 11.7788 357.255 11.4688 363.975 11.4688C370.695 11.4688 376.135 11.7788 376.135 12.1588C376.135 12.5388 370.695 12.8487 363.975 12.8487C357.255 12.8487 351.805 12.5388 351.805 12.1588Z" fill="url(#paint9_radial_8523_3218)"/>
<path style="mix-blend-mode:color-dodge" d="M341.314 763.481C341.314 762.581 328.434 761.851 312.554 761.851C296.674 761.851 283.784 762.581 283.784 763.481C283.784 764.381 296.664 765.111 312.554 765.111C328.444 765.111 341.314 764.351 341.314 763.481Z" fill="url(#paint10_radial_8523_3218)"/>
<path style="mix-blend-mode:color-dodge" d="M312.585 792.211C313.485 792.211 314.215 779.331 314.215 763.451C314.215 747.571 313.485 734.681 312.585 734.681C311.685 734.681 310.955 747.561 310.955 763.451C310.955 779.341 311.685 792.211 312.585 792.211Z" fill="url(#paint11_radial_8523_3218)"/>
<path style="mix-blend-mode:color-dodge" d="M177.314 865.481C177.314 864.851 168.314 864.341 157.214 864.341C146.114 864.341 137.114 864.851 137.114 865.481C137.114 866.111 146.114 866.621 157.214 866.621C168.314 866.621 177.314 866.081 177.314 865.481Z" fill="url(#paint12_radial_8523_3218)"/>
<path style="mix-blend-mode:color-dodge" d="M156.105 865.451C156.105 854.35 156.615 845.351 157.245 845.351C157.874 845.351 158.385 854.35 158.385 865.451C158.385 876.552 157.874 885.551 157.245 885.551C156.615 885.551 156.105 876.552 156.105 865.451Z" fill="url(#paint13_radial_8523_3218)"/>
<path style="mix-blend-mode:color-dodge" d="M110.404 480.121C110.404 479.739 115.853 479.431 122.574 479.431C129.295 479.431 134.744 479.739 134.744 480.121C134.744 480.502 129.295 480.811 122.574 480.811C115.853 480.811 110.404 480.502 110.404 480.121Z" fill="url(#paint14_radial_8523_3218)"/>
<path style="mix-blend-mode:color-dodge" d="M122.585 492.281C122.965 492.281 123.275 486.831 123.275 480.111C123.275 473.391 122.965 467.951 122.585 467.951C122.205 467.951 121.895 473.391 121.895 480.111C121.895 486.831 122.205 492.281 122.585 492.281Z" fill="url(#paint15_radial_8523_3218)"/>
<path style="mix-blend-mode:color-dodge" d="M227.404 385.621C227.404 385.239 232.853 384.931 239.574 384.931C246.295 384.931 251.744 385.239 251.744 385.621C251.744 386.002 246.295 386.311 239.574 386.311C232.853 386.311 227.404 386.002 227.404 385.621Z" fill="url(#paint16_radial_8523_3218)"/>
<path style="mix-blend-mode:color-dodge" d="M239.583 397.781C239.963 397.781 240.273 392.331 240.273 385.611C240.273 378.891 239.963 373.451 239.583 373.451C239.203 373.451 238.893 378.891 238.893 385.611C238.893 392.331 239.203 397.781 239.583 397.781Z" fill="url(#paint17_radial_8523_3218)"/>
<path style="mix-blend-mode:color-dodge" d="M366.404 573.621C366.404 573.239 371.853 572.931 378.574 572.931C385.295 572.931 390.744 573.239 390.744 573.621C390.744 574.002 385.295 574.311 378.574 574.311C371.853 574.311 366.404 574.002 366.404 573.621Z" fill="url(#paint18_radial_8523_3218)"/>
<path style="mix-blend-mode:color-dodge" d="M378.585 585.781C378.965 585.781 379.275 580.331 379.275 573.611C379.275 566.891 378.965 561.451 378.585 561.451C378.205 561.451 377.895 566.891 377.895 573.611C377.895 580.331 378.205 585.781 378.585 585.781Z" fill="url(#paint19_radial_8523_3218)"/>
<path style="mix-blend-mode:color-dodge" d="M521.855 1061.18C522.485 1061.18 522.995 1052.18 522.995 1041.08C522.995 1029.98 522.485 1020.98 521.855 1020.98C521.225 1020.98 520.715 1029.98 520.715 1041.08C520.715 1052.18 521.255 1061.18 521.855 1061.18Z" fill="url(#paint20_radial_8523_3218)"/>
<path style="mix-blend-mode:color-dodge" d="M521.885 1039.97C532.986 1039.97 541.985 1040.48 541.985 1041.11C541.985 1041.74 532.986 1042.25 521.885 1042.25C510.784 1042.25 501.785 1041.74 501.785 1041.11C501.785 1040.48 510.784 1039.97 521.885 1039.97Z" fill="url(#paint21_radial_8523_3218)"/>
<path style="mix-blend-mode:color-dodge" d="M907.215 994.269C907.596 994.269 907.905 999.718 907.905 1006.44C907.905 1013.16 907.596 1018.61 907.215 1018.61C906.834 1018.61 906.525 1013.16 906.525 1006.44C906.525 999.718 906.834 994.269 907.215 994.269Z" fill="url(#paint22_radial_8523_3218)"/>
<path style="mix-blend-mode:color-dodge" d="M895.055 1006.45C895.055 1006.83 900.505 1007.14 907.225 1007.14C913.945 1007.14 919.385 1006.83 919.385 1006.45C919.385 1006.07 913.945 1005.76 907.225 1005.76C900.505 1005.76 895.055 1006.07 895.055 1006.45Z" fill="url(#paint23_radial_8523_3218)"/>
<path d="M121.343 124.976C121.28 125.103 121.259 125.247 121.283 125.387C121.306 125.527 121.372 125.656 121.473 125.756C121.573 125.857 121.702 125.923 121.842 125.946C121.982 125.97 122.126 125.949 122.253 125.886C122.383 125.83 122.487 125.727 122.543 125.596C122.609 125.469 122.633 125.324 122.61 125.183C122.588 125.042 122.521 124.911 122.42 124.811C122.318 124.71 122.187 124.645 122.045 124.624C121.904 124.604 121.759 124.629 121.633 124.696C121.507 124.754 121.405 124.853 121.343 124.976V124.976Z" fill="white" fill-opacity="0.5"/>
<path d="M135.693 117.797C135.63 117.924 135.609 118.068 135.632 118.208C135.655 118.348 135.722 118.477 135.822 118.577C135.923 118.678 136.052 118.744 136.192 118.767C136.332 118.791 136.475 118.769 136.603 118.707C136.731 118.649 136.834 118.546 136.893 118.417C136.955 118.29 136.976 118.146 136.953 118.006C136.93 117.866 136.863 117.737 136.763 117.637C136.663 117.536 136.533 117.47 136.394 117.447C136.254 117.423 136.11 117.445 135.983 117.507C135.856 117.569 135.754 117.671 135.693 117.797V117.797Z" fill="white" fill-opacity="0.5"/>
<path d="M132.181 111.055C132.427 110.809 132.411 110.394 132.145 110.129C131.88 109.863 131.465 109.848 131.219 110.094C130.973 110.34 130.989 110.754 131.254 111.02C131.52 111.285 131.935 111.301 132.181 111.055Z" fill="white" fill-opacity="0.5"/>
<path d="M200.612 125.895C200.55 126.022 200.529 126.166 200.552 126.306C200.575 126.446 200.642 126.575 200.742 126.675C200.842 126.775 200.972 126.842 201.112 126.865C201.251 126.888 201.395 126.867 201.522 126.805C201.651 126.747 201.754 126.643 201.812 126.515C201.875 126.387 201.896 126.244 201.873 126.104C201.85 125.964 201.783 125.835 201.683 125.734C201.583 125.634 201.453 125.568 201.313 125.544C201.174 125.521 201.03 125.542 200.902 125.605C200.776 125.666 200.674 125.768 200.612 125.895V125.895Z" fill="white" fill-opacity="0.5"/>
<path d="M472.335 439.436C472.273 439.563 472.252 439.707 472.275 439.847C472.298 439.987 472.364 440.116 472.465 440.216C472.565 440.316 472.694 440.383 472.834 440.406C472.974 440.429 473.118 440.408 473.245 440.346C473.374 440.288 473.477 440.184 473.535 440.056C473.598 439.928 473.619 439.785 473.595 439.645C473.572 439.505 473.506 439.376 473.405 439.275C473.305 439.175 473.176 439.109 473.036 439.085C472.896 439.062 472.752 439.083 472.625 439.146C472.499 439.207 472.397 439.309 472.335 439.436V439.436Z" fill="white" fill-opacity="0.5"/>
<path d="M206.273 159.866C206.21 159.993 206.189 160.137 206.212 160.277C206.236 160.417 206.302 160.546 206.402 160.646C206.503 160.747 206.632 160.813 206.772 160.836C206.912 160.859 207.055 160.838 207.183 160.776C207.313 160.72 207.417 160.616 207.473 160.486C207.531 160.33 207.531 160.158 207.471 160.002C207.411 159.847 207.296 159.719 207.148 159.642C207 159.566 206.829 159.546 206.668 159.588C206.507 159.629 206.366 159.728 206.273 159.866Z" fill="white" fill-opacity="0.5"/>
<path d="M207.413 182.306C207.351 182.433 207.33 182.577 207.353 182.717C207.376 182.857 207.443 182.986 207.543 183.086C207.643 183.186 207.772 183.253 207.912 183.276C208.052 183.299 208.196 183.278 208.323 183.216C208.454 183.16 208.558 183.056 208.613 182.926C208.667 182.846 208.703 182.756 208.72 182.662C208.736 182.567 208.732 182.47 208.709 182.377C208.685 182.284 208.642 182.197 208.582 182.122C208.522 182.047 208.447 181.985 208.362 181.941C208.277 181.897 208.183 181.872 208.087 181.866C207.991 181.861 207.895 181.876 207.806 181.911C207.716 181.945 207.635 181.998 207.567 182.066C207.5 182.134 207.447 182.216 207.413 182.306V182.306Z" fill="white" fill-opacity="0.5"/>
<path d="M230.132 170.957C230.07 171.085 230.048 171.228 230.072 171.368C230.095 171.508 230.161 171.637 230.262 171.738C230.362 171.838 230.491 171.904 230.631 171.928C230.771 171.951 230.915 171.93 231.042 171.867C231.168 171.806 231.27 171.703 231.332 171.577C231.395 171.45 231.416 171.306 231.392 171.166C231.369 171.026 231.303 170.897 231.202 170.797C231.102 170.697 230.973 170.63 230.833 170.607C230.693 170.584 230.549 170.605 230.422 170.667C230.296 170.729 230.194 170.831 230.132 170.957V170.957Z" fill="white" fill-opacity="0.5"/>
<path d="M492.202 604.891C492.14 605.018 492.119 605.162 492.142 605.302C492.165 605.442 492.232 605.571 492.332 605.671C492.432 605.771 492.561 605.838 492.701 605.861C492.841 605.884 492.985 605.863 493.112 605.801C493.239 605.739 493.341 605.637 493.402 605.511C493.465 605.383 493.486 605.24 493.463 605.1C493.439 604.96 493.373 604.831 493.273 604.73C493.172 604.63 493.043 604.564 492.903 604.54C492.763 604.517 492.62 604.538 492.492 604.601C492.366 604.662 492.264 604.764 492.202 604.891V604.891Z" fill="white" fill-opacity="0.5"/>
<path d="M262.583 82.547C262.521 82.6744 262.5 82.8181 262.523 82.958C262.546 83.0979 262.613 83.2271 262.713 83.3274C262.813 83.4277 262.942 83.4941 263.082 83.5173C263.222 83.5406 263.366 83.5195 263.493 83.457C263.619 83.3977 263.718 83.2946 263.773 83.167C263.836 83.0397 263.857 82.896 263.834 82.7561C263.81 82.6161 263.744 82.487 263.644 82.3867C263.543 82.2864 263.414 82.2199 263.274 82.1967C263.134 82.1735 262.991 82.1945 262.863 82.257C262.738 82.3163 262.638 82.4195 262.583 82.547V82.547Z" fill="white" fill-opacity="0.5"/>
<path d="M266.493 66.4259C266.431 66.5533 266.41 66.697 266.433 66.8369C266.456 66.9768 266.523 67.106 266.623 67.2063C266.723 67.3066 266.852 67.373 266.992 67.3962C267.132 67.4195 267.276 67.3984 267.403 67.3359C267.532 67.2778 267.635 67.1747 267.693 67.0459C267.756 66.9186 267.777 66.7749 267.754 66.635C267.73 66.495 267.664 66.3659 267.564 66.2656C267.463 66.1653 267.334 66.0989 267.194 66.0756C267.054 66.0524 266.911 66.0734 266.783 66.1359C266.655 66.194 266.551 66.2972 266.493 66.4259V66.4259Z" fill="white" fill-opacity="0.5"/>
<path d="M553.421 822.56C553.359 822.687 553.338 822.831 553.361 822.971C553.384 823.111 553.45 823.24 553.551 823.34C553.651 823.441 553.78 823.507 553.92 823.53C554.06 823.554 554.204 823.533 554.331 823.47C554.462 823.414 554.565 823.311 554.621 823.18C554.687 823.053 554.711 822.908 554.688 822.767C554.666 822.626 554.599 822.495 554.498 822.395C554.396 822.294 554.265 822.229 554.123 822.208C553.982 822.188 553.837 822.213 553.711 822.28C553.585 822.338 553.483 822.437 553.421 822.56V822.56Z" fill="white" fill-opacity="0.5"/>
<path d="M824.88 928.517C824.818 928.644 824.796 928.788 824.82 928.928C824.843 929.068 824.909 929.197 825.01 929.297C825.11 929.397 825.239 929.464 825.379 929.487C825.519 929.51 825.663 929.489 825.79 929.427C825.921 929.371 826.024 929.267 826.08 929.137C826.134 929.057 826.17 928.967 826.186 928.873C826.203 928.778 826.199 928.681 826.175 928.588C826.152 928.495 826.108 928.408 826.049 928.333C825.989 928.258 825.914 928.196 825.829 928.152C825.743 928.108 825.65 928.082 825.554 928.077C825.458 928.072 825.362 928.087 825.272 928.121C825.183 928.156 825.102 928.209 825.034 928.277C824.966 928.345 824.914 928.427 824.88 928.517V928.517Z" fill="white" fill-opacity="0.5"/>
<path d="M698.571 764.01C698.509 764.137 698.488 764.281 698.511 764.421C698.534 764.561 698.601 764.69 698.701 764.79C698.801 764.891 698.931 764.957 699.071 764.98C699.21 765.003 699.354 764.982 699.481 764.92C699.61 764.862 699.713 764.759 699.771 764.63C699.834 764.503 699.855 764.359 699.832 764.219C699.809 764.079 699.742 763.95 699.642 763.85C699.542 763.749 699.412 763.683 699.272 763.66C699.133 763.636 698.989 763.657 698.861 763.72C698.733 763.778 698.63 763.881 698.571 764.01V764.01Z" fill="white" fill-opacity="0.5"/>
<path d="M0.0695146 571.193C0.00703641 571.32 -0.0140515 571.464 0.00919663 571.604C0.0324448 571.744 0.0988685 571.873 0.199169 571.973C0.299469 572.074 0.428626 572.14 0.568553 572.163C0.708481 572.186 0.852174 572.165 0.979518 572.103C1.10996 572.047 1.21386 571.943 1.26953 571.813C1.33548 571.686 1.35907 571.541 1.33686 571.4C1.31466 571.259 1.24783 571.128 1.14613 571.028C1.04443 570.927 0.913215 570.862 0.771678 570.841C0.630142 570.82 0.48571 570.846 0.359523 570.913C0.233919 570.971 0.131658 571.069 0.0695146 571.193V571.193Z" fill="white" fill-opacity="0.3"/>
<path d="M32.2316 551.906C32.1692 552.034 32.1481 552.177 32.1713 552.317C32.1946 552.457 32.261 552.586 32.3613 552.687C32.4616 552.787 32.5907 552.853 32.7307 552.877C32.8706 552.9 33.0143 552.879 33.1416 552.816C33.2704 552.758 33.3735 552.655 33.4316 552.526C33.4941 552.399 33.5152 552.255 33.492 552.115C33.4687 551.976 33.4023 551.846 33.302 551.746C33.2017 551.646 33.0725 551.579 32.9326 551.556C32.7927 551.533 32.649 551.554 32.5216 551.616C32.3953 551.678 32.2933 551.78 32.2316 551.906V551.906Z" fill="white" fill-opacity="0.3"/>
<path d="M22.1884 529.368C22.4344 529.122 22.4186 528.707 22.153 528.441C21.8875 528.176 21.4728 528.16 21.2267 528.406C20.9807 528.652 20.9965 529.067 21.2621 529.332C21.5276 529.598 21.9423 529.614 22.1884 529.368Z" fill="white" fill-opacity="0.3"/>
<path d="M94.7766 494.559C94.7141 494.686 94.693 494.83 94.7162 494.97C94.7395 495.11 94.8059 495.239 94.9062 495.339C95.0065 495.439 95.1357 495.506 95.2756 495.529C95.4155 495.552 95.5592 495.531 95.6865 495.469C95.8153 495.411 95.9184 495.307 95.9765 495.179C96.039 495.051 96.0601 494.908 96.0369 494.768C96.0136 494.628 95.9472 494.499 95.8469 494.398C95.7466 494.298 95.6174 494.232 95.4775 494.208C95.3376 494.185 95.1939 494.206 95.0665 494.269C94.9402 494.33 94.8382 494.432 94.7766 494.559V494.559Z" fill="white" fill-opacity="0.3"/>
<path d="M120.03 572.471C119.968 572.599 119.947 572.742 119.97 572.882C119.993 573.022 120.06 573.151 120.16 573.252C120.26 573.352 120.39 573.418 120.529 573.442C120.669 573.465 120.813 573.444 120.94 573.381C121.071 573.326 121.175 573.222 121.23 573.091C121.289 572.935 121.289 572.763 121.229 572.608C121.169 572.452 121.054 572.324 120.906 572.248C120.758 572.171 120.587 572.152 120.426 572.193C120.264 572.234 120.124 572.333 120.03 572.471Z" fill="white" fill-opacity="0.3"/>
<path d="M54.0773 681.96C54.0149 682.087 53.9938 682.231 54.017 682.371C54.0403 682.511 54.1067 682.64 54.207 682.74C54.3073 682.841 54.4364 682.907 54.5764 682.93C54.7163 682.954 54.86 682.933 54.9873 682.87C55.1178 682.814 55.2217 682.71 55.2774 682.58C55.3311 682.5 55.3673 682.41 55.3837 682.316C55.4002 682.221 55.3964 682.124 55.3726 682.031C55.3489 681.938 55.3057 681.851 55.2459 681.776C55.1862 681.701 55.1112 681.639 55.0259 681.595C54.9406 681.551 54.847 681.526 54.7511 681.521C54.6553 681.515 54.5594 681.53 54.4698 681.565C54.3802 681.599 54.2989 681.652 54.2312 681.72C54.1636 681.789 54.1111 681.87 54.0773 681.96V681.96Z" fill="white" fill-opacity="0.3"/>
<path d="M158.734 617.766C158.671 617.893 158.65 618.037 158.673 618.177C158.697 618.317 158.763 618.446 158.863 618.546C158.964 618.646 159.093 618.713 159.233 618.736C159.373 618.759 159.516 618.738 159.644 618.676C159.77 618.614 159.872 618.512 159.934 618.386C159.996 618.258 160.017 618.115 159.994 617.975C159.971 617.835 159.904 617.706 159.804 617.605C159.704 617.505 159.574 617.439 159.435 617.415C159.295 617.392 159.151 617.413 159.024 617.476C158.897 617.537 158.795 617.639 158.734 617.766V617.766Z" fill="white" fill-opacity="0.3"/>
<path d="M216.714 537.074C216.652 537.202 216.63 537.345 216.654 537.485C216.677 537.625 216.743 537.754 216.844 537.855C216.944 537.955 217.073 538.021 217.213 538.045C217.353 538.068 217.497 538.047 217.624 537.984C217.75 537.925 217.849 537.822 217.904 537.694C217.967 537.567 217.988 537.423 217.964 537.283C217.941 537.143 217.875 537.014 217.774 536.914C217.674 536.814 217.545 536.747 217.405 536.724C217.265 536.701 217.121 536.722 216.994 536.784C216.869 536.844 216.769 536.947 216.714 537.074V537.074Z" fill="white" fill-opacity="0.3"/>
<path d="M160.073 551.236C160.011 551.364 159.99 551.508 160.013 551.647C160.036 551.787 160.103 551.916 160.203 552.017C160.303 552.117 160.433 552.184 160.572 552.207C160.712 552.23 160.856 552.209 160.983 552.146C161.112 552.088 161.215 551.985 161.273 551.856C161.336 551.729 161.357 551.585 161.334 551.446C161.311 551.306 161.244 551.176 161.144 551.076C161.043 550.976 160.914 550.909 160.774 550.886C160.634 550.863 160.491 550.884 160.363 550.946C160.235 551.005 160.132 551.108 160.073 551.236V551.236Z" fill="white" fill-opacity="0.3"/>
<path d="M1072.64 598.632C1072.58 598.76 1072.55 598.903 1072.58 599.043C1072.6 599.183 1072.67 599.312 1072.77 599.413C1072.87 599.513 1073 599.579 1073.14 599.603C1073.28 599.626 1073.42 599.605 1073.55 599.542C1073.68 599.487 1073.78 599.383 1073.84 599.252C1073.9 599.125 1073.93 598.981 1073.91 598.839C1073.88 598.698 1073.82 598.568 1073.71 598.467C1073.61 598.366 1073.48 598.301 1073.34 598.28C1073.2 598.26 1073.05 598.285 1072.93 598.352C1072.8 598.41 1072.7 598.509 1072.64 598.632V598.632Z" fill="white" fill-opacity="0.3"/>
<path d="M1086.99 591.453C1086.93 591.581 1086.9 591.724 1086.93 591.864C1086.95 592.004 1087.02 592.133 1087.12 592.234C1087.22 592.334 1087.35 592.4 1087.49 592.424C1087.63 592.447 1087.77 592.426 1087.9 592.363C1088.03 592.305 1088.13 592.202 1088.19 592.073C1088.25 591.946 1088.27 591.802 1088.25 591.662C1088.22 591.522 1088.16 591.393 1088.06 591.293C1087.96 591.193 1087.83 591.126 1087.69 591.103C1087.55 591.08 1087.4 591.101 1087.28 591.163C1087.15 591.225 1087.05 591.327 1086.99 591.453V591.453Z" fill="white" fill-opacity="0.3"/>
<path d="M1083.48 584.711C1083.72 584.465 1083.71 584.051 1083.44 583.785C1083.18 583.52 1082.76 583.504 1082.52 583.75C1082.27 583.996 1082.29 584.411 1082.55 584.676C1082.82 584.942 1083.23 584.958 1083.48 584.711Z" fill="white" fill-opacity="0.3"/>
<path d="M1151.91 599.551C1151.84 599.678 1151.82 599.822 1151.85 599.962C1151.87 600.102 1151.94 600.231 1152.04 600.331C1152.14 600.432 1152.27 600.498 1152.41 600.521C1152.55 600.544 1152.69 600.523 1152.82 600.461C1152.95 600.403 1153.05 600.3 1153.11 600.171C1153.17 600.044 1153.19 599.9 1153.17 599.76C1153.14 599.62 1153.08 599.491 1152.98 599.391C1152.88 599.29 1152.75 599.224 1152.61 599.201C1152.47 599.177 1152.32 599.198 1152.2 599.261C1152.07 599.323 1151.97 599.425 1151.91 599.551V599.551Z" fill="white" fill-opacity="0.3"/>
<path d="M1157.57 633.522C1157.51 633.649 1157.48 633.793 1157.51 633.933C1157.53 634.073 1157.6 634.202 1157.7 634.302C1157.8 634.403 1157.93 634.469 1158.07 634.492C1158.21 634.516 1158.35 634.495 1158.48 634.432C1158.61 634.376 1158.71 634.273 1158.77 634.142C1158.83 633.986 1158.83 633.814 1158.77 633.659C1158.71 633.503 1158.59 633.375 1158.44 633.299C1158.3 633.222 1158.12 633.203 1157.96 633.244C1157.8 633.285 1157.66 633.384 1157.57 633.522Z" fill="white" fill-opacity="0.3"/>
<path d="M1158.71 655.962C1158.65 656.089 1158.62 656.233 1158.65 656.373C1158.67 656.513 1158.74 656.642 1158.84 656.742C1158.94 656.843 1159.07 656.909 1159.21 656.932C1159.35 656.956 1159.49 656.934 1159.62 656.872C1159.75 656.816 1159.85 656.712 1159.91 656.582C1159.96 656.502 1160 656.412 1160.01 656.318C1160.03 656.223 1160.03 656.126 1160 656.033C1159.98 655.94 1159.94 655.853 1159.88 655.778C1159.82 655.703 1159.74 655.641 1159.66 655.597C1159.57 655.553 1159.48 655.528 1159.38 655.523C1159.29 655.517 1159.19 655.532 1159.1 655.567C1159.01 655.601 1158.93 655.654 1158.86 655.722C1158.79 655.79 1158.74 655.872 1158.71 655.962V655.962Z" fill="white" fill-opacity="0.3"/>
<path d="M1181.43 644.613C1181.37 644.741 1181.35 644.884 1181.37 645.024C1181.39 645.164 1181.46 645.293 1181.56 645.394C1181.66 645.494 1181.79 645.561 1181.93 645.584C1182.07 645.607 1182.21 645.586 1182.34 645.523C1182.47 645.462 1182.57 645.36 1182.63 645.233C1182.69 645.106 1182.71 644.962 1182.69 644.822C1182.67 644.683 1182.6 644.553 1182.5 644.453C1182.4 644.353 1182.27 644.286 1182.13 644.263C1181.99 644.24 1181.85 644.261 1181.72 644.323C1181.59 644.385 1181.49 644.487 1181.43 644.613V644.613Z" fill="white" fill-opacity="0.3"/>
<path d="M1213.88 556.203C1213.82 556.331 1213.79 556.474 1213.82 556.614C1213.84 556.754 1213.91 556.883 1214.01 556.984C1214.11 557.084 1214.24 557.15 1214.38 557.174C1214.52 557.197 1214.66 557.176 1214.79 557.113C1214.91 557.054 1215.01 556.951 1215.07 556.823C1215.13 556.696 1215.15 556.552 1215.13 556.412C1215.11 556.272 1215.04 556.143 1214.94 556.043C1214.84 555.943 1214.71 555.876 1214.57 555.853C1214.43 555.83 1214.29 555.851 1214.16 555.913C1214.03 555.973 1213.93 556.076 1213.88 556.203V556.203Z" fill="white" fill-opacity="0.3"/>
<path d="M1217.79 540.082C1217.73 540.21 1217.7 540.353 1217.73 540.493C1217.75 540.633 1217.82 540.762 1217.92 540.863C1218.02 540.963 1218.15 541.029 1218.29 541.052C1218.43 541.076 1218.57 541.055 1218.7 540.992C1218.83 540.934 1218.93 540.831 1218.99 540.702C1219.05 540.575 1219.07 540.431 1219.05 540.291C1219.03 540.151 1218.96 540.022 1218.86 539.922C1218.76 539.822 1218.63 539.755 1218.49 539.732C1218.35 539.709 1218.21 539.73 1218.08 539.792C1217.95 539.85 1217.85 539.953 1217.79 540.082V540.082Z" fill="white" fill-opacity="0.3"/>
<path d="M704.034 125.235C704.096 125.107 704.118 124.964 704.094 124.824C704.071 124.684 704.005 124.555 703.904 124.454C703.804 124.354 703.675 124.288 703.535 124.265C703.395 124.241 703.251 124.262 703.124 124.325C702.994 124.38 702.89 124.484 702.834 124.615C702.768 124.742 702.744 124.886 702.767 125.028C702.789 125.169 702.856 125.3 702.957 125.4C703.059 125.501 703.19 125.566 703.332 125.587C703.473 125.607 703.618 125.582 703.744 125.515C703.87 125.457 703.972 125.358 704.034 125.235V125.235Z" fill="white" fill-opacity="0.3"/>
<path d="M689.684 132.416C689.747 132.289 689.768 132.145 689.745 132.005C689.721 131.865 689.655 131.736 689.555 131.636C689.454 131.535 689.325 131.469 689.185 131.446C689.045 131.422 688.902 131.443 688.774 131.506C688.646 131.564 688.542 131.667 688.484 131.796C688.422 131.923 688.401 132.067 688.424 132.207C688.447 132.347 688.514 132.476 688.614 132.576C688.714 132.677 688.843 132.743 688.983 132.766C689.123 132.789 689.267 132.768 689.394 132.706C689.521 132.644 689.623 132.542 689.684 132.416V132.416Z" fill="white" fill-opacity="0.3"/>
<path d="M693.194 139.156C692.948 139.402 692.964 139.816 693.23 140.082C693.495 140.348 693.91 140.363 694.156 140.117C694.402 139.871 694.386 139.457 694.121 139.191C693.855 138.925 693.44 138.91 693.194 139.156Z" fill="white" fill-opacity="0.3"/>
<path d="M624.764 124.316C624.827 124.189 624.848 124.045 624.825 123.905C624.802 123.765 624.735 123.636 624.635 123.536C624.535 123.436 624.405 123.369 624.265 123.346C624.126 123.323 623.982 123.344 623.854 123.406C623.726 123.464 623.623 123.568 623.564 123.696C623.502 123.824 623.481 123.967 623.504 124.107C623.527 124.247 623.594 124.376 623.694 124.477C623.794 124.577 623.924 124.643 624.063 124.667C624.203 124.69 624.347 124.669 624.474 124.606C624.601 124.545 624.703 124.443 624.764 124.316V124.316Z" fill="white" fill-opacity="0.3"/>
<path d="M619.104 90.345C619.167 90.2177 619.188 90.074 619.165 89.9341C619.141 89.7942 619.075 89.665 618.975 89.5647C618.874 89.4644 618.745 89.398 618.605 89.3747C618.465 89.3515 618.322 89.3726 618.194 89.435C618.064 89.4907 617.96 89.5946 617.904 89.725C617.846 89.881 617.846 90.053 617.906 90.2085C617.966 90.364 618.081 90.4922 618.229 90.5686C618.377 90.6451 618.548 90.6646 618.709 90.6234C618.87 90.5822 619.011 90.4831 619.104 90.345Z" fill="white" fill-opacity="0.3"/>
<path d="M617.964 67.9052C618.026 67.7778 618.047 67.6342 618.024 67.4942C618.001 67.3543 617.934 67.2252 617.834 67.1249C617.734 67.0246 617.605 66.9581 617.465 66.9349C617.325 66.9116 617.181 66.9327 617.054 66.9952C616.923 67.0509 616.819 67.1548 616.764 67.2852C616.71 67.3648 616.674 67.4548 616.657 67.5494C616.641 67.6439 616.645 67.741 616.668 67.834C616.692 67.927 616.735 68.0139 616.795 68.089C616.855 68.1642 616.93 68.2258 617.015 68.2698C617.1 68.3139 617.194 68.3394 617.29 68.3447C617.386 68.3499 617.482 68.3349 617.571 68.3004C617.661 68.266 617.742 68.213 617.81 68.1448C617.877 68.0767 617.93 67.995 617.964 67.9052V67.9052Z" fill="white" fill-opacity="0.3"/>
<path d="M595.243 79.2557C595.305 79.1284 595.327 78.9847 595.303 78.8447C595.28 78.7048 595.214 78.5757 595.113 78.4754C595.013 78.3751 594.884 78.3086 594.744 78.2854C594.604 78.2621 594.46 78.2832 594.333 78.3457C594.207 78.4073 594.105 78.5094 594.043 78.6357C593.98 78.7631 593.959 78.9068 593.983 79.0467C594.006 79.1866 594.072 79.3158 594.173 79.4161C594.273 79.5164 594.402 79.5828 594.542 79.606C594.682 79.6293 594.826 79.6082 594.953 79.5457C595.079 79.4841 595.181 79.382 595.243 79.2557V79.2557Z" fill="white" fill-opacity="0.3"/>
<path d="M562.794 167.666C562.856 167.539 562.877 167.395 562.854 167.255C562.831 167.115 562.764 166.986 562.664 166.886C562.564 166.785 562.435 166.719 562.295 166.696C562.155 166.672 562.011 166.693 561.884 166.756C561.758 166.815 561.659 166.918 561.604 167.046C561.541 167.173 561.52 167.317 561.543 167.457C561.567 167.597 561.633 167.726 561.733 167.826C561.834 167.927 561.963 167.993 562.103 168.016C562.243 168.039 562.386 168.018 562.514 167.956C562.639 167.897 562.739 167.793 562.794 167.666V167.666Z" fill="white" fill-opacity="0.3"/>
<path d="M558.884 183.785C558.946 183.658 558.967 183.514 558.944 183.374C558.921 183.234 558.854 183.105 558.754 183.005C558.654 182.904 558.524 182.838 558.385 182.815C558.245 182.791 558.101 182.813 557.974 182.875C557.845 182.933 557.742 183.036 557.684 183.165C557.621 183.292 557.6 183.436 557.623 183.576C557.647 183.716 557.713 183.845 557.813 183.945C557.914 184.046 558.043 184.112 558.183 184.135C558.323 184.159 558.466 184.138 558.594 184.075C558.722 184.017 558.825 183.914 558.884 183.785V183.785Z" fill="white" fill-opacity="0.3"/>
<path d="M807.222 461.481C807.284 461.354 807.305 461.21 807.282 461.07C807.259 460.93 807.192 460.801 807.092 460.701C806.992 460.6 806.862 460.534 806.722 460.511C806.583 460.487 806.439 460.508 806.311 460.571C806.181 460.627 806.077 460.73 806.021 460.861C805.956 460.988 805.932 461.133 805.954 461.274C805.976 461.415 806.043 461.546 806.145 461.646C806.247 461.747 806.378 461.812 806.519 461.833C806.661 461.853 806.805 461.828 806.931 461.761C807.057 461.703 807.159 461.604 807.222 461.481V461.481Z" fill="white" fill-opacity="0.3"/>
<path d="M792.872 468.662C792.934 468.535 792.955 468.391 792.932 468.251C792.909 468.111 792.843 467.982 792.742 467.882C792.642 467.781 792.513 467.715 792.373 467.692C792.233 467.668 792.089 467.689 791.962 467.752C791.833 467.81 791.73 467.913 791.672 468.042C791.609 468.169 791.588 468.313 791.612 468.453C791.635 468.593 791.701 468.722 791.802 468.822C791.902 468.923 792.031 468.989 792.171 469.012C792.311 469.036 792.455 469.014 792.582 468.952C792.708 468.89 792.81 468.788 792.872 468.662V468.662Z" fill="white" fill-opacity="0.3"/>
<path d="M796.382 475.402C796.136 475.648 796.152 476.063 796.417 476.328C796.683 476.594 797.098 476.609 797.344 476.363C797.59 476.117 797.574 475.703 797.308 475.437C797.043 475.172 796.628 475.156 796.382 475.402Z" fill="white" fill-opacity="0.3"/>
<path d="M665.981 503.912C666.044 503.785 666.065 503.641 666.042 503.501C666.018 503.361 665.952 503.232 665.852 503.132C665.751 503.031 665.622 502.965 665.482 502.942C665.342 502.918 665.199 502.939 665.071 503.002C664.946 503.061 664.846 503.164 664.791 503.292C664.729 503.419 664.708 503.563 664.731 503.703C664.754 503.843 664.821 503.972 664.921 504.072C665.021 504.173 665.15 504.239 665.29 504.262C665.43 504.286 665.574 504.264 665.701 504.202C665.827 504.143 665.926 504.04 665.981 503.912V503.912Z" fill="white" fill-opacity="0.3"/>
<path d="M662.071 520.031C662.134 519.904 662.155 519.76 662.131 519.62C662.108 519.48 662.042 519.351 661.941 519.251C661.841 519.15 661.712 519.084 661.572 519.061C661.432 519.038 661.288 519.059 661.161 519.121C661.032 519.179 660.929 519.282 660.871 519.411C660.809 519.538 660.788 519.682 660.811 519.822C660.834 519.962 660.9 520.091 661.001 520.191C661.101 520.292 661.23 520.358 661.37 520.381C661.51 520.405 661.654 520.384 661.781 520.321C661.91 520.263 662.013 520.16 662.071 520.031V520.031Z" fill="white" fill-opacity="0.3"/>
<path d="M1107.17 329.997C1107.23 329.869 1107.25 329.726 1107.23 329.586C1107.2 329.446 1107.14 329.316 1107.04 329.216C1106.94 329.116 1106.81 329.049 1106.67 329.026C1106.53 329.003 1106.38 329.024 1106.26 329.087C1106.13 329.142 1106.02 329.246 1105.97 329.377C1105.9 329.503 1105.88 329.648 1105.9 329.789C1105.92 329.931 1105.99 330.061 1106.09 330.162C1106.19 330.262 1106.32 330.328 1106.46 330.348C1106.61 330.369 1106.75 330.344 1106.88 330.277C1107 330.219 1107.1 330.12 1107.17 329.997V329.997Z" fill="white" fill-opacity="0.5"/>
<path d="M998.376 284.017C998.438 283.89 998.459 283.746 998.436 283.606C998.413 283.467 998.346 283.337 998.246 283.237C998.146 283.137 998.017 283.07 997.877 283.047C997.737 283.024 997.593 283.045 997.466 283.107C997.339 283.169 997.237 283.271 997.176 283.397C997.113 283.525 997.092 283.668 997.115 283.808C997.139 283.948 997.205 284.077 997.305 284.178C997.406 284.278 997.535 284.345 997.675 284.368C997.815 284.391 997.958 284.37 998.086 284.307C998.212 284.246 998.314 284.144 998.376 284.017V284.017Z" fill="white" fill-opacity="0.5"/>
<path d="M962.016 388.547C962.079 388.419 962.1 388.276 962.077 388.136C962.053 387.996 961.987 387.867 961.887 387.766C961.786 387.666 961.657 387.6 961.517 387.576C961.377 387.553 961.234 387.574 961.106 387.637C960.978 387.695 960.875 387.798 960.816 387.927C960.754 388.054 960.733 388.198 960.756 388.338C960.779 388.478 960.846 388.607 960.946 388.707C961.046 388.807 961.176 388.874 961.315 388.897C961.455 388.92 961.599 388.899 961.726 388.837C961.855 388.779 961.958 388.675 962.016 388.547V388.547Z" fill="white" fill-opacity="0.5"/>
<path style="mix-blend-mode:color-dodge" d="M1018.57 806.98C1018.57 805.577 1038.65 804.439 1063.4 804.439C1088.16 804.439 1108.25 805.577 1108.25 806.98C1108.25 808.382 1088.17 809.52 1063.4 809.52C1038.63 809.52 1018.57 808.335 1018.57 806.98Z" fill="url(#paint24_radial_8523_3218)"/>
<path style="mix-blend-mode:color-dodge" d="M1063.36 851.75C1061.95 851.75 1060.82 831.679 1060.82 806.934C1060.82 782.188 1061.95 762.102 1063.36 762.102C1064.76 762.102 1065.9 782.172 1065.9 806.934C1065.9 831.695 1064.76 851.75 1063.36 851.75Z" fill="url(#paint25_radial_8523_3218)"/>
<path style="mix-blend-mode:color-dodge" d="M1274.23 965.927C1274.23 964.945 1288.26 964.15 1305.56 964.15C1322.86 964.15 1336.89 964.945 1336.89 965.927C1336.89 966.908 1322.86 967.703 1305.56 967.703C1288.26 967.703 1274.23 966.862 1274.23 965.927Z" fill="url(#paint26_radial_8523_3218)"/>
<path style="mix-blend-mode:color-dodge" d="M1307.29 965.88C1307.29 948.581 1306.49 934.558 1305.51 934.558C1304.53 934.558 1303.74 948.581 1303.74 965.88C1303.74 983.178 1304.53 997.201 1305.51 997.201C1306.49 997.201 1307.29 983.178 1307.29 965.88Z" fill="url(#paint27_radial_8523_3218)"/>
<path style="mix-blend-mode:color-dodge" d="M1378.53 365.425C1378.53 364.831 1370.04 364.35 1359.56 364.35C1349.08 364.35 1340.59 364.831 1340.59 365.425C1340.59 366.019 1349.08 366.5 1359.56 366.5C1370.04 366.5 1378.53 366.019 1378.53 365.425Z" fill="url(#paint28_radial_8523_3218)"/>
<path style="mix-blend-mode:color-dodge" d="M1359.54 384.373C1358.95 384.373 1358.47 375.88 1358.47 365.409C1358.47 354.937 1358.95 346.46 1359.54 346.46C1360.14 346.46 1360.62 354.937 1360.62 365.409C1360.62 375.88 1360.14 384.373 1359.54 384.373Z" fill="url(#paint29_radial_8523_3218)"/>
<path style="mix-blend-mode:color-dodge" d="M1196.14 218.165C1196.14 217.571 1187.65 217.09 1177.17 217.09C1166.69 217.09 1158.2 217.571 1158.2 218.165C1158.2 218.759 1166.69 219.24 1177.17 219.24C1187.65 219.24 1196.14 218.759 1196.14 218.165Z" fill="url(#paint30_radial_8523_3218)"/>
<path style="mix-blend-mode:color-dodge" d="M612.961 589.8C612.961 589.206 604.467 588.725 593.989 588.725C583.511 588.725 575.018 589.206 575.018 589.8C575.018 590.394 583.511 590.875 593.989 590.875C604.467 590.875 612.961 590.394 612.961 589.8Z" fill="url(#paint31_radial_8523_3218)"/>
<path style="mix-blend-mode:color-dodge" d="M1177.16 237.113C1176.56 237.113 1176.08 228.621 1176.08 218.149C1176.08 207.677 1176.56 199.2 1177.16 199.2C1177.75 199.2 1178.23 207.677 1178.23 218.149C1178.23 228.621 1177.75 237.113 1177.16 237.113Z" fill="url(#paint32_radial_8523_3218)"/>
<path style="mix-blend-mode:color-dodge" d="M593.974 608.748C593.382 608.748 592.898 600.255 592.898 589.784C592.898 579.312 593.382 570.835 593.974 570.835C594.566 570.835 595.05 579.312 595.05 589.784C595.05 600.255 594.566 608.748 593.974 608.748Z" fill="url(#paint33_radial_8523_3218)"/>
<path style="mix-blend-mode:color-dodge" d="M979.459 511.124C979.459 510.53 970.965 510.049 960.487 510.049C950.009 510.049 941.516 510.53 941.516 511.124C941.516 511.718 950.009 512.199 960.487 512.199C970.965 512.199 979.459 511.718 979.459 511.124Z" fill="url(#paint34_radial_8523_3218)"/>
<path style="mix-blend-mode:color-dodge" d="M960.472 530.072C959.88 530.072 959.396 521.58 959.396 511.108C959.396 500.636 959.88 492.159 960.472 492.159C961.064 492.159 961.548 500.636 961.548 511.108C961.548 521.58 961.064 530.072 960.472 530.072Z" fill="url(#paint35_radial_8523_3218)"/>
</g>
<defs>
<radialGradient id="paint0_radial_8523_3218" cx="0" cy="0" r="1" gradientUnits="userSpaceOnUse" gradientTransform="translate(174.141 77.8607) rotate(-90) scale(26.8095 1.465)">
<stop stop-color="white"/>
<stop offset="1"/>
</radialGradient>
<radialGradient id="paint1_radial_8523_3218" cx="0" cy="0" r="1" gradientUnits="userSpaceOnUse" gradientTransform="translate(173.836 78.1652) rotate(180) scale(26.8095 1.465)">
<stop stop-color="white"/>
<stop offset="1"/>
</radialGradient>
<radialGradient id="paint2_radial_8523_3218" cx="0" cy="0" r="1" gradientUnits="userSpaceOnUse" gradientTransform="translate(72.0358 233.228) rotate(-90) scale(18.7392 1.024)">
<stop stop-color="white"/>
<stop offset="1"/>
</radialGradient>
<radialGradient id="paint3_radial_8523_3218" cx="0" cy="0" r="1" gradientUnits="userSpaceOnUse" gradientTransform="translate(72.0516 233.649) rotate(180) scale(18.7392 1.024)">
<stop stop-color="white"/>
<stop offset="1"/>
</radialGradient>
<radialGradient id="paint4_radial_8523_3218" cx="0" cy="0" r="1" gradientUnits="userSpaceOnUse" gradientTransform="translate(457.694 268.026) rotate(-90) scale(11.346 0.620002)">
<stop stop-color="white"/>
<stop offset="1"/>
</radialGradient>
<radialGradient id="paint5_radial_8523_3218" cx="0" cy="0" r="1" gradientUnits="userSpaceOnUse" gradientTransform="translate(457.266 268.345) rotate(180) scale(11.346 0.620002)">
<stop stop-color="white"/>
<stop offset="1"/>
</radialGradient>
<radialGradient id="paint6_radial_8523_3218" cx="0" cy="0" r="1" gradientUnits="userSpaceOnUse" gradientTransform="translate(552.285 151.108) rotate(-90) scale(11.346 0.620002)">
<stop stop-color="white"/>
<stop offset="1"/>
</radialGradient>
<radialGradient id="paint7_radial_8523_3218" cx="0" cy="0" r="1" gradientUnits="userSpaceOnUse" gradientTransform="translate(551.694 151.248) rotate(180) scale(11.346 0.620002)">
<stop stop-color="white"/>
<stop offset="1"/>
</radialGradient>
<radialGradient id="paint8_radial_8523_3218" cx="0" cy="0" r="1" gradientUnits="userSpaceOnUse" gradientTransform="translate(364.117 12.1923) rotate(-90) scale(11.346 0.620002)">
<stop stop-color="white"/>
<stop offset="1"/>
</radialGradient>
<radialGradient id="paint9_radial_8523_3218" cx="0" cy="0" r="1" gradientUnits="userSpaceOnUse" gradientTransform="translate(363.826 12.1267) rotate(180) scale(11.346 0.619999)">
<stop stop-color="white"/>
<stop offset="1"/>
</radialGradient>
<radialGradient id="paint10_radial_8523_3218" cx="0" cy="0" r="1" gradientUnits="userSpaceOnUse" gradientTransform="translate(312.883 763.445) scale(26.8095 1.465)">
<stop stop-color="white"/>
<stop offset="1"/>
</radialGradient>
<radialGradient id="paint11_radial_8523_3218" cx="0" cy="0" r="1" gradientUnits="userSpaceOnUse" gradientTransform="translate(312.581 763.75) rotate(90) scale(26.8095 1.465)">
<stop stop-color="white"/>
<stop offset="1"/>
</radialGradient>
<radialGradient id="paint12_radial_8523_3218" cx="0" cy="0" r="1" gradientUnits="userSpaceOnUse" gradientTransform="translate(157.516 865.55) scale(18.7392 1.024)">
<stop stop-color="white"/>
<stop offset="1"/>
</radialGradient>
<radialGradient id="paint13_radial_8523_3218" cx="0" cy="0" r="1" gradientUnits="userSpaceOnUse" gradientTransform="translate(157.095 865.534) rotate(90) scale(18.7392 1.024)">
<stop stop-color="white"/>
<stop offset="1"/>
</radialGradient>
<radialGradient id="paint14_radial_8523_3218" cx="0" cy="0" r="1" gradientUnits="userSpaceOnUse" gradientTransform="translate(122.718 479.892) scale(11.346 0.620002)">
<stop stop-color="white"/>
<stop offset="1"/>
</radialGradient>
<radialGradient id="paint15_radial_8523_3218" cx="0" cy="0" r="1" gradientUnits="userSpaceOnUse" gradientTransform="translate(122.399 480.32) rotate(90) scale(11.346 0.620002)">
<stop stop-color="white"/>
<stop offset="1"/>
</radialGradient>
<radialGradient id="paint16_radial_8523_3218" cx="0" cy="0" r="1" gradientUnits="userSpaceOnUse" gradientTransform="translate(239.637 385.301) scale(11.346 0.620002)">
<stop stop-color="white"/>
<stop offset="1"/>
</radialGradient>
<radialGradient id="paint17_radial_8523_3218" cx="0" cy="0" r="1" gradientUnits="userSpaceOnUse" gradientTransform="translate(239.494 385.892) rotate(90) scale(11.346 0.620002)">
<stop stop-color="white"/>
<stop offset="1"/>
</radialGradient>
<radialGradient id="paint18_radial_8523_3218" cx="0" cy="0" r="1" gradientUnits="userSpaceOnUse" gradientTransform="translate(378.552 573.469) scale(11.346 0.620002)">
<stop stop-color="white"/>
<stop offset="1"/>
</radialGradient>
<radialGradient id="paint19_radial_8523_3218" cx="0" cy="0" r="1" gradientUnits="userSpaceOnUse" gradientTransform="translate(378.617 573.76) rotate(90) scale(11.346 0.619999)">
<stop stop-color="white"/>
<stop offset="1"/>
</radialGradient>
<radialGradient id="paint20_radial_8523_3218" cx="0" cy="0" r="1" gradientUnits="userSpaceOnUse" gradientTransform="translate(521.786 1041.38) rotate(90) scale(18.7392 1.024)">
<stop stop-color="white"/>
<stop offset="1"/>
</radialGradient>
<radialGradient id="paint21_radial_8523_3218" cx="0" cy="0" r="1" gradientUnits="userSpaceOnUse" gradientTransform="translate(521.802 1040.96) rotate(180) scale(18.7392 1.024)">
<stop stop-color="white"/>
<stop offset="1"/>
</radialGradient>
<radialGradient id="paint22_radial_8523_3218" cx="0" cy="0" r="1" gradientUnits="userSpaceOnUse" gradientTransform="translate(907.444 1006.58) rotate(90) scale(11.346 0.620002)">
<stop stop-color="white"/>
<stop offset="1"/>
</radialGradient>
<radialGradient id="paint23_radial_8523_3218" cx="0" cy="0" r="1" gradientUnits="userSpaceOnUse" gradientTransform="translate(907.016 1006.26) rotate(180) scale(11.346 0.620002)">
<stop stop-color="white"/>
<stop offset="1"/>
</radialGradient>
<radialGradient id="paint24_radial_8523_3218" cx="0" cy="0" r="1" gradientUnits="userSpaceOnUse" gradientTransform="translate(1062.89 806.923) rotate(180) scale(41.7927 2.2829)">
<stop stop-color="white"/>
<stop offset="1"/>
</radialGradient>
<radialGradient id="paint25_radial_8523_3218" cx="0" cy="0" r="1" gradientUnits="userSpaceOnUse" gradientTransform="translate(1063.36 807.4) rotate(90) scale(41.777 2.28375)">
<stop stop-color="white"/>
<stop offset="1"/>
</radialGradient>
<radialGradient id="paint26_radial_8523_3218" cx="0" cy="0" r="1" gradientUnits="userSpaceOnUse" gradientTransform="translate(1305.09 966.034) rotate(180) scale(29.2121 1.59569)">
<stop stop-color="white"/>
<stop offset="1"/>
</radialGradient>
<radialGradient id="paint27_radial_8523_3218" cx="0" cy="0" r="1" gradientUnits="userSpaceOnUse" gradientTransform="translate(1305.75 966.01) rotate(90) scale(29.2011 1.59629)">
<stop stop-color="white"/>
<stop offset="1"/>
</radialGradient>
<radialGradient id="paint28_radial_8523_3218" cx="0" cy="0" r="1" gradientUnits="userSpaceOnUse" gradientTransform="translate(1359.34 365.068) rotate(180) scale(17.687 0.966145)">
<stop stop-color="white"/>
<stop offset="1"/>
</radialGradient>
<radialGradient id="paint29_radial_8523_3218" cx="0" cy="0" r="1" gradientUnits="userSpaceOnUse" gradientTransform="translate(1359.83 365.734) rotate(90) scale(17.6803 0.966515)">
<stop stop-color="white"/>
<stop offset="1"/>
</radialGradient>
<radialGradient id="paint30_radial_8523_3218" cx="0" cy="0" r="1" gradientUnits="userSpaceOnUse" gradientTransform="translate(1177.07 217.666) rotate(180) scale(17.687 0.966145)">
<stop stop-color="white"/>
<stop offset="1"/>
</radialGradient>
<radialGradient id="paint31_radial_8523_3218" cx="0" cy="0" r="1" gradientUnits="userSpaceOnUse" gradientTransform="translate(593.892 589.301) rotate(180) scale(17.687 0.966145)">
<stop stop-color="white"/>
<stop offset="1"/>
</radialGradient>
<radialGradient id="paint32_radial_8523_3218" cx="0" cy="0" r="1" gradientUnits="userSpaceOnUse" gradientTransform="translate(1177.29 218.586) rotate(90) scale(17.6804 0.966515)">
<stop stop-color="white"/>
<stop offset="1"/>
</radialGradient>
<radialGradient id="paint33_radial_8523_3218" cx="0" cy="0" r="1" gradientUnits="userSpaceOnUse" gradientTransform="translate(594.113 590.221) rotate(90) scale(17.6804 0.966515)">
<stop stop-color="white"/>
<stop offset="1"/>
</radialGradient>
<radialGradient id="paint34_radial_8523_3218" cx="0" cy="0" r="1" gradientUnits="userSpaceOnUse" gradientTransform="translate(960.522 510.887) rotate(180) scale(17.687 0.966131)">
<stop stop-color="white"/>
<stop offset="1"/>
</radialGradient>
<radialGradient id="paint35_radial_8523_3218" cx="0" cy="0" r="1" gradientUnits="userSpaceOnUse" gradientTransform="translate(960.422 511.339) rotate(90) scale(17.6804 0.966501)">
<stop stop-color="white"/>
<stop offset="1"/>
</radialGradient>
</defs>
</svg>
