<svg width="24" height="24" viewBox="0 0 24 24" fill="none" xmlns="http://www.w3.org/2000/svg">
<path d="M12 22.75C6.07 22.75 1.25 17.93 1.25 12C1.25 6.07 6.07 1.25 12 1.25C17.93 1.25 22.75 6.07 22.75 12C22.75 17.93 17.93 22.75 12 22.75ZM12 2.75C6.9 2.75 2.75 6.9 2.75 12C2.75 17.1 6.9 21.25 12 21.25C17.1 21.25 21.25 17.1 21.25 12C21.25 6.9 17.1 2.75 12 2.75Z" fill="#259C55"/>
<path d="M10.5777 15.5796C10.3789 15.5794 10.1882 15.5003 10.0477 15.3596L7.2177 12.5296C7.07822 12.3885 7 12.198 7 11.9996C7 11.8012 7.07822 11.6107 7.2177 11.4696C7.5077 11.1796 7.9877 11.1796 8.2777 11.4696L10.5777 13.7696L15.7177 8.62961C16.0077 8.33961 16.4877 8.33961 16.7777 8.62961C17.0677 8.91961 17.0677 9.39961 16.7777 9.68961L11.1077 15.3596C10.9672 15.5003 10.7765 15.5794 10.5777 15.5796Z" fill="#259C55"/>
</svg>
